<?xml version="1.0" encoding="UTF-8" standalone="no"?>
<!-- Created with Inkscape (http://www.inkscape.org/) -->

<svg
   xmlns:dc="http://purl.org/dc/elements/1.1/"
   xmlns:cc="http://creativecommons.org/ns#"
   xmlns:rdf="http://www.w3.org/1999/02/22-rdf-syntax-ns#"
   xmlns:svg="http://www.w3.org/2000/svg"
   xmlns="http://www.w3.org/2000/svg"
   xmlns:sodipodi="http://sodipodi.sourceforge.net/DTD/sodipodi-0.dtd"
   xmlns:inkscape="http://www.inkscape.org/namespaces/inkscape"
   id="svg4010"
   version="1.1"
   inkscape:version="0.91 r13725"
   width="625"
   height="625"
   viewBox="0 0 625 625"
   sodipodi:docname="close2.svg">
  <metadata
     id="metadata4016">
    <rdf:RDF>
      <cc:Work
         rdf:about="">
        <dc:format>image/svg+xml</dc:format>
        <dc:type
           rdf:resource="http://purl.org/dc/dcmitype/StillImage" />
        <dc:title></dc:title>
      </cc:Work>
    </rdf:RDF>
  </metadata>
  <defs
     id="defs4014" />
  <sodipodi:namedview
     pagecolor="#ffffff"
     bordercolor="#666666"
     borderopacity="1"
     objecttolerance="10"
     gridtolerance="10"
     guidetolerance="10"
     inkscape:pageopacity="0"
     inkscape:pageshadow="2"
     inkscape:window-width="640"
     inkscape:window-height="480"
     id="namedview4012"
     showgrid="false"
     inkscape:zoom="0.3776"
     inkscape:cx="-18.538136"
     inkscape:cy="312.5"
     inkscape:window-x="0"
     inkscape:window-y="0"
     inkscape:window-maximized="0"
     inkscape:current-layer="svg4010" />
  <g
     id="g4020">
    <path
       style="fill:#d2cece"
       d="M 0,312.5 0,0 312.5,0 625,0 625,312.5 625,625 312.5,625 0,625 0,312.5 Z"
       id="path4036"
       inkscape:connector-curvature="0" />
    <path
       style="fill:#ec93a4"
       d="M 0,312.5 0,0 312.5,0 625,0 625,312.5 625,625 312.5,625 0,625 0,312.5 Z m 569.51003,294.29134 32.63503,-0.81488 0.80247,-11.30526 c 1.04148,-14.67256 1.04821,-192.5294 0.007,-200.12174 l -0.79483,-5.79946 -28.68204,0 -28.68205,0 2.60195,4.21004 c 2.55409,4.1326 2.60195,5.48593 2.60195,73.56347 0,47.38528 -0.43731,70.6079 -1.38059,73.3138 C 546.39793,546.20985 538.62743,550 527.78405,550 c -9.83892,0 -14.45809,-1.32194 -18.85417,-5.39576 -4.95344,-4.59034 -5.61577,-8.09534 -6.34802,-33.59338 l -0.70686,-24.61413 -27.5,25.66322 c -15.125,14.11476 -28.76563,26.16158 -30.3125,26.7707 -1.61021,0.63405 -4.03784,0.6416 -5.67891,0.0176 -1.57653,-0.59939 -10.6671,-9.44484 -20.20128,-19.65657 -9.53417,-10.21171 -17.76227,-18.73941 -18.28466,-18.95044 -0.52239,-0.21103 -3.75014,1.03535 -7.1728,2.76976 -46.66561,23.64724 -107.6356,22.48148 -154.80225,-2.95988 C 232.77209,497.27304 228.14364,495 227.63715,495 c -0.50649,0 -11.57267,11.30367 -24.59151,25.11928 -13.01885,13.8156 -24.79564,25.55629 -26.17064,26.09043 -4.32185,1.67889 -8.37395,-0.96373 -21.59864,-14.08579 C 144.9296,521.85746 142.19509,519.7401 141.233,521.25 c -0.6571,1.03125 -1.20334,3.29003 -1.21386,5.0195 -0.0299,4.91129 -4.1702,11.43864 -8.84622,13.94641 -3.18091,1.70595 -6.98553,2.28409 -15.03106,2.28409 -9.11839,0 -11.42421,-0.4356 -15.01951,-2.83741 -8.841211,-5.90633 -8.62293,-3.92725 -8.5796,-77.78759 0.0362,-61.71617 0.200945,-66.71957 2.407245,-73.11165 1.302609,-3.7739 2.16685,-7.06318 1.920536,-7.30949 -0.246315,-0.24631 -17.705405,-0.76062 -38.797978,-1.14292 l -38.350134,-0.69509 0.453171,112.58979 c 0.249244,61.92438 0.92098,113.05768 1.492748,113.62957 2.049287,2.0497 471.249102,2.86858 547.841692,0.95613 z M 348.75,471.65191 c 10.01271,-2.075 18.75,-5.12146 18.75,-6.53764 0,-2.82315 -3.02424,-3.56841 -7.73535,-1.90623 -11.38966,4.0185 -26.29833,5.84537 -42.26465,5.179 -17.08099,-0.71289 -24.83521,-2.43373 -41.65845,-9.24495 -8.86498,-3.58917 -11.31023,-4.15632 -12.13889,-2.81549 -1.49332,2.41625 -0.72742,3.13409 7.25874,6.80329 23.4824,10.78883 51.85264,13.8969 77.7886,8.52202 z m 156.55361,-76.26015 c 1.19824,-2.19077 2.74511,-4.33335 3.4375,-4.76126 3.51492,-2.17234 0.1264,-3.1305 -11.07089,-3.1305 l -12.32977,0 -5.17436,14.6875 c -2.8459,8.07812 -5.1725,15.15221 -5.17023,15.72019 0.002,0.56798 6.05101,7.47751 13.44164,15.35451 l 13.4375,14.32182 0.625,-24.10451 c 0.51171,-19.73515 1.01991,-24.82653 2.80361,-28.08775 z m -355.365,20.82893 7.8026,-8.77933 -4.11778,-13.09567 -4.11779,-13.09569 -7.25283,0 c -3.98905,0 -7.25281,0.2491 -7.25281,0.55355 0,0.30445 1.26562,2.69507 2.8125,5.3125 2.46002,4.16252 2.83495,6.63884 2.99159,19.75895 0.20104,16.83769 0.26417,18.125 0.88892,18.125 0.24365,0 3.95418,-3.95069 8.2456,-8.77931 z"
       id="path4034"
       inkscape:connector-curvature="0" />
    <path
       style="fill:#b0aeae"
       d="M 0,312.5 0,0 312.5,0 625,0 625,312.5 625,625 312.5,625 0,625 0,312.5 Z m 569.51003,294.29134 32.63503,-0.81488 0.80247,-11.30526 c 1.04148,-14.67256 1.04821,-192.5294 0.007,-200.12174 l -0.79483,-5.79946 -28.68204,0 -28.68205,0 2.60195,4.21004 c 2.55409,4.1326 2.60195,5.48593 2.60195,73.56347 0,47.38528 -0.43731,70.6079 -1.38059,73.3138 C 546.38735,546.2402 538.63413,550 527.66252,550 c -14.38068,0 -21.36422,-4.40033 -23.80575,-15 -1.86348,-8.09018 -1.66813,-48.69268 0.25003,-51.96512 0.83501,-1.42457 3.90882,-4.72439 6.8307,-7.33295 2.92187,-2.60857 5.3125,-5.85329 5.3125,-7.21052 0,-1.35722 -2.45464,-5.3699 -5.45476,-8.91705 -3.00011,-3.54715 -6.09387,-7.67801 -6.875,-9.17969 -0.9125,-1.75423 -1.41043,-10.9151 -1.39279,-25.625 0.0236,-19.6743 0.35694,-23.62023 2.36985,-28.05296 1.28831,-2.83706 2.96345,-5.54212 3.72254,-6.01127 3.63956,-2.24938 0.37368,-3.20544 -10.94961,-3.20544 l -12.32978,0 -5.24139,14.86436 c -4.54021,12.87588 -5.56305,14.78025 -7.64587,14.23558 -2.86331,-0.74877 -26.70245,-26.24534 -31.49801,-33.68794 -1.84743,-2.86714 -4.39759,-5.54264 -5.66704,-5.94555 C 432.01662,375.92811 387.5,328.05076 387.5,325.57062 c 0,-2.14528 30.9656,-35.27405 35.00059,-37.44562 1.27744,-0.6875 4.1229,-3.73655 6.32326,-6.77566 2.20036,-3.03912 15.83131,-17.47508 30.29101,-32.07992 14.45969,-14.60484 26.85586,-27.58705 27.54705,-28.84935 0.6912,-1.26228 10.72503,-12.20199 22.2974,-24.31047 C 524.63145,179.71145 530,173.3015 530,170.98737 c 0,-2.19875 -2.28346,-5.24128 -7.8125,-10.40953 -4.29688,-4.0165 -20.2881,-19.57087 -35.53606,-34.56528 C 466.5528,106.24812 458.12784,98.75 456.01899,98.75 c -2.1972,0 -13.30512,10.91597 -45.40144,44.61687 -23.3709,24.53929 -43.41444,46.05492 -44.5412,47.8125 -1.12675,1.75761 -11.25175,12.57182 -22.5,24.03162 -11.24824,11.45979 -22.31124,23.13166 -24.58442,25.9375 -2.27321,2.80582 -4.90583,5.10151 -5.8503,5.10151 -0.94447,0 -3.86583,-2.54709 -6.49192,-5.6602 -2.62608,-3.1131 -12.57257,-13.65998 -22.10331,-23.4375 -9.53073,-9.77751 -18.24948,-19.23443 -19.375,-21.01535 -1.12551,-1.78092 -23.64914,-26.3903 -50.05249,-54.6875 C 173.46711,96.810061 166.63847,90 163.52909,90 c -3.81406,0 -11.72317,6.829595 -30.76105,26.5625 -5.14046,5.32813 -9.95036,9.6875 -10.68867,9.6875 -0.73831,0 -5.58632,4.35987 -10.77337,9.68861 -5.18705,5.32875 -12.384125,12.33558 -15.9935,15.57075 -4.690481,4.20419 -6.5625,6.79909 -6.5625,9.09661 0,2.48288 7.894808,11.67027 34.6875,40.36675 19.07813,20.43375 36.20341,39.12103 38.0562,41.52728 1.85278,2.40625 13.28449,14.5 25.4038,26.875 12.1193,12.375 23.10959,24.56847 24.42284,27.09661 1.31325,2.52814 3.49623,4.94844 4.85108,5.37845 2.91099,0.92391 21.32858,20.86783 21.32858,23.09615 0,2.28865 -25.90988,29.60617 -30.83896,32.5144 -2.34503,1.3836 -5.22496,4.3048 -6.39987,6.49155 -2.82966,5.26664 -37.50296,41.93874 -40.35906,42.68563 -1.86378,0.48739 -2.90102,-1.5502 -6.31333,-12.40229 l -4.08314,-12.9855 -7.25283,0 c -3.98905,0 -7.25281,0.2491 -7.25281,0.55355 0,0.30445 1.26562,2.69507 2.8125,5.3125 2.51911,4.26251 2.82677,6.51927 2.94939,21.63395 0.0826,10.18261 -0.41452,17.9666 -1.25349,19.62749 -0.7647,1.51386 -9.96693,11.73398 -20.44939,22.71139 C 104.96676,465.84651 100,471.85581 100,474.14845 c 0,2.37309 4.42463,7.29926 18.85627,20.99367 10.37094,9.84117 19.64542,19.41908 20.60994,21.28425 1.34884,2.60838 1.47639,4.85332 0.55253,9.72483 -2.4244,12.78384 -7.67637,16.3488 -24.0853,16.3488 -8.90171,0 -11.23198,-0.44641 -14.81109,-2.83741 -8.841211,-5.90633 -8.62293,-3.92725 -8.5796,-77.78759 0.0362,-61.71617 0.200945,-66.71957 2.407245,-73.11165 1.302609,-3.7739 2.16685,-7.06318 1.920536,-7.30949 -0.246315,-0.24631 -17.705405,-0.76062 -38.797978,-1.14292 l -38.350134,-0.69509 0.453171,112.58979 c 0.249244,61.92438 0.92098,113.05768 1.492748,113.62957 2.049287,2.0497 471.249102,2.86858 547.841692,0.95613 z M 294.375,518.6329 c -22.03808,-3.83463 -37.84854,-8.94749 -54.59025,-17.65365 -10.09404,-5.24918 -11.94981,-6.6669 -11.23968,-8.58658 1.05287,-2.84615 25.67524,-29.32417 29.75472,-31.99714 2.78887,-1.82734 3.49391,-1.70162 11.25951,2.00779 25.60608,12.23133 60.32252,15.28184 86.0657,7.56256 4.8125,-1.44307 10.10144,-2.95147 11.75319,-3.35199 2.57917,-0.62542 4.99552,1.36638 17.1146,14.10766 7.76127,8.15975 14.35274,15.75873 14.64769,16.88661 1.23244,4.7129 -30.33665,16.49977 -55.03513,20.5483 -11.92244,1.95432 -39.70697,2.2205 -49.73035,0.47644 z M 300,466.93009 c -8.9139,-1.90384 -15.36789,-4.0422 -27.0919,-8.97623 -5.95319,-2.50538 -7.54584,-3.71404 -6.96844,-5.28825 1.46597,-3.99678 44.4389,-47.7922 46.52188,-47.41228 2.26366,0.41286 48.75205,49.67643 50.54732,53.56479 0.62363,1.35071 0.85929,2.73039 0.52372,3.06597 -0.33559,0.33558 -5.06458,1.79992 -10.50887,3.2541 -12.75533,3.40695 -40.9938,4.36125 -53.02371,1.7919 z"
       id="path4032"
       inkscape:connector-curvature="0" />
    <path
       style="fill:#8a8989"
       d="M 0,312.5 0,0 312.5,0 625,0 625,312.5 625,625 312.5,625 0,625 0,312.5 Z m 545.74621,295.53472 57.62123,-0.82443 0.81246,-21.41765 c 1.30734,-34.46354 0.94157,-186.41333 -0.5538,-230.06345 -0.75564,-22.0573 -1.49348,-40.23265 -1.63962,-40.38965 -0.14616,-0.157 -12.97013,-0.66627 -28.49772,-1.13169 l -28.23198,-0.84623 -0.71256,10.50669 c -0.39189,5.77868 -0.97251,22.9668 -1.29023,38.19581 l -0.5777,27.68913 3.03686,4.11622 3.03685,4.11623 0,70.21357 c 0,69.31042 -0.0336,70.25627 -2.61037,73.53213 -4.24119,5.3918 -8.79407,7.0186 -19.6427,7.0186 -8.21954,0 -10.59005,-0.47985 -14.12458,-2.85916 -7.41491,-4.99145 -7.95574,-7.36803 -8.37866,-36.8189 l -0.38131,-26.55308 6.31881,-5.82062 c 3.47535,-3.20134 6.31881,-6.88648 6.31881,-8.18919 0,-1.30271 -2.8125,-5.74813 -6.25,-9.8787 l -6.25,-7.51014 0,-23.72525 c 0,-24.54904 0.84546,-29.61364 5.87054,-35.16627 1.80906,-1.99899 1.94447,-6.25439 1.26889,-39.87503 -0.41597,-20.70046 -1.08934,-37.97024 -1.49638,-38.37729 -0.40705,-0.40703 -6.14106,-0.9763 -12.74226,-1.26501 l -12.00218,-0.52492 0.77042,3.59427 c 0.42373,1.97686 1.14823,11.50278 1.61,21.16871 1.20555,25.23474 -2.00884,48.1594 -9.758,69.59293 -4.38929,12.14041 -4.66218,12.09953 -18.75044,-2.80944 -16.24899,-17.19556 -16.279,-17.24151 -14.72891,-22.55017 2.5197,-8.62929 3.76933,-27.89579 2.56461,-39.54029 C 444.87155,327.29152 440.62407,312.5 437.98784,312.5 c -1.23492,0 -1.67267,0.77042 -1.24293,2.1875 3.8635,12.73976 5.30083,33.6282 3.33118,48.41145 -1.53864,11.54819 -2.83417,14.70322 -5.60147,13.64131 C 431.54625,375.61654 387.5,327.64989 387.5,325.58459 c 0,-2.6609 32.33958,-36.5233 35.68196,-37.36219 1.41233,-0.35447 3.4636,-2.49015 4.55839,-4.74595 2.20424,-4.5418 24.04025,-28.24784 27.20632,-29.53626 C 457.78721,252.78424 486.25,223.165 486.25,221.365 c 0,-0.81964 9.84375,-11.8007 21.875,-24.40235 16.3744,-17.15071 21.875,-23.69688 21.875,-26.033 0,-2.36 -3.42854,-6.34201 -14.0625,-16.33266 C 508.20312,147.33052 498.78125,138.14247 495,134.17911 477.5914,115.93205 459.77671,98.8476 457.35779,98.079862 c -1.73258,-0.549896 -3.67892,-0.03603 -5.58939,1.475727 -5.60554,4.435611 -82.77089,86.338611 -84.73973,89.942411 -1.62621,2.97662 -25.59051,27.91959 -38.91286,40.502 -1.81982,1.71875 -5.09349,5.60302 -7.2748,8.63171 -5.98744,8.31342 -7.51355,8.87293 -12.16002,4.45822 -2.15047,-2.04322 -4.98895,-5.81272 -6.30773,-8.37667 -1.31879,-2.56396 -3.93915,-5.46562 -5.82302,-6.44814 C 292.57099,226.18979 266.51986,198.76604 263.75,193.73666 260.63965,188.08904 168.33276,89.948756 165.44712,89.221476 161.68224,88.272592 155.39609,91.858203 153.125,96.25 c -1.05453,2.039225 -3.45468,4.5268 -5.33366,5.52794 -3.51818,1.87452 -5.4621,3.74926 -16.59538,16.00479 -3.57626,3.93675 -8.5383,8.1555 -11.02676,9.375 -2.48846,1.21949 -5.19614,3.62352 -6.01708,5.34227 -1.63555,3.42429 -17.7683,18.71671 -19.77712,18.74698 -1.685721,0.0254 -5.625,7.11228 -5.625,10.11956 0,1.4377 14.66027,18.10753 36.25,41.21902 19.9375,21.34279 36.25,39.57801 36.25,40.52272 0,0.94471 5.49144,6.81789 12.2032,13.05152 19.64596,18.24642 36.78941,37.22799 37.70638,41.7492 0.63238,3.11811 1.51987,4.04961 4.15123,4.35707 2.34815,0.27438 6.15821,3.48771 12.76804,10.76829 5.18164,5.70748 9.40728,11.15649 9.39031,12.10893 -0.0485,2.72161 -29.42509,32.84051 -31.05104,31.83562 -2.26832,-1.40191 -1.68472,-20.51497 1.0585,-34.66628 1.36215,-7.02682 2.19653,-13.05614 1.85418,-13.3985 -1.18656,-1.18655 -2.78389,1.75023 -5.34979,9.83587 -3.44035,10.84122 -5.23101,23.65919 -5.23101,37.44474 l 0,11.34085 -18.40174,19.3572 C 170.22731,397.53926 161.52152,406.25 161.00209,406.25 c -1.95534,0 -4.52057,-5.97913 -7.1025,-16.55475 -5.93122,-24.29429 -6.61865,-52.83421 -1.88199,-78.13275 l 0.76063,-4.0625 -9.31842,0 -9.31841,0 -0.81654,19.6875 c -0.44908,10.82812 -0.81841,28.17845 -0.8207,38.55626 -0.004,17.26655 0.20753,19.06035 2.48883,21.12489 3.79942,3.43844 4.99241,9.79262 5.00004,26.63187 l 0.007,15.37552 -16.11114,17.12448 c -8.86113,9.41847 -17.86113,18.77659 -20,20.79584 -7.043974,6.65003 -6.182493,8.25385 15.50592,28.86743 10.66713,10.13848 19.72992,19.7689 20.13953,21.40092 1.4806,5.8992 -0.77616,14.213 -5.15606,18.99466 l -4.18201,4.56563 -12.28562,0.36986 c -10.38393,0.31261 -12.88157,-0.004 -16.13566,-2.03992 -8.114489,-5.07895 -8.02496,-4.22249 -8.02496,-76.76983 0,-67.62914 0.169097,-70.15997 5.16781,-77.34524 2.14791,-3.08746 2.22323,-5.51405 1.25181,-40.32783 -0.568499,-20.37349 -1.261101,-37.24173 -1.539125,-37.48498 -0.278022,-0.24324 -18.01826,-0.82974 -39.422751,-1.30332 l -38.917255,-0.86107 -0.947591,38.50617 c -1.011743,41.11306 -0.04213,262.5986 1.154836,263.79556 1.881744,1.88175 407.576346,2.55398 525.248476,0.87032 z M 290.38312,516.83496 c -19.8513,-3.6307 -37.79376,-9.87558 -53.31852,-18.55752 -4.57303,-2.55739 -8.31348,-5.32539 -8.31211,-6.15112 0.004,-2.44921 28.75958,-32.12632 31.1287,-32.12632 1.19667,0 5.68542,1.7001 9.97498,3.77799 4.28957,2.07788 12.68612,5.28226 18.65902,7.12082 10.12138,3.11555 12.43223,3.34178 33.98481,3.327 20.35175,-0.014 24.24929,-0.35348 32.5,-2.83126 17.50669,-5.25746 15.27498,-6.00675 30.39496,10.20502 7.34528,7.87565 13.35504,14.94827 13.35504,15.7169 0,3.90745 -30.83523,15.42152 -51.07341,19.07114 -15.44763,2.78573 -43.3183,3.00334 -57.29346,0.44735 z m 22.7004,-49.45777 c -12.4197,-0.92492 -20.9717,-2.89728 -33.08352,-7.63013 -17.08806,-6.67737 -17.57096,-4.7999 8.13026,-31.61006 13.97006,-14.57283 23.05429,-23.11659 24.33128,-22.88368 2.72469,0.49695 49.30792,50.48853 49.79712,53.4406 0.39646,2.39257 -1.39049,3.24212 -13.24605,6.29738 -8.21366,2.11672 -24.7755,3.21652 -35.92908,2.38589 z"
       id="path4030"
       inkscape:connector-curvature="0" />
    <path
       style="fill:#9c656f"
       d="M 0,312.5 0,0 312.5,0 625,0 625,312.5 625,625 312.5,625 0,625 0,312.5 Z m 603.38531,294.64499 c 1.15405,-1.15816 1.60089,-24.87776 1.87714,-99.64499 0.40345,-109.1958 -1.12638,-417.782315 -2.2842,-460.751309 L 602.23384,19.122384 583.92942,18.298556 C 545.1065,16.551252 23.140955,17.439517 21.117857,19.256331 21.04518,19.321599 20.466472,85.1875 19.831842,165.625 c -1.642051,208.12527 -1.483468,439.25991 0.302857,441.4123 1.84412,2.22202 90.047141,2.7188 371.738161,2.0937 162.68758,-0.36102 210.33909,-0.80845 211.51245,-1.98601 z m -84.94372,-59.52875 c -2.57588,-0.53425 -5.86784,-2.04325 -7.31548,-3.35335 -5.6058,-5.07318 -6.03617,-7.58725 -6.17483,-36.07081 l -0.1319,-27.09291 5.71531,-5.03082 c 3.2149,-2.82986 5.71531,-6.12757 5.71531,-7.53771 0,-1.3788 -2.57421,-5.52005 -5.72046,-9.20278 l -5.72047,-6.69587 0.13917,-25.21071 c 0.14275,-25.86275 0.95397,-31.00572 5.48313,-34.76183 2.41533,-2.00309 2.54935,-8.73881 1.24279,-62.45636 l -0.82584,-33.95309 -7.24035,0 c -3.98218,0 -8.61126,-0.62464 -10.28682,-1.38807 -6.06996,-2.76566 -6.44615,-5.20114 -6.44615,-41.73261 l 0,-33.99517 21.5625,-22.51998 C 524.53007,179.80701 530,173.30607 530,170.98737 c 0,-2.19996 -2.28041,-5.2351 -7.8125,-10.39812 -4.29688,-4.01023 -13.76601,-13.09001 -21.04254,-20.17733 l -13.23003,-12.88602 0.96586,-7.11743 c 2.31054,-17.02646 15.51875,-34.226589 32.33917,-42.11305 9.74117,-4.567265 15.27424,-4.858464 19.12032,-1.006283 l 2.78472,2.789138 0,155.898365 c 0,146.46391 0.13238,156.0854 2.1875,158.989 2.02226,2.85717 2.1845,8.42796 2.14775,73.75 -0.0422,75.17291 0.17444,72.49926 -6.21025,76.60847 -3.7221,2.39555 -16.24295,3.65383 -22.80841,2.29213 z M 103.79252,539.13821 C 101.40966,537.89345 98.315909,534.90625 96.917523,532.5 94.447839,528.25034 94.375,526.22705 94.375,461.875 l 0,-66.25 3.4375,-6.99959 3.4375,-6.99959 -0.009,-43.62541 c -0.005,-23.99397 -0.36592,-47.40556 -0.80229,-52.02575 l -0.793401,-8.40034 -6.614586,-1.92291 C 84.653199,273.21596 79.136156,268.59861 77.581211,262.72125 74.121091,249.64271 67.5,169.46043 67.5,140.63645 c 0,-18.59138 2.29732,-38.08645 5.10675,-43.335914 2.663616,-4.977014 11.241559,-5.845905 12.986506,-1.315452 0.453316,1.176953 1.98112,14.760776 3.39512,30.186266 1.93589,21.11882 2.223961,28.6019 1.166268,30.29554 -0.772554,1.23705 -1.404644,3.38869 -1.404644,4.78138 0,1.59267 13.45019,16.93044 36.25,41.33729 40.50496,43.35994 37.55735,38.64808 35.04576,56.02204 -1.69204,11.70472 -7.19777,16.18521 -23.90782,19.45584 l -3.23707,0.63357 -0.87027,52.01164 -0.87028,52.01164 3.79484,5.72916 c 3.7936,5.7273 3.79484,5.73507 3.77705,23.95235 l -0.0178,18.2232 -19.35721,20.19982 C 105.00509,465.80169 100,471.82693 100,474.12741 c 0,2.37819 4.52453,7.40307 19.375,21.51758 l 19.375,18.41481 0,6.84369 c 0,8.03317 -2.64303,14.33206 -7.29519,17.38595 -5.03184,3.30311 -21.96907,3.82281 -27.66229,0.84877 z M 298.5565,517.41466 c -12.28166,-1.52179 -30.2175,-6.13471 -42.9315,-11.04157 -10.63428,-4.10421 -25.78984,-12.41056 -26.47211,-14.50864 -0.22547,-0.69331 6.22256,-8.24944 14.32892,-16.79141 l 14.73884,-15.53085 13.70217,5.70943 c 20.67288,8.61401 29.25102,10.37338 50.57718,10.37338 18.33239,0 23.6637,-0.7956 40.48006,-6.04094 l 8.60508,-2.68408 13.54455,14.36251 c 7.44951,7.89938 13.37966,14.92501 13.17811,15.61251 -1.16175,3.96286 -27.66469,14.17294 -47.03751,18.12086 -14.65747,2.987 -39.08279,4.10778 -52.71379,2.4188 z m 4.15226,-51.8589 c -5.04144,-0.92056 -12.07269,-2.6255 -15.625,-3.78873 -7.32052,-2.39717 -20.83376,-8.91864 -20.83376,-10.05436 0,-0.41323 9.93909,-11.11926 22.08686,-23.79118 13.83544,-14.4324 22.84816,-22.90099 24.12468,-22.66817 2.85792,0.52125 49.41346,50.70584 49.41346,53.26528 0,2.5624 -5.79463,4.59424 -20.33255,7.12944 -12.71461,2.21725 -26.3634,2.18481 -38.83369,-0.0922 z m 154.12509,-63.75366 -13.5499,-14.52831 2.11383,-10.19939 c 3.02558,-14.59879 2.82093,-38.36145 -0.44849,-52.0744 -3.29631,-13.82571 -6.48467,-22.31574 -12.54681,-33.41001 l -4.93694,-9.03502 8.62866,-9.71498 c 13.02323,-14.66283 18.17499,-19.29197 20.48395,-18.40594 1.10486,0.42397 4.26445,4.52164 7.0213,9.10591 22.01334,36.6051 28.55173,85.99234 17.16176,129.63013 -2.66255,10.20088 -7.43256,22.1787 -9.04665,22.71672 -0.73195,0.24399 -7.42826,-6.09414 -14.88071,-14.08471 z M 158.885,404.00224 c -2.06521,-3.85888 -6.17679,-21.62528 -7.7243,-33.37724 -2.03768,-15.47424 -0.87361,-43.20419 2.41961,-57.6391 C 159.18945,288.39979 171.94174,260 177.37245,260 c 0.61735,0 8.47023,7.83249 17.45082,17.40552 l 16.32837,17.40552 -3.2339,7.90698 c -7.42288,18.1491 -11.37319,40.72673 -9.84857,56.28845 l 0.82117,8.38149 -18.4719,19.43101 C 170.25889,397.50604 161.52835,406.25 161.01725,406.25 c -0.51111,0 -1.47063,-1.01149 -2.13225,-2.24776 z m 251.36255,-52.0668 c -12.61114,-13.47988 -22.71914,-25.31625 -22.6838,-26.5625 0.0351,-1.23636 7.60528,-10.07073 16.82269,-19.63191 19.27276,-19.99154 18.29552,-19.79588 25.13522,-5.03249 7.6663,16.54761 9.83356,27.49215 9.76079,49.29146 -0.0649,19.42372 -1.2686,26.25 -4.62895,26.25 -0.91211,0 -11.89479,-10.94155 -24.40595,-24.31456 z m -204.36029,1.81244 c -2.17702,-8.32497 4.46389,-43.47743 9.27704,-49.10632 l 2.36563,-2.76656 9.95622,10.625 c 5.47591,5.84375 9.96917,11.385 9.98503,12.3139 0.0371,2.17181 -27.30402,31.4361 -29.37017,31.4361 -0.85769,0 -1.85387,-1.12595 -2.21375,-2.50213 z M 307.74521,242.12799 c -4.65006,-4.79764 -4.95156,-6.5282 -1.46265,-8.39541 3.10466,-1.66157 16.47983,-1.10908 17.07718,0.7054 0.55902,1.69807 -8.07783,11.81202 -10.08694,11.81202 -0.84281,0 -3.33022,-1.8549 -5.52759,-4.12201 z m -12.2904,-14.08833 c -0.7811,-0.35921 -8.26885,-7.9744 -16.63944,-16.92262 -18.04973,-19.29529 -18.36361,-20.42373 -6.60107,-23.73125 23.72216,-6.6705 52.86335,-8.02611 76.10759,-3.54044 13.97095,2.69611 17.92811,4.08588 17.92811,6.2964 0,0.71709 -7.35825,9.05499 -16.35166,18.52866 l -16.35165,17.22488 -12.08585,0.83891 c -6.64722,0.46139 -14.89834,1.09082 -18.33584,1.39874 -3.4375,0.30791 -6.88909,0.26593 -7.67019,-0.0932 z M 93.881918,150.08152 c -2.104172,-1.30045 2.330122,-51.398465 4.814343,-54.391769 2.442419,-2.942937 8.418329,-2.448896 10.556719,0.872749 1.11199,1.727291 2.38261,9.46758 3.29301,20.06027 1.69052,19.6693 2.45122,17.53114 -10.11434,28.42947 -4.515296,3.91621 -7.505088,5.67491 -8.549732,5.02928 z M 120.33907,124.6875 c -1.431,-1.83717 0.22664,-23.81279 2.12148,-28.125 1.27578,-2.90336 6.47548,-3.846245 9.74979,-1.767973 2.02126,1.282935 4.03966,8.272933 4.03966,13.989923 0,3.68627 -1.10331,5.51556 -6.60181,10.94575 -7.18109,7.09189 -7.51003,7.26706 -9.30913,4.9573 z m 26.33349,-25.389312 c -1.04249,-2.716668 3.1527,-6.222924 5.10716,-4.268467 0.88545,0.88545 0.87853,1.939967 -0.0221,3.367785 -1.89145,2.998564 -4.12799,3.394714 -5.08504,0.900682 z"
       id="path4028"
       inkscape:connector-curvature="0" />
    <path
       style="fill:#737272"
       d="M 0,312.5 0,0 312.5,0 625,0 625,312.5 625,625 312.5,625 0,625 0,312.5 Z m 603.38531,294.64499 c 1.15405,-1.15816 1.60089,-24.87776 1.87714,-99.64499 0.40345,-109.1958 -1.12638,-417.782315 -2.2842,-460.751309 L 602.23384,19.122384 583.92942,18.298556 C 545.1065,16.551252 23.140955,17.439517 21.117857,19.256331 21.04518,19.321599 20.466472,85.1875 19.831842,165.625 c -1.642051,208.12527 -1.483468,439.25991 0.302857,441.4123 1.84412,2.22202 90.047141,2.7188 371.738161,2.0937 162.68758,-0.36102 210.33909,-0.80845 211.51245,-1.98601 z m -84.94372,-59.52875 c -2.57588,-0.53425 -5.86784,-2.04325 -7.31548,-3.35335 C 505.45087,539.12686 505,536.54629 505,509.20009 l 0,-25.92407 6.25,-5.77602 c 8.14834,-7.5304 8.14977,-10.07814 0.0113,-19.58629 l -6.2389,-7.28871 -0.0113,-24.10265 c -0.0113,-24.84195 0.8221,-30.04956 5.42026,-33.8629 2.41533,-2.00309 2.54935,-8.73881 1.24279,-62.45636 l -0.82583,-33.95309 -7.24035,0 c -3.98218,0 -8.61126,-0.62464 -10.28682,-1.38807 -6.04181,-2.75283 -6.44615,-5.29196 -6.44615,-40.47994 l 0,-32.74259 21.38211,-22.3822 c 11.76017,-12.31021 22.04287,-23.64275 22.85044,-25.18341 2.3527,-4.48838 -0.45675,-8.07292 -22.2973,-28.44879 l -20.0978,-18.75 0.43017,-6.51493 c 1.03532,-15.67991 15.07743,-34.094034 32.07734,-42.06465 9.74116,-4.567265 15.27424,-4.858464 19.12031,-1.006282 l 2.78473,2.789137 0,155.898365 c 0,146.46391 0.13237,156.0854 2.1875,158.989 2.02226,2.85717 2.1845,8.42796 2.14775,73.75 -0.0422,75.17291 0.17444,72.49926 -6.21025,76.60847 -3.7221,2.39555 -16.24295,3.65383 -22.80841,2.29213 z M 103.79252,539.13821 C 101.40966,537.89345 98.315909,534.90625 96.917523,532.5 94.447839,528.25034 94.375,526.22705 94.375,461.875 l 0,-66.25 3.4375,-6.99959 3.4375,-6.99959 -0.009,-43.62541 c -0.005,-23.99397 -0.36592,-47.40556 -0.80229,-52.02575 l -0.793401,-8.40034 -6.614586,-1.92291 C 84.653199,273.21596 79.136156,268.59861 77.581211,262.72125 74.121091,249.64271 67.5,169.46043 67.5,140.63645 c 0,-18.59138 2.29732,-38.08645 5.10675,-43.335914 2.659981,-4.970221 11.24444,-5.847267 12.979389,-1.326061 0.449401,1.171119 1.923812,14.083815 3.27647,28.694885 2.224236,24.02563 2.276667,26.9189 0.548385,30.26104 -4.047861,7.8277 -4.16251,7.66466 34.306156,48.78449 19.91944,21.29222 36.55373,40.05413 36.96509,41.69312 0.41136,1.639 0.18098,7.07111 -0.51194,12.07136 -1.79081,12.92274 -6.79702,17.21063 -24.03236,20.58407 l -3.23706,0.63357 -0.87028,52.01164 -0.87027,52.01164 3.79483,5.72916 c 3.76693,5.68703 3.79484,5.8562 3.79484,23.00056 l 0,17.2714 -18.4375,19.469 c -24.711874,26.0944 -23.474556,24.40958 -21.171859,28.82936 1.033069,1.98288 10.367799,11.6662 20.743839,21.5185 l 18.86552,17.91328 0,5.64781 c 0,6.92375 -2.86494,13.28185 -7.29519,16.19008 -5.03184,3.30311 -21.96907,3.82281 -27.66229,0.84877 z m 195.1746,-21.68752 C 285.86957,515.80275 270.8894,512.04637 257.85982,507.14276 246.21276,502.75945 230,494.3469 230,492.68673 c 0,-0.5175 6.7553,-8.03936 15.01179,-16.71522 l 15.01177,-15.77431 11.24104,4.87551 c 19.32275,8.38074 29.17137,10.42239 50.6104,10.49168 18.96903,0.0614 28.22946,-1.31605 41.875,-6.22839 l 5.625,-2.02497 14.04578,14.78198 c 7.72517,8.1301 14.0533,15.19439 14.0625,15.69843 0.0552,3.02536 -28.20478,13.53459 -46.32543,17.22734 -14.43881,2.94245 -39.027,4.08817 -52.19073,2.43191 z m 3.74164,-51.89493 c -11.06421,-2.02033 -19.96027,-4.84735 -28.33376,-9.00398 -3.4375,-1.70639 -6.47215,-3.30389 -6.74368,-3.54999 -0.75251,-0.68208 43.85116,-46.89136 44.86816,-46.48328 1.99831,0.80185 48.7101,51.72313 48.72949,53.12081 0.0421,3.03812 -24.44728,7.81842 -39.35397,7.68183 -5.5,-0.0504 -14.12481,-0.84481 -19.16624,-1.76539 z M 464.33275,407.1875 c -4.10852,-4.29688 -10.47977,-10.98406 -14.15834,-14.86041 l -6.6883,-7.0479 2.00695,-8.82385 c 2.95087,-12.97395 2.68742,-37.90277 -0.54377,-51.45534 -3.20825,-13.45635 -6.44056,-22.16695 -12.1716,-32.80069 l -4.54101,-8.42567 4.2977,-4.69933 C 444.13865,266.38561 455.71631,255 457.01476,255 c 3.1216,0 14.02013,20.72032 19.98365,37.99299 10.6956,30.97857 12.26763,67.24125 4.26824,98.45734 C 479.16452,399.65345 473.5226,415 472.60895,415 c -0.44339,0 -4.16769,-3.51563 -8.2762,-7.8125 z m -307.43426,-8.74836 c -5.19524,-17.49425 -6.27443,-26.24833 -6.20266,-50.31414 0.0592,-19.8563 0.51535,-25.62122 2.7823,-35.16373 5.05386,-21.27367 17.44401,-50.62779 21.71696,-51.45069 1.12175,-0.21603 8.80942,6.92592 18.5421,17.22586 l 16.62586,17.59491 -3.23581,8.39682 c -6.73039,17.46517 -10.03603,36.01329 -9.36353,52.53933 0.28978,7.12105 -0.0864,8.98774 -2.40517,11.9356 C 190.05911,375.94024 161.50255,405 160.18151,405 c -0.73406,0 -2.21142,-2.95239 -3.28302,-6.56086 z m 255.06404,-47.12869 c -12.88266,-13.77972 -23.23502,-25.53606 -23.00527,-26.12522 0.22976,-0.58915 7.80473,-8.82092 16.83325,-18.29282 10.90822,-11.44388 16.9384,-16.89847 17.97405,-16.25841 2.47255,1.52812 9.55834,17.8848 12.46692,28.77835 4.48384,16.79346 4.64728,51.45889 0.26327,55.8429 -0.64564,0.64564 -10.89861,-9.36183 -24.53222,-23.9448 z m -206.10157,1.9787 c -2.1698,-5.65441 4.31971,-42.13946 8.516,-47.87821 1.57872,-2.15903 1.7618,-2.14943 4.40085,0.23066 1.51448,1.36586 6.1271,6.28466 10.25026,10.93065 7.20397,8.11742 7.42015,8.55669 5.53683,11.25 C 231.0769,332.81039 209.29296,355 207.88401,355 c -0.7516,0 -1.66197,-0.76988 -2.02305,-1.71085 z M 308.94801,240.82929 c -4.40272,-4.54245 -4.89854,-6.44707 -1.97077,-7.57055 2.92585,-1.12277 15.52276,-0.92117 15.52276,0.24841 0,1.46635 -6.01536,9.38716 -7.95207,10.471 -1.04212,0.5832 -3.10929,-0.57917 -5.59992,-3.14886 z m -11.52786,-13.24625 c -3.77555,-2.31162 -32.20177,-33.36435 -32.62109,-35.6352 -0.34263,-1.8556 1.08109,-2.72565 7.41524,-4.53148 23.46049,-6.68844 52.27883,-8.04921 75.98257,-3.58781 7.60203,1.43081 14.59761,3.0809 15.54573,3.66687 2.81741,1.74125 0.47235,4.94439 -16.26499,22.21643 l -15.64737,16.14728 -11.22763,0.85132 c -6.17519,0.46823 -13.47761,1.12541 -16.22761,1.4604 -2.75,0.33499 -5.87969,0.0705 -6.95485,-0.58781 z M 92.55151,147.1875 c 0.206507,-11.27548 4.817012,-49.897921 6.147935,-51.501585 2.440865,-2.941063 8.418245,-2.443954 10.540325,0.876585 1.05187,1.645906 2.36715,9.20153 3.17097,18.21559 1.24645,13.9776 1.16954,15.75105 -0.83109,19.16275 C 109.46698,137.54361 95.399005,150 93.442771,150 c -0.518523,0 -0.919591,-1.26563 -0.891261,-2.8125 z m 27.08267,-23.125 c -0.85465,-1.56077 1.50141,-24.484699 2.82637,-27.5 0.87961,-2.001789 2.29879,-2.8125 4.92336,-2.8125 4.93938,0 7.29854,2.653883 8.30086,9.33788 0.96773,6.45329 -1.59728,11.66179 -8.90119,18.07471 -4.41853,3.87951 -6.21416,4.60785 -7.1494,2.89991 z M 146.25,98.16898 c 0,-1.007061 1.125,-2.433103 2.5,-3.16898 1.91979,-1.027438 2.5,-0.950613 2.5,0.33102 0,1.837296 -2.42595,4.66898 -4,4.66898 -0.55,0 -1,-0.823959 -1,-1.83102 z"
       id="path4026"
       inkscape:connector-curvature="0" />
    <path
       style="fill:#504f4f"
       d="M 0,312.5 0,0 312.5,0 625,0 625,312.5 625,625 312.5,625 0,625 0,312.5 Z m 563.125,296.52611 41.25,-0.90111 0.86476,-17.5 c 0.99596,-20.15524 0.09,-506.721284 -1.01727,-546.37626 L 603.48596,17.872479 585.18047,17.048601 C 561.22449,15.970411 65.240763,15.965393 39.819525,17.043082 L 20.26405,17.872105 19.411485,44.248553 C 18.942574,58.755599 18.461287,191.11204 18.34196,338.37396 c -0.167713,206.97328 0.123862,268.09003 1.284546,269.25151 2.706569,2.70844 432.883944,3.81704 543.498494,1.40064 z M 512.9285,544.92964 C 506.05914,540.52891 505,535.57727 505,507.86271 l 0,-24.58669 6.25,-5.77602 c 8.14834,-7.5304 8.14977,-10.07814 0.0113,-19.58629 l -6.2389,-7.28871 -0.0113,-22.50825 c -0.0113,-23.68404 0.81667,-29.30064 4.9741,-33.726 2.48102,-2.64094 2.53669,-3.91455 2.21735,-50.73734 L 511.875,295.625 502.84351,295 c -7.21503,-0.4993 -9.6034,-1.19744 -11.875,-3.47116 -2.8192,-2.82183 -2.84351,-3.1382 -2.84351,-37.00255 l 0,-34.15639 20.75339,-21.74745 c 11.41436,-11.9611 21.41761,-23.01135 22.22944,-24.55611 2.30094,-4.37837 0.0981,-7.23712 -21.13138,-27.42359 -10.6433,-10.12038 -19.78301,-19.09753 -20.31049,-19.94923 -1.41022,-2.27702 1.17985,-12.36421 5.49789,-21.41183 4.85282,-10.168176 14.81314,-20.151929 25.0479,-25.106845 12.3156,-5.962306 14.0562,-6.099203 18.68579,-1.469616 l 3.96045,3.960456 -0.62295,154.294705 -0.62295,154.2947 2.94396,3.9903 2.94395,3.99031 0,69.47901 c 0,76.22499 0.32851,72.862 -7.5138,76.91743 -5.64126,2.91721 -22.07343,2.49057 -27.0577,-0.7025 z m -410.9099,-7.54001 c -7.16842,-5.63868 -7.023378,-4.07363 -6.963734,-75.14005 0.05716,-68.11063 0.29081,-71.41599 5.451284,-77.11825 1.73034,-1.912 1.97198,-6.65063 1.82841,-35.85475 -0.091,-18.50837 -0.51287,-42.29388 -0.9375,-52.8567 L 100.625,277.21475 92.745505,274.36547 C 78.864078,269.34587 78.927969,269.49084 75.119942,234.375 70.552475,192.25594 68.452772,157.10157 69.109806,133.75 c 0.672129,-23.88804 2.605669,-34.079519 7.166237,-37.772441 3.272006,-2.649511 3.842015,-2.705863 6.644206,-0.656849 3.53714,2.586419 7.594488,52.87003 5.233717,64.8626 l -0.897317,4.55831 36.519381,39.0362 36.51939,39.03622 -0.87165,10.15547 c -0.4794,5.58553 -1.53025,11.53336 -2.33521,13.21743 -1.9102,3.99635 -8.13046,7.53533 -17.59224,10.00901 l -7.62132,1.99251 -0.32623,52.97968 c -0.27847,45.22525 -0.0567,53.27744 1.51483,55.01402 4.37462,4.8339 5.6864,11.03669 5.6864,26.8884 l 0,15.65085 -18.4375,19.469 c -24.134089,25.48429 -23.419281,24.54933 -21.571743,28.21599 0.822689,1.63274 10.174883,11.4061 20.782643,21.7186 17.83289,17.3365 19.27926,19.07981 19.18617,23.125 -0.16503,7.17172 -2.77543,12.83057 -7.33192,15.89421 -3.61581,2.43116 -5.86757,2.85579 -15.14393,2.85579 -9.1574,0 -11.42624,-0.41664 -14.21512,-2.61037 z M 290.38312,515.58496 C 266.08146,511.14031 231.25,497.25997 231.25,492.02042 c 0,-0.89331 6.38126,-8.31436 14.18057,-16.49122 l 14.18058,-14.86703 10.6547,4.62756 c 20.76266,9.01763 27.6206,10.34652 52.85915,10.24279 19.42211,-0.0799 23.78245,-0.47217 31.875,-2.8681 5.15625,-1.52658 10.76609,-3.1214 12.4663,-3.54403 2.70094,-0.67139 4.78006,1.028 16.46496,13.45777 7.35552,7.82441 13.0965,14.67466 12.75774,15.22279 -2.48388,4.019 -30.90026,14.07044 -49.01241,17.33666 -15.44763,2.78573 -43.3183,3.00334 -57.29346,0.44735 z M 313.125,466.0621 c -13.22044,-1.0747 -21.41485,-3.00518 -33.63916,-7.9249 -6.39945,-2.57548 -10.11084,-4.76333 -10.11084,-5.9603 0,-2.09974 41.67808,-46.23484 43.12034,-45.66238 1.98793,0.78905 48.12966,51.20777 48.12966,52.59092 0,4.02107 -29.84409,8.39191 -47.5,6.95666 z m 144.79142,-65.5416 c -6.76028,-7.27621 -12.48278,-14.07554 -12.71668,-15.10959 -0.23389,-1.03405 0.54006,-6.74481 1.7199,-12.69059 5.06317,-25.51589 -1.16255,-61.26815 -14.46925,-83.09187 -1.34258,-2.2019 -2.44315,-4.89557 -2.44571,-5.98594 -0.006,-2.49028 23.35058,-27.39251 25.69216,-27.39251 3.12554,0 11.26345,14.2884 18.86624,33.125 7.60546,18.84324 12.63696,50.47007 11.03683,69.375 -1.91051,22.57221 -10.0254,55 -13.76345,55 -0.89573,0 -7.15975,-5.95328 -13.92004,-13.2295 z m -300.82718,-3.958 c -7.58297,-27.38544 -8.43533,-59.10055 -2.27895,-84.79605 4.59522,-19.17955 15.85391,-45.6315 20.66146,-48.54346 1.90645,-1.15475 4.45394,0.98142 17.7713,14.90201 17.59766,18.39476 16.79931,15.89161 10.65154,33.39701 -4.89448,13.93672 -6.3714,23.25861 -6.39339,40.35299 -0.0141,10.97502 -0.45749,14.4077 -2.19694,17.00889 -4.03567,6.035 -32.42817,34.86611 -34.33569,34.86611 -1.23573,0 -2.57748,-2.48595 -3.87933,-7.1875 z M 411.4139,350.73237 C 398.94875,337.38519 388.75,326.09071 388.75,325.63355 c 0,-1.57439 31.8773,-34.36 33.4195,-34.37176 2.19229,-0.0168 8.24305,12.52658 12.05891,24.99826 4.11329,13.44379 5.78184,30.53516 4.36341,44.69564 C 437.39402,372.91367 436.89062,375 435.20312,375 434.5842,375 423.87904,364.07958 411.4139,350.73237 Z M 206.65104,352.9921 C 203.73625,345.3963 212.41086,305 216.95675,305 c 1.47251,0 18.14938,17.50299 19.05306,19.99689 0.45518,1.25615 -24.41664,28.35395 -26.89915,29.30657 -0.93791,0.35992 -2.04475,-0.2302 -2.45962,-1.31136 z M 308.69715,240.57047 c -3.5606,-3.67361 -3.97575,-4.63026 -2.4327,-5.60585 2.90076,-1.83402 14.98555,-1.52612 14.98555,0.3818 0,1.41602 -6.66383,9.65358 -7.80933,9.65358 -0.24763,0 -2.38222,-1.99329 -4.74352,-4.42953 z m -27.93288,-29.82206 c -9.33992,-9.90552 -15.76208,-17.70114 -15.38723,-18.67796 0.78467,-2.04484 11.24519,-5.05116 27.12296,-7.79506 15.36918,-2.65602 45.78366,-1.8119 60.94668,1.69148 5.67691,1.31164 10.65035,2.71349 11.05207,3.11522 1.2555,1.2555 -0.9366,3.928 -16.37375,19.9621 l -15,15.58005 -12.5,0.86156 c -6.875,0.47386 -15.04928,1.17711 -18.16505,1.56277 l -5.66506,0.70123 -16.03062,-17.00139 z M 94.372107,147.49532 c -0.440352,-0.71251 -0.227486,-6.20606 0.473034,-12.2079 0.700522,-6.00183 1.644816,-16.25617 2.098435,-22.78742 0.464329,-6.68545 1.598123,-13.104103 2.594409,-14.6875 2.127735,-3.381606 7.376025,-3.74433 9.043185,-0.625 0.64303,1.203125 1.8283,9.59863 2.63394,18.65668 1.66756,18.74878 1.58914,19.02039 -7.71803,26.73187 -7.082799,5.86847 -8.174571,6.45705 -9.124973,4.91927 z M 121.64186,111.11897 C 122.45553,97.763314 123.56695,95 128.125,95 c 4.02659,0 5.69152,2.633202 6.46587,10.22617 0.65482,6.42066 0.49823,6.85259 -4.56263,12.58633 -8.19797,9.28796 -9.30613,8.40349 -8.38638,-6.69353 z"
       id="path4024"
       inkscape:connector-curvature="0" />
    <path
       style="fill:#040303"
       d="M 0,312.5 0,0 312.5,0 625,0 625,312.5 625,625 312.5,625 0,625 0,312.5 Z m 563.75,297.77296 41.875,-0.89796 0.94425,-20.625 c 0.51934,-11.34375 0.726,-144.28888 0.45924,-295.43363 C 606.62202,63.021483 606.2666,18.233251 604.83424,16.813101 602.3626,14.362551 353.3222,12.838977 166.25,14.129941 40.400042,14.998419 20.371114,15.385674 18.75536,16.981725 c -1.648966,1.628857 -1.870274,36.580027 -1.875,296.119615 -0.0041,226.7429 0.337864,294.6161 1.490294,295.76887 2.706856,2.70767 432.925086,3.81422 545.379346,1.40275 z m -48.6295,-65.60388 c -1.65248,-0.84924 -4.18372,-3.13048 -5.625,-5.06942 -2.43172,-3.2714 -2.64806,-5.40921 -3.00307,-29.67691 l -0.38258,-26.15156 6.32008,-5.82179 c 7.45483,-6.86707 8.41653,-11.7941 3.24952,-16.64825 -1.6888,-1.58654 -4.54491,-5.01212 -6.3469,-7.61241 l -3.27636,-4.72779 0.40941,-24.26884 0.4094,-24.26884 3.45224,-4.52255 3.45224,-4.52256 -0.32724,-48.50159 -0.32724,-48.50157 -9.84093,-0.69703 c -7.66613,-0.54298 -10.22138,-1.21732 -11.5625,-3.05141 C 490.35854,288.7625 490,281.13117 490,253.98347 l 0,-34.28871 21.45834,-22.41236 c 18.13191,-18.93805 21.45832,-22.99989 21.45832,-26.20248 0,-3.26966 -2.8807,-6.55532 -20.97868,-23.92778 l -20.9787,-20.13769 0.71311,-6.02105 c 1.78669,-15.08581 14.39117,-31.982519 29.46476,-39.498425 8.6579,-4.316951 13.91148,-5.017773 16.70131,-2.227935 2.5054,2.505395 3.81868,113.8197 2.66162,225.6005 l -0.89207,86.18071 3.32099,3.94679 3.321,3.94677 -0.0277,69.5916 c -0.0256,64.04951 -0.19979,69.80391 -2.1875,72.25779 -1.18784,1.46641 -3.38835,3.29454 -4.89003,4.0625 -3.66411,1.87384 -20.26702,1.74625 -24.02417,-0.18463 z m -412.90773,-8.37672 c -5.478775,-4.3096 -6.041955,-7.68356 -5.677696,-34.01454 l 0.339926,-24.57198 20.33099,19.58458 c 22.42331,21.60008 22.59511,21.90797 18.26407,32.7323 -2.79146,6.97655 -6.72619,8.72728 -19.61441,8.72728 -8.56531,0 -11.09867,-0.45636 -13.64288,-2.45764 z M 296.875,515.42884 c -1.375,-0.29215 -7,-1.39155 -12.5,-2.44314 -5.5,-1.05158 -14.13494,-3.29365 -19.18875,-4.98238 C 252.91845,503.90404 232.5,493.88591 232.5,491.9661 c 0,-0.84477 6.06966,-7.92131 13.48815,-15.72562 l 13.48814,-14.18968 10.57436,4.5244 c 18.70265,8.00224 27.30241,9.88845 48.28053,10.58955 19.55063,0.65339 28.14331,-0.42311 45.30018,-5.67524 l 6.75638,-2.06828 12.28725,13.10188 c 6.75798,7.20604 12.29575,13.73535 12.30613,14.50959 0.01,0.77422 -5.4655,3.67944 -12.16862,6.45603 -22.33859,9.25316 -40.97729,12.81893 -65.9375,12.61456 -9.625,-0.0789 -18.625,-0.38231 -20,-0.67445 z M 96.304866,433.68271 c 0.0566,-37.96932 0.648925,-43.24483 5.451284,-48.55139 1.75906,-1.94373 1.9916,-8.37392 1.97471,-54.60475 -0.0105,-28.82086 -0.4324,-53.04648 -0.9375,-53.83471 -0.5051,-0.78822 -3.44961,-2.11281 -6.54336,-2.94352 -7.653148,-2.05499 -12.132962,-4.51577 -14.26686,-7.83685 -2.962419,-4.61055 -8.382166,-56.62628 -10.795385,-103.60813 -1.894286,-36.87899 0.544095,-61.50624 6.454841,-65.192831 3.341771,-2.084299 6.100664,-0.112038 6.172748,4.412741 0.03594,2.25595 1.08707,14.78923 2.335847,27.85173 1.353683,14.15985 1.832043,24.60012 1.184657,25.85532 -0.597217,1.15793 -1.085848,3.83527 -1.085848,5.94964 0,3.31154 4.903296,9.08303 35.38017,41.64468 19.45909,20.7902 35.75535,38.78841 36.2139,39.99602 1.11775,2.94364 -1.37397,22.28298 -3.14609,24.41825 -2.29553,2.76595 -10.33023,6.38557 -16.14577,7.27363 -2.98497,0.45581 -6.13034,1.38335 -6.98971,2.06116 -1.20693,0.95195 -1.5625,13.5368 -1.5625,55.3013 0,48.78614 0.20211,54.2365 2.06862,55.78445 4.13323,3.42775 5.43138,9.37038 5.43138,24.86342 l 0,15.10317 -16.1175,17.12449 c -8.86462,9.41846 -18.14587,19.06295 -20.625,21.43218 l -4.5075,4.3077 0.05487,-36.8077 z M 312.5,464.83286 c -11.74191,-1.04055 -19.6027,-2.81224 -30.12511,-6.78969 -15.15019,-5.72673 -15.76459,-3.57261 8.15324,-28.5854 11.59467,-12.12547 21.429,-21.88577 21.85406,-21.68954 0.42505,0.19622 9.16796,9.35677 19.42868,20.35677 10.26074,11 20.86491,22.33655 23.56484,25.19235 4.5826,4.84714 4.74969,5.27757 2.51328,6.47446 -3.20038,1.7128 -20.57106,4.97524 -29.13899,5.47269 -3.78125,0.21954 -11.09375,0.0253 -16.25,-0.43164 z m 145.58872,-65.52874 -12.21962,-13.19587 2.06545,-11.56354 c 3.67079,-20.55115 2.28385,-43.5117 -3.74521,-62.00105 -1.01665,-3.11776 -4.42628,-11.1222 -7.57694,-17.78763 l -5.72849,-12.11898 6.32934,-7.25602 c 3.48115,-3.99082 8.94751,-9.78728 12.14749,-12.88103 l 5.81812,-5.625 3.02768,3.75 c 3.53141,4.37393 11.72043,20.65456 15.50856,30.83264 12.08419,32.4682 13.80376,69.15397 4.79478,102.29236 -3.08402,11.34414 -5.94423,18.75 -7.24143,18.75 -0.52805,0 -6.45893,-5.93814 -13.17973,-13.19588 z m -299.22366,-1.41077 c -4.14475,-15.50282 -5.17125,-21.15727 -6.14155,-33.83085 -2.4127,-31.51305 3.08659,-60.46833 16.75699,-88.23036 7.30089,-14.82675 6.02344,-14.98798 23.11817,2.91786 11.0495,11.57377 14.7776,16.2732 14.37874,18.125 -0.29617,1.375 -2.25616,7.41224 -4.35554,13.41609 -4.91841,14.06576 -6.49565,24.27752 -6.46741,41.87312 l 0.0229,14.22361 -16.89365,17.74359 c -9.2915,9.75898 -17.39991,17.9206 -18.01869,18.13694 -0.61878,0.21634 -1.69873,-1.75241 -2.39989,-4.375 z M 412.11707,350.08431 C 399.95269,337.05946 390,326.03324 390,325.58157 c 0,-1.02392 29.7972,-32.30946 31.29019,-32.8531 1.58141,-0.57583 7.8644,12.47594 11.92476,24.77153 3.27924,9.93018 3.51364,12.03096 3.58437,32.12426 0.0476,13.5312 -0.4137,21.98891 -1.24475,22.82043 -0.92746,0.92799 -7.90241,-5.72641 -23.4375,-22.36038 z M 207.99955,342.1875 c 1.23216,-14.79255 6.87399,-35.9375 9.58872,-35.9375 0.51534,0 4.70072,4.2053 9.30083,9.34512 l 8.36384,9.34513 -12.8374,13.77988 c -7.06059,7.57892 -13.38587,13.77987 -14.0562,13.77987 -0.76263,0 -0.89729,-3.85961 -0.35979,-10.3125 z M 309.36806,239.99234 c -2.80416,-3.09856 -2.1845,-3.77013 4.2787,-4.63703 5.7419,-0.77015 6.92394,1.35952 2.81731,5.07595 -2.97578,2.69305 -4.33786,2.6088 -7.09601,-0.43892 z m -27.57452,-29.49769 c -8.49978,-8.86581 -15.295,-16.68215 -15.10049,-17.36965 0.57246,-2.02336 21.37739,-6.73741 36.33704,-8.23338 7.6147,-0.76147 18.62616,-1.01822 24.46991,-0.57057 12.28446,0.94102 31.21798,4.11407 33.69931,5.64763 1.26535,0.78202 -2.21958,5.19502 -13.61384,17.23929 l -15.31452,16.1882 -15.19798,0.6866 c -8.35888,0.37763 -16.23912,1.10171 -17.51163,1.60905 -1.85197,0.73839 -5.39754,-2.29421 -17.7678,-15.19717 z M 96.264809,142.91754 c 0.0081,-1.9484 0.844789,-12.51534 1.859207,-23.4821 1.880274,-20.327462 3.089484,-24.080326 7.245054,-22.485681 2.42661,0.931176 3.03762,4.050631 4.36389,22.279321 1.11413,15.31317 0.93086,15.81503 -8.50445,23.28794 l -4.97851,3.94305 0.01481,-3.54253 z M 123.2653,110.9375 c 0.88031,-11.019823 2.0666,-14.6875 4.75062,-14.6875 2.64358,0 4.0765,2.647767 4.9152,9.08236 0.72603,5.57018 0.48409,6.28101 -3.72277,10.9375 -2.47459,2.73908 -5.00946,4.98014 -5.63305,4.98014 -0.65335,0 -0.78471,-4.36998 -0.31,-10.3125 z"
       id="path4022"
       inkscape:connector-curvature="0" />
  </g>
</svg>
