<?xml version="1.0" encoding="UTF-8" standalone="no"?>
<!-- Created with Inkscape (http://www.inkscape.org/) -->

<svg
   xmlns:dc="http://purl.org/dc/elements/1.1/"
   xmlns:cc="http://creativecommons.org/ns#"
   xmlns:rdf="http://www.w3.org/1999/02/22-rdf-syntax-ns#"
   xmlns:svg="http://www.w3.org/2000/svg"
   xmlns="http://www.w3.org/2000/svg"
   xmlns:sodipodi="http://sodipodi.sourceforge.net/DTD/sodipodi-0.dtd"
   xmlns:inkscape="http://www.inkscape.org/namespaces/inkscape"
   id="svg3406"
   version="1.1"
   inkscape:version="0.91 r13725"
   width="625"
   height="625"
   viewBox="0 0 625 625"
   sodipodi:docname="garagara.svg">
  <metadata
     id="metadata3412">
    <rdf:RDF>
      <cc:Work
         rdf:about="">
        <dc:format>image/svg+xml</dc:format>
        <dc:type
           rdf:resource="http://purl.org/dc/dcmitype/StillImage" />
        <dc:title></dc:title>
      </cc:Work>
    </rdf:RDF>
  </metadata>
  <defs
     id="defs3410" />
  <sodipodi:namedview
     pagecolor="#ffffff"
     bordercolor="#666666"
     borderopacity="1"
     objecttolerance="10"
     gridtolerance="10"
     guidetolerance="10"
     inkscape:pageopacity="0"
     inkscape:pageshadow="2"
     inkscape:window-width="640"
     inkscape:window-height="480"
     id="namedview3408"
     showgrid="false"
     inkscape:zoom="0.7936"
     inkscape:cx="144.63727"
     inkscape:cy="519.53604"
     inkscape:window-x="0"
     inkscape:window-y="0"
     inkscape:window-maximized="0"
     inkscape:current-layer="svg3406" />
  <g
     id="g3416">
    <path
       style="fill:#fcfcfc"
       d="M 0,312.5 0,0 312.5,0 625,0 625,312.5 625,625 312.5,625 0,625 0,312.5 Z"
       id="path3432"
       inkscape:connector-curvature="0" />
    <path
       style="fill:#b3f1fc"
       d="M 0,312.5 0,0 312.5,0 625,0 625,312.5 625,625 312.5,625 0,625 0,312.5 Z m 343.3651,226.73661 c 52.59715,-7.50431 103.86932,-37.05124 138.4296,-79.77366 12.25705,-15.15183 19.43766,-26.54188 28.26789,-44.83919 39.33417,-81.50522 27.49243,-178.442 -30.27108,-247.79965 -34.69347,-41.65706 -83.44735,-69.209445 -137.29452,-77.58954 -17.24492,-2.68378 -47.74907,-2.68378 -64.99398,0 -53.84717,8.380095 -102.60105,35.93248 -137.29452,77.58954 -50.46723,60.59689 -66.479406,144.25686 -41.968166,219.2741 20.746416,63.4949 67.855136,114.43228 128.987116,139.47021 21.93043,8.9821 44.1408,13.99738 71.52256,16.15038 8.96801,0.70515 30.78125,-0.50845 44.6151,-2.48219 z M 290,477.36674 C 243.56323,472.12161 206.60775,450.11367 189.47244,417.5 180.45419,400.33555 175,380.94065 175,366.03653 l 0,-7.81887 6.98242,-6.60286 c 7.9741,-7.54062 19.08497,-13.21064 37.39258,-19.08191 18.18996,-5.83354 33.50566,-8.54028 57.5,-10.16195 48.81017,-3.29889 93.16055,1.55252 128.125,14.01536 13.26887,4.7296 37.74799,18.78079 39.97805,22.94767 5.11976,9.56638 -5.44105,49.95714 -17.78851,68.03373 -22.68637,33.21265 -63.70614,51.77019 -113.21749,51.22013 -8.02838,-0.0891 -18.8158,-0.63868 -23.97205,-1.22109 z m 51.34222,-14.37629 c 30.57632,-5.21476 50.57914,-15.43743 68.52203,-35.01894 6.53061,-7.12701 17.63575,-26.1441 17.63575,-30.20049 0,-1.50192 -15.84491,-9.29216 -24.375,-11.98408 -13.98041,-4.41194 -57.81287,-11.72143 -79.01181,-13.17598 -18.78334,-1.2888 -56.69027,0.24738 -73.48819,2.9781 -12.93709,2.1031 -49.89319,10.7119 -55.9375,13.03046 -1.89063,0.72523 -3.4375,2.23402 -3.4375,3.35285 0,3.75742 9.56332,22.3278 15.60171,30.29594 16.56948,21.86473 47.43854,37.29675 82.85949,41.42299 14.96271,1.74303 39.23331,1.41358 51.63102,-0.70085 z m 91.60547,-82.67795 c 1.25736,-7.60703 0.91609,-14.91394 -0.76019,-16.276 -0.85938,-0.69829 -6.90625,-4.33705 -13.4375,-8.08614 -17.8082,-10.22231 -29.18109,-13.43107 -70,-19.74987 -25.3766,-3.92833 -81.83123,-2.54224 -105.5232,2.59082 -23.85024,5.16735 -50.87798,15.97023 -55.92586,22.35334 -2.13938,2.70528 -2.42748,4.32389 -1.77244,9.95805 0.43019,3.70022 1.1904,7.43944 1.68934,8.30935 0.69717,1.21555 4.81327,0.44609 17.78216,-3.32419 22.44022,-6.52375 49.51101,-11.88776 69.09107,-13.69022 23.57429,-2.17015 59.50047,-0.85194 83.40893,3.06045 22.03825,3.60635 54.50387,11.63281 65.625,16.22445 4.125,1.7031 7.84827,3.14626 8.27395,3.20701 0.42566,0.0608 1.1226,-1.99893 1.54874,-4.57705 z M 117.75,279.75 c -7.32013,-7.32012 13.68166,-40.3955 34.75,-54.7272 15.61357,-10.62111 27.03095,-14.66652 45.625,-16.1659 27.9196,-2.25135 48.17929,4.4014 66.9919,21.9984 6.79244,6.35354 8.20113,11.69998 3.71527,14.10073 -3.81443,2.04142 -4.80818,1.64646 -11.06513,-4.3977 -6.7507,-6.52115 -16.57589,-12.81632 -26.51704,-16.98994 -6.06374,-2.54576 -8.86629,-2.87995 -23.75,-2.83206 -14.8469,0.0477 -18.07684,0.4541 -26.875,3.38097 -11.79544,3.92398 -22.80874,10.83818 -32.16197,20.19141 -7.58695,7.58695 -17.85383,22.24072 -19.93963,28.45953 -2.5399,7.57272 -7.17721,10.57796 -10.7734,6.98176 z m 369.67515,-5.46519 c -0.89703,-1.08085 -2.82016,-4.89117 -4.27365,-8.46738 -10.67897,-26.27505 -38.68158,-46.16809 -67.5265,-47.97081 -23.84813,-1.49043 -41.81354,6.43289 -56.71195,25.01182 -3.70106,4.61536 -7.67056,8.39156 -8.82113,8.39156 -2.6697,0 -5.09192,-2.40794 -5.09192,-5.0619 0,-6.87754 18.67142,-24.73855 33.34431,-31.89703 9.43768,-4.60436 24.15435,-8.07078 33.95315,-7.99746 22.54493,0.16872 48.00017,11.52812 64.7721,28.90455 7.95009,8.23662 15.85779,20.42999 18.59623,28.67463 1.90244,5.72773 1.906,6.45646 0.0454,9.29607 -2.3029,3.51467 -5.89392,3.9983 -8.28606,1.11595 z"
       id="path3430"
       inkscape:connector-curvature="0" />
    <path
       style="fill:#7ddbfc"
       d="M 0,312.5 0,0 312.5,0 625,0 625,312.5 625,625 312.5,625 0,625 0,312.5 Z m 602.93446,293.78135 c 1.40451,-1.35919 1.73999,-231.68766 0.37191,-255.34385 L 602.2401,332.5 l -30.41846,0 -30.41845,0 -0.71461,5.9375 c -3.14892,26.16354 -13.54314,60.89306 -25.10573,83.88405 C 492.08806,469.03846 460.57559,500.95634 415,524.19835 367.57525,548.38337 316.79836,555.30054 262.95822,544.91046 225.29105,537.64145 183.14463,516.1219 154.017,489.28616 113.85133,452.28089 87.183634,398.38965 79.3706,338.4375 l -0.773783,-5.9375 -29.109787,0 -29.109786,0 -0.708369,30.3125 C 19.279273,379.48437 19.335018,441.21875 19.79275,500 l 0.83225,106.875 91.25,0.72889 c 121.2948,0.96887 489.71697,-0.0234 491.05946,-1.32254 z m -271.5044,-65.10218 c 39.90016,-4.07118 76.9481,-18.27885 109.28993,-41.91202 20.77627,-15.18188 39.09277,-34.33731 53.68332,-56.14215 52.04434,-77.77761 52.04434,-179.72239 0,-257.5 C 462.45933,137.88634 413.63172,104.26834 358.31281,91.926149 257.11669,69.348304 154.74955,119.55792 109.35973,214.03407 c -30.418006,63.31325 -30.418006,137.3686 0,200.68185 22.55205,46.94073 58.39412,82.9835 104.73892,105.32542 37.58126,18.1172 77.12171,25.2406 117.33141,21.13783 z m -37.4505,-63.71968 c -36.9995,-3.57535 -68.28556,-17.53902 -89.26611,-39.84147 -14.37474,-15.28045 -25.20767,-38.58595 -28.54509,-61.41065 -2.03781,-13.93667 -1.14639,-17.18331 6.77499,-24.67502 8.15921,-7.71665 14.96057,-11.23283 34.08051,-17.61899 22.96739,-7.67124 38.15806,-10.13316 70.44637,-11.41711 61.82065,-2.4583 106.51704,5.65489 140.90613,25.57695 18.05598,10.46007 18.18622,10.66555 16.67168,26.3018 -3.50485,36.18424 -23.22443,67.54819 -53.94455,85.79867 -23.43511,13.92254 -61.61294,20.71732 -97.12393,17.28582 z m 52.36618,-14.979 c 26.59547,-5.41982 41.47732,-12.84743 58.24881,-29.07233 9.41614,-9.10924 12.57129,-13.17142 17.21716,-22.1667 3.12857,-6.05747 5.68829,-11.94427 5.68829,-13.0818 0,-3.62707 -21.10849,-12.5526 -38.125,-16.1208 -40.36816,-8.46481 -54.19339,-10.05817 -86.875,-10.01239 -34.30831,0.0481 -46.92602,1.4293 -78.75,8.62049 -19.6944,4.4503 -31.06671,7.67534 -32.88021,9.3244 -0.55287,0.50274 0.51146,4.70265 2.36518,9.33315 7.49914,18.73251 22.76095,36.48463 40.3502,46.9342 13.63178,8.09849 36.31414,15.37633 55.78983,17.90065 2.0625,0.26734 12.94289,0.57034 24.17865,0.67335 16.12089,0.1478 23.0357,-0.344 32.79209,-2.33222 z m 86.6164,-80.29299 c 0.41455,-1.54688 0.7604,-6.1875 0.76856,-10.3125 0.0147,-7.48106 10e-4,-7.50828 -5.29544,-10.7756 -18.85831,-11.63264 -32.38419,-17.15069 -50.24225,-20.49699 -26.84421,-5.03016 -35.04012,-5.85332 -64.47445,-6.47552 -45.10222,-0.95341 -65.21602,1.29785 -93.09356,10.41961 -16.06665,5.25714 -28.77433,11.38525 -32.99001,15.90901 -2.68377,2.87989 -2.91862,3.99589 -2.29293,10.89608 0.3834,4.22816 1.24691,8.23738 1.91891,8.90938 0.79575,0.79575 4.86447,0.1115 11.66793,-1.9623 39.93011,-12.17122 67.23299,-16.34442 106.6961,-16.3083 25.3114,0.0231 31.21621,0.43265 49.36995,3.4237 23.70426,3.90555 55.94035,11.74577 66.88005,16.26603 9.4527,3.90585 10.16762,3.93856 11.08714,0.5074 z M 118.21429,279.28571 c -3.95333,-3.95332 -1.23302,-12.6189 8.31295,-26.48104 8.77188,-12.73804 18.49572,-22.52015 29.12303,-29.29752 17.02767,-10.85909 31.05839,-14.75715 53.11692,-14.75715 17.87667,0 29.17071,3.43402 44.58716,13.557 15.45626,10.14912 20.6832,16.90545 16.39565,21.193 -2.67034,2.67034 -6.6629,1.60024 -11.06729,-2.96628 -5.98751,-6.20791 -20.24924,-14.82003 -29.93271,-18.07523 -7.20684,-2.42267 -9.96131,-2.66092 -24.375,-2.10832 -17.5869,0.67425 -24.31472,2.38988 -38.02199,9.69578 -14.5291,7.74392 -29.99191,24.84279 -37.56017,41.53424 -3.0689,6.76831 -5.52361,9.66981 -8.18079,9.66981 -0.23841,0 -1.31741,-0.88393 -2.39776,-1.96429 z M 487.5,273.75 c -1.375,-1.375 -2.5,-3.40564 -2.5,-4.51252 0,-3.34407 -7.3925,-16.13476 -13.41451,-23.21009 -6.99951,-8.22384 -15.87257,-15.00627 -26.89353,-20.557 -31.0197,-15.62317 -68.98949,-7.94777 -86.50706,17.48698 -4.95205,7.19015 -6.94885,8.68849 -10.01231,7.51292 -5.25364,-2.016 -1.92703,-10.43912 7.63255,-19.32597 18.70364,-17.38741 34.05171,-23.96012 56.06986,-24.01153 19.7287,-0.0461 37.52356,6.29796 55.37649,19.74221 19.05217,14.34735 35.16221,43.48833 26.58069,48.08102 -3.22543,1.72619 -3.44103,1.68513 -6.33218,-1.20602 z"
       id="path3428"
       inkscape:connector-curvature="0" />
    <path
       style="fill:#9ea1a2"
       d="M 0,312.5 0,0 312.5,0 625,0 625,312.5 625,625 312.5,625 0,625 0,312.5 Z M 603.125,606.10855 C 605.09357,604.16489 604.61114,20.361134 602.63932,18.38933 600.33124,16.081241 23.30897,16.191029 20.999999,18.499995 19.67593,19.824061 19.375,74.269349 19.375,312.49996 c 0,193.2632 0.423736,292.792 1.25,293.60518 3.439266,3.38476 579.07191,3.38815 582.5,0.004 z M 288.75,548.14466 c -31.69059,-3.16757 -54.85463,-9.86939 -82.65549,-23.91384 -22.00056,-11.11426 -36.13379,-20.943 -52.53849,-36.53712 C 118.03361,453.92648 95.46228,414.12976 85.031805,366.875 79.258175,340.71785 78.686901,296.69432 83.759625,268.83819 98.713246,186.72254 156.84316,118.65337 234.7869,91.987733 274.43765,78.422661 316.54782,75.850527 358.75,84.415932 415.61861,95.958056 467.67114,131.64739 501.80464,182.5 c 15.56131,23.18349 28.92412,56.69994 34.68531,86.99732 2.47296,13.005 2.821,18.7325 2.76502,45.50268 -0.0554,26.49018 -0.44365,32.56584 -2.87566,45 -16.35212,83.60359 -73.21424,150.09381 -151.16621,176.76226 -19.29121,6.5998 -36.78911,10.12166 -59.34369,11.94432 -18.26237,1.47579 -16.45966,1.50308 -37.11941,-0.56192 z m 42.68006,-6.96549 c 39.90016,-4.07118 76.9481,-18.27884 109.28993,-41.91202 20.77627,-15.18188 39.09277,-34.33731 53.68332,-56.14215 52.04434,-77.77761 52.04434,-179.72239 0,-257.5 C 462.45933,137.88634 413.63172,104.26834 358.31281,91.926149 257.11669,69.348304 154.74955,119.55792 109.35973,214.03407 c -30.418006,63.31325 -30.418006,137.3686 0,200.68185 22.55205,46.94073 58.39412,82.98351 104.73892,105.32542 37.58126,18.1172 77.12171,25.2406 117.33141,21.13783 z m -37.4505,-63.71968 c -36.9995,-3.57535 -68.28556,-17.53901 -89.26611,-39.84147 -14.37474,-15.28044 -25.20767,-38.58594 -28.54509,-61.41064 -2.03781,-13.93668 -1.14639,-17.18332 6.77499,-24.67503 8.15921,-7.71665 14.96057,-11.23282 34.08051,-17.61899 22.96739,-7.67124 38.15806,-10.13316 70.44637,-11.41711 61.82065,-2.4583 106.51704,5.65489 140.90613,25.57695 18.05598,10.46008 18.18622,10.66555 16.67168,26.3018 -3.50485,36.18424 -23.22443,67.54819 -53.94455,85.79868 -23.43511,13.92253 -61.61294,20.71731 -97.12393,17.28581 z m 52.36618,-14.979 c 26.59547,-5.41981 41.47732,-12.84743 58.24881,-29.07233 9.41614,-9.10924 12.57129,-13.17142 17.21716,-22.1667 3.12857,-6.05747 5.68829,-11.94427 5.68829,-13.0818 0,-3.62707 -21.10849,-12.5526 -38.125,-16.1208 -40.36816,-8.46481 -54.19339,-10.05817 -86.875,-10.01238 -34.30831,0.0481 -46.92602,1.4293 -78.75,8.62048 -19.6944,4.4503 -31.06671,7.67534 -32.88021,9.3244 -0.55287,0.50274 0.51146,4.70265 2.36518,9.33315 7.49914,18.73252 22.76095,36.48463 40.3502,46.9342 13.63178,8.09849 36.31414,15.37633 55.78983,17.90065 2.0625,0.26734 12.94289,0.57034 24.17865,0.67335 16.12089,0.1478 23.0357,-0.344 32.79209,-2.33222 z m 86.6164,-80.29299 c 0.41455,-1.54688 0.7604,-6.1875 0.76856,-10.3125 0.0147,-7.48106 10e-4,-7.50828 -5.29544,-10.7756 -18.85831,-11.63264 -32.38419,-17.15069 -50.24225,-20.49699 -26.84421,-5.03016 -35.04012,-5.85332 -64.47445,-6.47552 -45.10222,-0.95341 -65.21602,1.29785 -93.09356,10.41961 -16.06665,5.25714 -28.77433,11.38525 -32.99001,15.90901 -2.68377,2.87989 -2.91862,3.99589 -2.29293,10.89608 0.3834,4.22816 1.24691,8.23738 1.91891,8.90938 0.79575,0.79575 4.86447,0.1115 11.66793,-1.9623 39.93011,-12.17122 67.23299,-16.34442 106.6961,-16.3083 25.3114,0.0231 31.21621,0.43265 49.36995,3.4237 23.70426,3.90555 55.94035,11.74577 66.88005,16.26603 9.4527,3.90585 10.16762,3.93856 11.08714,0.5074 z M 118.21429,279.28571 c -3.95333,-3.95332 -1.23302,-12.6189 8.31295,-26.48104 8.77188,-12.73804 18.49572,-22.52015 29.12303,-29.29752 17.02767,-10.85909 31.05839,-14.75715 53.11692,-14.75715 17.87667,0 29.17071,3.43402 44.58716,13.557 15.45626,10.14912 20.6832,16.90545 16.39565,21.193 -2.67034,2.67034 -6.6629,1.60024 -11.06729,-2.96628 -5.98751,-6.20791 -20.24924,-14.82003 -29.93271,-18.07523 -7.20684,-2.42267 -9.96131,-2.66092 -24.375,-2.10832 -17.5869,0.67425 -24.31472,2.38988 -38.02199,9.69578 -14.5291,7.74392 -29.99191,24.84279 -37.56017,41.53424 -3.0689,6.76831 -5.52361,9.66981 -8.18079,9.66981 -0.23841,0 -1.31741,-0.88393 -2.39776,-1.96429 z M 487.5,273.75 c -1.375,-1.375 -2.5,-3.40564 -2.5,-4.51252 0,-3.34407 -7.3925,-16.13476 -13.41451,-23.21009 -6.99951,-8.22384 -15.87257,-15.00627 -26.89353,-20.557 -31.0197,-15.62317 -68.98949,-7.94777 -86.50706,17.48698 -4.95205,7.19015 -6.94885,8.68849 -10.01231,7.51292 -5.25364,-2.016 -1.92703,-10.43912 7.63255,-19.32597 18.70364,-17.38741 34.05171,-23.96012 56.06986,-24.01153 19.7287,-0.0461 37.52356,6.29796 55.37649,19.74221 19.05217,14.34735 35.16221,43.48833 26.58069,48.08102 -3.22543,1.72619 -3.44103,1.68513 -6.33218,-1.20602 z"
       id="path3426"
       inkscape:connector-curvature="0" />
    <path
       style="fill:#6494a2"
       d="M 0,312.5 0,0 312.5,0 625,0 625,312.5 625,625 312.5,625 0,625 0,312.5 Z m 583.34292,295.54499 20.21794,-0.80278 0.84954,-9.06591 c 1.53314,-16.36076 -0.27843,-578.294326 -1.86943,-579.885326 -2.10916,-2.109153 -579.307668,-2.02428 -581.417438,0.08549 -1.159376,1.159377 -1.529611,68.276104 -1.624998,294.581796 -0.06794,161.19418 0.344993,293.54977 0.917637,294.12354 2.0419,2.04587 513.614119,2.92119 562.926749,0.96318 z M 286.30001,547.35687 C 240.27751,543.27291 189.70344,520.72592 154.6565,488.66741 120.6125,457.52632 95.417293,412.63486 85.134032,364.79604 79.17129,337.05672 78.596528,297.09614 83.753849,268.83819 98.748709,186.67851 156.84327,118.65333 234.7869,91.987733 274.43765,78.422661 316.54782,75.850527 358.75,84.415932 415.61861,95.958056 467.67114,131.64739 501.80464,182.5 c 15.56658,23.19135 28.93466,56.72619 34.67995,86.99732 2.44804,12.89832 2.81952,18.86894 2.79231,44.87768 -0.0294,28.08677 -0.25455,31.03634 -3.53056,46.25 -14.31198,66.4642 -47.20958,116.06876 -100.12134,150.96766 -43.26976,28.53935 -93.95162,40.67795 -149.32499,35.76422 z m 45.13005,-4.9277 c 26.75301,-2.72972 50.02975,-9.35702 74.81994,-21.30255 37.06722,-17.86138 66.36731,-43.41614 89.43365,-78.00162 52.01471,-77.99048 52.01471,-179.50953 0,-257.5 C 472.60765,151.02502 443.26261,125.43636 406.25,107.6395 379.71001,94.878218 356.65699,88.574843 327.1875,86.021495 268.94096,80.974792 208.67032,101.19029 162.95004,141.1087 c -14.4919,12.65289 -26.979,27.04135 -38.63369,44.5163 -52.014716,77.99047 -52.014716,179.50952 0,257.5 23.06634,34.58548 52.36643,60.14024 89.43365,78.00162 37.96462,18.29383 77.32949,25.41969 117.68006,21.30255 z M 293.21521,476.08956 C 244.60405,471.41754 207.18914,448.95783 189.36572,413.75 c -8.07868,-15.9584 -14.41908,-42.03556 -12.59047,-51.78288 0.57225,-3.05036 2.69896,-6.01043 7.27287,-10.12277 8.13877,-7.31745 14.36542,-10.4663 32.97574,-16.67599 27.91299,-9.3137 44.48261,-11.49056 88.60114,-11.64012 25.77834,-0.0874 34.4111,0.35956 49.30384,2.5527 18.62258,2.7424 35.46266,6.79725 50.69616,12.20695 10.64237,3.7793 36.4079,18.50369 38.18315,21.82076 2.08647,3.89863 -0.71739,25.23868 -4.96123,37.75951 -7.28736,21.50035 -11.75813,28.98709 -25.59123,42.85489 -17.33844,17.38194 -30.77169,24.92077 -55.4242,31.10447 -21.96905,5.5106 -39.55575,6.6706 -64.61628,4.26204 z m 50.7092,-11.82076 c 27.56423,-5.22559 46.11658,-14.3596 62.75608,-30.89716 8.11351,-8.06382 11.56237,-12.6855 16.18965,-21.6952 3.23392,-6.2967 5.87986,-12.50732 5.87986,-13.80137 0,-2.35956 -5.72772,-5.8166 -19.05404,-11.50025 -9.86537,-4.20756 -50.10817,-11.89626 -79.07096,-15.10712 -21.54086,-2.38805 -57.7809,-0.97594 -82.5,3.21466 -27.80154,4.71317 -59.38838,13.19102 -59.35974,15.93205 0.0324,3.09543 8.45391,20.57085 13.47063,27.95261 16.75171,24.64905 46.2462,41.09188 83.38911,46.48844 13.25065,1.9252 46.83216,1.58728 58.29941,-0.58666 z m 90.46209,-83.3313 c 0.43433,-2.92188 0.60941,-8.125 0.38909,-11.5625 l -0.40059,-6.25 -13.75,-7.8489 c -15.29299,-8.72969 -30.13755,-13.95199 -48.125,-16.93034 -6.53125,-1.08144 -15.53125,-2.6257 -20,-3.43167 -4.46875,-0.80599 -21.9204,-1.73988 -38.78144,-2.07534 -45.58765,-0.90696 -67.0525,1.6239 -95.59356,11.2712 -15.35093,5.18884 -26.03493,10.35227 -30.98123,14.97282 -3.66135,3.42022 -3.73174,3.71094 -3.00301,12.40325 0.41043,4.89554 1.28544,9.44018 1.94446,10.0992 0.76432,0.76432 6.1036,-0.1922 14.74402,-2.64135 45.53676,-12.90755 63.33932,-15.5989 103.54576,-15.65376 26.90044,-0.0368 32.13042,0.31098 50.61995,3.3652 23.73361,3.92048 55.95942,11.7624 66.88005,16.27479 10.72465,4.43141 11.57676,4.29571 12.5115,-1.9926 z M 119,278.5 c -5.3796,-5.3796 7.34576,-27.67094 25.44617,-44.57473 11.37117,-10.61942 27.47859,-19.16322 41.57305,-22.05145 14.76857,-3.02636 34.3929,-2.49261 46.2669,1.25838 21.72254,6.86215 46.20685,28.6939 34.10782,30.41265 -2.09324,0.29736 -4.46004,-1.03498 -8.11224,-4.56658 -7.64866,-7.3961 -19.44284,-14.48427 -29.46034,-17.70532 -7.918,-2.54599 -10.5845,-2.78455 -24.78447,-2.21749 -17.91495,0.71544 -28.92572,3.86301 -41.40488,11.83618 -13.68966,8.74657 -27.66562,24.58868 -34.27231,38.84852 C 123.77072,279.645 121.89785,281.39785 119,278.5 Z m 369.21429,-5.46429 c -1.08037,-1.08035 -1.96429,-2.82973 -1.96429,-3.88752 0,-3.23289 -7.25215,-15.75307 -13.84282,-23.89837 -9.61805,-11.8868 -28.33759,-23.43525 -43.95684,-27.11786 -4.30394,-1.01475 -12.34779,-1.85332 -17.87521,-1.86349 -23.30976,-0.0429 -39.75489,8.53056 -56.40014,29.4033 -3.75105,4.70373 -4.06177,4.84491 -6.16848,2.80262 -1.98482,-1.92413 -2.03142,-2.5165 -0.44254,-5.625 2.63298,-5.15114 17.55615,-19.13639 25.66169,-24.04887 8.84823,-5.36258 17.7989,-8.42141 29.53331,-10.09281 33.37796,-4.7542 72.04308,16.36404 87.92423,48.02274 4.49106,8.95284 5.37444,14.21191 2.8168,16.76955 -1.97682,1.97682 -2.92817,1.89325 -5.28571,-0.46429 z"
       id="path3424"
       inkscape:connector-curvature="0" />
    <path
       style="fill:#595f61"
       d="M 0,312.5 0,0 312.5,0 625,0 625,312.5 625,625 312.5,625 0,625 0,312.5 Z m 542.5,296.51925 61.875,-0.89425 0.91861,-29.375 C 606.58469,537.46436 605.57938,18.829374 604.2056,17.455605 600.94916,14.199166 22.637931,14.362123 19.379569,17.620397 17.558844,19.441072 17.647925,605.64769 19.469203,607.4691 22.153349,610.15345 388.82895,611.2402 542.5,609.01925 Z M 290,546.8688 C 256.48833,543.52285 233.03424,536.76093 205,522.36291 160.42095,499.46771 128.4811,466.84126 105.61283,420.83925 91.253132,391.95316 84.595694,367.06729 82.199477,333.31884 77.543635,267.74565 96.165255,208.303 136.35701,160.44091 166.72654,124.27557 213.05454,96.372887 259.48979,86.279839 333.728,70.143606 410.43026,90.316516 464.12567,140.09965 c 43.25157,40.10022 69.16303,94.21601 73.61104,153.7358 1.74433,23.34118 0.0631,54.04743 -3.96464,72.41455 -10.16338,46.34565 -35.31746,90.7179 -69.03907,121.78616 -28.2423,26.02008 -67.2739,46.40525 -104.22279,54.4328 -10.68692,2.32186 -47.51799,6.57076 -53.01021,6.11537 -1.03125,-0.0855 -8.90625,-0.85751 -17.5,-1.71553 z m 56.875,-6.1739 c 90.75599,-15.98834 162.14771,-84.83899 182.33068,-175.84092 7.68723,-34.66055 7.68723,-66.2974 0,-100.95796 C 509.00654,172.82121 438.26077,104.57538 346.875,88.008366 c -17.48798,-3.170336 -56.26203,-3.170336 -73.75,0 C 172.32797,106.28152 97.821208,186.96258 86.348131,290.26324 77.842959,366.84165 110.6853,446.40636 170.625,494.43457 c 32.28729,25.87102 72.68094,42.82338 114.375,48.00079 13.08972,1.62543 48.40815,0.63198 61.875,-1.74046 z M 297.5,476.28916 c -42.0415,-3.59512 -77.09721,-19.781 -96.95813,-44.76739 -12.66931,-15.93885 -23.02021,-43.80392 -23.29646,-62.71502 l -0.15437,-10.56825 6.74458,-6.04086 c 14.36973,-12.87042 47.45214,-23.95033 81.41178,-27.26632 20.35792,-1.98783 77.8364,-0.90215 94.1276,1.77795 15.6561,2.57563 34.84685,7.41705 46.25,11.66793 10.61567,3.95731 35.71749,18.13469 37.62946,21.25292 1.82633,2.97857 0.15875,23.6563 -2.65082,32.86988 -3.48537,11.42972 -10.51809,27.54771 -14.67567,33.6345 -5.33655,7.81284 -16.36475,19.30687 -24.67797,25.72039 -23.8685,18.41413 -63.89998,27.842 -103.75,24.43427 z m 32.90991,-10.04847 c 43.78188,-4.25814 77.96463,-24.57773 93.24838,-55.43055 7.27201,-14.67979 7.19102,-14.98854 -5.49107,-20.93156 -13.26131,-6.21447 -22.95942,-8.69638 -56.8132,-14.53944 -26.39351,-4.55545 -27.67078,-4.65603 -58.85402,-4.63453 -23.98864,0.0165 -35.4316,0.56423 -46.25,2.2136 -15.69756,2.39325 -47.48313,9.48132 -59.375,13.2404 -6.93138,2.19104 -7.47978,2.63348 -7.23326,5.83549 0.14671,1.90559 2.45695,8.0021 5.13389,13.5478 19.02848,39.42067 57.67362,59.37332 119.59937,61.7497 2.0625,0.0791 9.27821,-0.39376 16.03491,-1.05091 z m 104.39555,-91.67666 c 0.31486,-7.54262 -0.0209,-10.68409 -1.25,-11.69714 -4.17325,-3.43956 -24.95612,-14.66289 -32.30546,-17.44584 -8.51701,-3.22512 -21.36825,-6.11667 -44.375,-9.98446 -19.60714,-3.29626 -89.19063,-3.30558 -106.68939,-0.0143 -24.17105,4.54627 -50.20796,13.91561 -61.27971,22.05141 l -5.4691,4.01884 0.59814,9.32025 c 0.32897,5.12615 1.22656,9.94869 1.99463,10.71676 1.02867,1.02866 6.26263,0.021 19.87097,-3.82557 22.53925,-6.37104 36.68913,-9.46174 54.72446,-11.95322 20.13539,-2.78158 51.32867,-3.76222 68.125,-2.14168 31.93392,3.08103 77.36816,12.74433 95.625,20.33825 4.44176,1.84755 8.0097,2.67295 8.75,2.02421 0.6875,-0.60249 1.44371,-5.73588 1.68046,-11.40754 z M 119.66081,278.58502 c -2.97695,-1.66598 -2.68959,-5.52163 1.00266,-13.45332 9.05939,-19.46138 28.55092,-38.58127 48.59724,-47.67073 15.72546,-7.13025 42.88231,-9.69623 58.7841,-5.55433 17.58418,4.58008 43.42943,22.72925 41.41333,29.08142 -1.37537,4.33338 -5.81145,3.42209 -11.39195,-2.34021 -6.35744,-6.56454 -19.64368,-14.48384 -29.38732,-17.5164 -9.5909,-2.98503 -30.6584,-3.20114 -42.42887,-0.43524 -23.33973,5.48453 -46.27471,24.90501 -58.34359,49.40318 -4.75794,9.65798 -5.24854,10.16287 -8.2456,8.48563 z m 370.04174,-4.29913 c -0.4214,-0.42142 -3.45046,-6.1749 -6.73124,-12.78554 -9.59812,-19.33986 -26.44929,-34.14166 -47.35834,-41.59881 -9.50605,-3.3903 -30.35628,-4.65164 -40.43117,-2.44588 -15.71096,3.43973 -28.52465,12.23775 -41.02658,28.16934 -3.64086,4.63966 -4.0752,4.85355 -6.02688,2.9679 -1.97088,-1.9042 -1.96897,-2.2918 0.0304,-6.158 5.09438,-9.85143 25.17113,-25.44085 38.38355,-29.80449 26.14303,-8.6342 50.9368,-4.58759 75.99681,12.40349 17.83465,12.09219 36.345,39.77919 31.61157,47.28325 -1.39252,2.2076 -3.34499,3.07179 -4.44804,1.96874 z"
       id="path3422"
       inkscape:connector-curvature="0" />
    <path
       style="fill:#344e56"
       d="M 0,312.5 0,0 312.5,0 625,0 625,312.5 625,625 312.5,625 0,625 0,312.5 Z m 592.11194,296.80225 12.73694,-0.78253 0.78841,-6.44736 c 0.43361,-3.54605 0.60825,-136.2162 0.38806,-294.82256 C 605.70584,77.105026 605.30631,18.555948 604.04672,17.29653 600.63405,13.884281 23.160525,13.839475 19.748806,17.251194 16.831344,20.168656 16.254449,605.42209 19.166165,608.33382 c 2.032247,2.03227 540.807215,2.94294 572.945775,0.96843 z M 287.57735,546.19426 C 238.24989,541.45843 191.26842,520.36059 155.2294,486.76115 132.76191,465.81454 118.03379,445.65306 104.38238,417.15615 91.087799,389.40411 84.535782,363.79795 82.450362,331.44289 78.325227,267.44186 96.320926,209.44931 134.54732,163.5563 c 39.72618,-47.69356 93.38327,-75.826 154.75131,-81.136181 8.29201,-0.717508 15.81468,-1.551412 16.71707,-1.853118 2.77935,-0.929256 40.96543,3.131948 53.11907,5.649374 46.36593,9.60393 94.19919,38.066055 123.9803,73.771725 40.29139,48.30684 58.90939,107.35565 54.32139,172.2856 -3.52838,49.93411 -21.81537,96.69156 -51.98545,132.92 -11.07392,13.29765 -30.47834,31.46147 -43.50575,40.72429 -24.30199,17.27932 -61.57287,32.7479 -91.03314,37.7816 -16.80058,2.87061 -47.02087,4.06095 -63.33477,2.49467 z m 39.07095,-2.45786 c 98.58445,-8.16815 179.05765,-77.83355 202.7963,-175.56013 6.97007,-28.69418 8.18061,-58.21431 3.62973,-88.51366 C 513.65842,150.39373 391.75005,63.322388 265.86466,88.8119 c -78.6515,15.9255 -143.62371,74.13344 -169.498635,151.85206 -16.276573,48.88876 -16.276573,98.53331 0,147.42208 C 127.11586,480.44709 209.12042,541.31694 307.5,544.8053 c 2.40625,0.0854 11.02299,-0.39569 19.1483,-1.0689 z m -37.26901,-68.87481 c -11.82231,-1.43792 -25.5045,-4.80454 -39.14909,-9.63297 -27.80115,-9.83805 -50.89656,-30.58023 -61.96924,-55.65512 -5.85141,-13.25096 -9.67075,-27.37926 -10.40092,-38.47455 l -0.70918,-10.77605 5.20653,-5.6484 c 6.39644,-6.93931 17.83039,-13.05286 35.32192,-18.88606 19.34118,-6.45003 35.37799,-9.3428 60.60986,-10.93302 48.44085,-3.05291 93.58163,1.99045 126.81778,14.16874 11.10675,4.0697 35.8589,18.10925 37.57264,21.3114 2.41955,4.52098 0.1449,22.62876 -4.65126,37.02726 -6.26793,18.81684 -12.15992,29.20955 -23.02144,40.60687 -18.31916,19.22281 -34.06043,27.71521 -64.38189,34.734 -13.08772,3.02952 -44.87194,4.1494 -61.24571,2.1579 z M 353.75,463.16077 c 25.4692,-6.4775 48.62869,-20.74507 62.09171,-38.25207 C 421.41707,417.65864 430,400.88599 430,397.24076 c 0,-2.28021 -8.72842,-7.29096 -21.56473,-12.37971 -7.41055,-2.9378 -33.95887,-8.35706 -60.93527,-12.4386 -22.98148,-3.47711 -63.49036,-3.77115 -87.5,-0.63511 -27.5964,3.60451 -70.76115,14.23427 -72.1136,17.75871 -1.06242,2.76861 12.58222,29.16528 18.8339,36.4357 19.43002,22.59626 47.51184,35.93005 85.7797,40.72984 2.40625,0.30181 14.21875,0.3774 26.25,0.16797 18.79044,-0.32707 23.72574,-0.85145 35,-3.71878 z m 81.59627,-82.42476 c 0.56388,-3.36334 0.85727,-8.6987 0.65198,-11.85636 l -0.37325,-5.74123 -11.875,-7.15158 c -19.6929,-11.85985 -33.19984,-16.04529 -70,-21.69113 -29.27535,-4.49139 -84.95684,-3.50445 -111.0323,1.96803 -23.48608,4.92902 -48.10621,14.67546 -56.22199,22.25673 -4.31716,4.03284 -4.83255,7.21097 -2.84072,17.51757 1.57143,8.13138 2.22572,8.35438 14.02391,4.77988 17.43976,-5.28373 39.88414,-10.62617 56.85241,-13.5326 13.71756,-2.34961 20.98438,-2.76706 49.21869,-2.82736 30.72865,-0.0656 34.57185,0.1797 53.125,3.39128 23.53115,4.07328 55.64359,12.0096 66.25,16.37312 4.125,1.69704 8.33161,2.98277 9.34804,2.85715 1.18146,-0.146 2.21781,-2.43401 2.87323,-6.3435 z M 119.22712,276.94038 c -2.02941,-5.28857 3.42251,-16.66342 14.77552,-30.82748 11.83577,-14.76636 25.79978,-24.8916 42.45411,-30.78323 7.81357,-2.76413 11.87787,-3.32758 27.50659,-3.81338 21.41862,-0.66578 29.28086,1.07425 44.16166,9.7736 9.76834,5.7106 20.625,15.62866 20.625,18.84188 0,4.52903 -3.83028,3.46228 -11.20921,-3.12182 -8.31216,-7.4168 -20.91419,-14.48994 -31.20517,-17.51451 -8.64726,-2.54148 -25.8787,-2.57953 -37.8164,-0.0835 -24.73424,5.17164 -48.18102,24.32117 -61.01922,49.83585 -4.50692,8.95706 -6.92488,11.20541 -8.27288,7.69257 z M 487.4662,269.0625 c -2.4358,-7.72681 -11.39325,-21.67521 -18.7162,-29.14456 -8.08361,-8.24523 -23.55654,-17.6733 -35,-21.32648 -11.43448,-3.6503 -28.44761,-4.45265 -38.75,-1.82747 -17.35908,4.42331 -28.62305,12.04016 -40.83184,27.61101 -3.19561,4.07562 -4.22472,4.70701 -5.56654,3.41524 -2.65998,-2.56079 1.97128,-9.52728 12.35284,-18.58153 16.03368,-13.98374 30.67963,-19.66189 50.92054,-19.7416 19.52367,-0.0769 33.2573,4.42585 51.08142,16.74766 9.25377,6.39713 15.49685,12.91219 23.18615,24.19629 5.42735,7.96465 9.03257,18.17604 7.45675,21.12046 -1.92963,3.60559 -4.55081,2.55038 -6.13312,-2.46902 z"
       id="path3420"
       inkscape:connector-curvature="0" />
    <path
       style="fill:#060707"
       d="M 0,312.5 0,0 312.5,0 625,0 625,312.5 625,625 312.5,625 0,625 0,312.5 Z m 573.2968,297.7753 32.3282,-0.9003 0.9545,-16.25 c 0.52496,-8.9375 0.80621,-142.08131 0.625,-295.87512 C 606.94708,78.796112 606.5404,17.290181 605.34551,16.095381 601.99,12.740152 21.852095,12.647905 18.497932,16.002067 c -3.322737,3.322738 -3.33544,589.660423 -0.01285,592.983023 2.684243,2.68423 466.060188,3.76182 554.811718,1.29021 z M 305,546.25 c -2.24487,-0.71894 -0.83666,-1.0008 5,-1.0008 5.83666,0 7.24487,0.28186 5,1.0008 -1.71875,0.55044 -3.96875,1.0008 -5,1.0008 -1.03125,0 -3.28125,-0.45036 -5,-1.0008 z m -31.48438,-3.35389 c 0.90234,-0.36108 1.98047,-0.31668 2.39584,0.0986 0.41536,0.41536 -0.32292,0.7108 -1.64062,0.65652 -1.45619,-0.06 -1.75238,-0.35617 -0.75522,-0.7552 z m 70.57067,-0.0125 c 1.21621,-0.31692 2.90371,-0.29608 3.75,0.0464 0.84628,0.34241 -0.14879,0.60171 -2.21129,0.57623 -2.0625,-0.0255 -2.75492,-0.30562 -1.53871,-0.62254 z m 6.85121,-1.21161 c 0.85937,-0.34676 2.26562,-0.34676 3.125,0 0.85937,0.34676 0.15625,0.63049 -1.5625,0.63049 -1.71875,0 -2.42188,-0.28373 -1.5625,-0.63049 z m 15.3125,-3.45637 c 40.26907,-11.42429 74.19824,-31.08874 102.53764,-59.42814 28.96976,-28.96977 49.18275,-64.83372 61.66515,-109.41264 0.38501,-1.375 0.3935,-0.25 0.0189,2.5 -1.27057,9.32654 -9.41567,32.43745 -16.74067,47.5 -21.41659,44.03941 -56.944,80.38889 -100.02042,102.33477 -15.71733,8.00743 -41.94665,17.39724 -52.46055,18.78034 -3.75016,0.49333 -2.08364,-0.26472 5,-2.27433 z m -128.7786,-3.66549 c -19.67176,-6.74975 -47.25204,-20.84187 -61.6094,-31.47925 -29.38888,-21.77427 -53.6967,-51.00804 -69.59297,-83.69589 -7.324986,-15.06255 -15.470088,-38.17346 -16.740673,-47.5 -0.374641,-2.75 -0.366158,-3.875 0.01885,-2.5 23.712823,84.68659 80.274213,143.99772 159.742243,167.50815 5.54705,1.64109 8.6793,2.99599 6.96055,3.01091 -1.71875,0.0149 -10.16913,-2.38985 -18.7786,-5.34392 z m 49.05461,-60.81662 C 241.54852,467.48741 207.10737,445.63774 191.23424,413.27985 183.03216,396.55968 178.75,381.2964 178.75,368.78123 l 0,-9.68913 6.30872,-5.90108 c 13.33182,-12.47033 48.32359,-23.87766 82.53178,-26.90534 35.24702,-3.11964 87.40215,-0.48909 110.222,5.55928 16.44251,4.35807 20.66773,5.58743 27.68707,8.05582 7.59503,2.67081 18.82297,8.54622 30.60078,16.01291 l 6.72535,4.26361 -0.64311,12.09885 c -0.73393,13.8072 -4.54117,27.2257 -12.44005,43.84461 -4.00297,8.42208 -7.22524,12.80778 -16.30914,22.19772 -17.01729,17.59057 -30.91528,25.42256 -57.47791,32.3907 -11.43933,3.00087 -15.47338,3.4064 -37.20549,3.74008 -13.40625,0.20585 -27.90704,-0.11625 -32.22399,-0.71573 z m 61.59899,-8.6416 c 29.3302,-6.39407 46.53375,-15.8385 64.70129,-35.51976 6.76865,-7.33261 19.00385,-30.35589 17.79963,-33.494 -1.47113,-3.83374 -24.72404,-13.54575 -40.36472,-16.85909 -39.46208,-8.35967 -52.28488,-9.77923 -88.3862,-9.7849 -36.05649,-0.006 -46.14664,1.00688 -75.44663,7.57095 -25.11333,5.62615 -38.25336,9.81074 -38.74237,12.33797 -0.69465,3.59002 5.7519,18.6114 12.2274,28.49153 22.19391,33.86288 65.40673,51.94008 120.0866,50.2358 10.16847,-0.31692 21.34602,-1.50066 28.125,-2.9785 z m 86.75167,-79.15442 c 0.58564,-1.54688 1.47017,-6.86679 1.96562,-11.82204 0.85547,-8.55616 0.74418,-9.15469 -2.21142,-11.89385 -3.90958,-3.62329 -24.28386,-14.91037 -33.31546,-18.45635 -13.00444,-5.10577 -45.28581,-10.68632 -72.53532,-12.53932 -23.33479,-1.58679 -67.058,0.36631 -83.5814,3.73357 -21.86388,4.45558 -49.31348,14.70078 -57.79262,21.57033 -5.31832,4.30875 -6.31987,7.74195 -4.88955,16.7607 0.7488,4.72145 2.03579,9.2551 2.85997,10.07477 1.16086,1.15451 5.81753,0.23595 20.66641,-4.07661 22.453,-6.52101 44.40721,-11.10226 62.56118,-13.05485 16.47514,-1.772 59.11398,-1.78481 71.39592,-0.0215 34.61531,4.96985 66.89209,12.29961 81.875,18.59308 10.83227,4.55001 11.67971,4.6238 13.00167,1.13202 z M 87.598684,364.27084 c 0.05997,-1.45619 0.356176,-1.75238 0.755208,-0.75522 0.361089,0.90234 0.316681,1.98048 -0.09869,2.39584 -0.415365,0.41536 -0.710801,-0.32292 -0.656525,-1.64062 z m 445.000006,-7.5 c 0.06,-1.45619 0.35617,-1.75238 0.7552,-0.75522 0.36108,0.90234 0.31668,1.98048 -0.0986,2.39584 -0.41536,0.41536 -0.7108,-0.32292 -0.65652,-1.64062 z M 119.3599,276.22556 c -3.47407,-5.62115 16.48294,-34.79096 31.49397,-46.03261 18.26538,-13.6788 32.08589,-18.12926 56.64613,-18.24111 20.61946,-0.0939 28.2554,2.11986 44.8122,12.99165 13.98217,9.18118 19.19969,15.32513 14.53451,17.11533 -1.18821,0.45597 -4.1234,-1.33801 -7.8125,-4.77498 C 251.34915,230.12403 240.1607,223.42588 230,219.90202 c -10.04159,-3.48253 -30.79534,-3.77847 -44.21958,-0.63053 -11.29775,2.64927 -26.04981,10.43518 -35.16535,18.55973 -9.17103,8.17402 -20.61765,23.48582 -24.42582,32.67373 -2.74572,6.62455 -5.0683,8.57006 -6.82935,5.72061 z m 368.23861,-8.35972 c -0.70951,-2.63493 -3.20806,-7.976 -5.55234,-11.86904 -9.09443,-15.10283 -19.85758,-24.87246 -36.76533,-33.37165 -31.69146,-15.93068 -71.35048,-7.69613 -89.1284,18.50605 -4.54688,6.70145 -7.40244,8.1108 -7.40244,3.65344 0,-1.76206 3.58763,-6.17515 10.21906,-12.5703 16.18382,-15.60718 32.27979,-22.23484 53.90497,-22.19586 12.9371,0.0234 24.06603,2.62767 35.32505,8.26665 19.62705,9.83003 32.51608,22.30319 41.34297,40.00904 4.62148,9.27022 5.03675,13.26662 1.45036,13.95729 -1.51867,0.29246 -2.4627,-0.92741 -3.3939,-4.38562 z M 89.475269,256.875 c 2.42051,-16.24032 17.551861,-51.52431 31.091241,-72.5 13.89473,-21.52621 34.13815,-43.01616 55.29549,-58.70046 20.72242,-15.36188 64.31781,-35.049866 82.888,-37.432806 3.81891,-0.490045 2.21349,0.246036 -5,2.292494 -34.61904,9.821372 -61.67626,24.100882 -89.20324,47.077222 -33.17689,27.69222 -59.77895,69.35844 -72.847969,114.1001 -1.632806,5.5899 -2.633391,7.91345 -2.223522,5.16345 z M 530,259.35189 c 0,-4.52817 -9.60253,-31.22855 -16.27326,-45.24879 -31.28306,-65.74914 -89.4878,-111.56816 -160.82689,-126.603596 -6.06366,-1.27798 -9.82115,-2.363179 -8.34995,-2.411552 5.46159,-0.17958 26.54035,4.919003 41.0751,9.935343 55.38266,19.114075 102.04887,60.769905 128.10596,114.351705 8.97546,18.45644 19.94844,51.875 17.03315,51.875 C 530.34385,261.25 530,260.39585 530,259.35189 Z M 267.26562,86.646107 c 0.90234,-0.361088 1.98047,-0.31668 2.39584,0.09869 0.41536,0.415365 -0.32292,0.710801 -1.64062,0.656525 -1.45619,-0.05997 -1.75238,-0.356176 -0.75522,-0.755209 z m 5.57067,-1.262346 c 1.21621,-0.316928 2.90371,-0.296086 3.75,0.04631 0.84628,0.342403 -0.14879,0.60171 -2.21129,0.576235 -2.0625,-0.02548 -2.75492,-0.305623 -1.53871,-0.622553 z m 61.85121,-1.211612 c 0.85937,-0.346765 2.26562,-0.346765 3.125,0 0.85937,0.346766 0.15625,0.630482 -1.5625,0.630482 -1.71875,0 -2.42188,-0.283716 -1.5625,-0.630482 z m -29.375,-1.925514 c 3.11241,-0.826645 6.26259,-0.826645 9.375,0 4.26454,1.132646 3.84158,1.244984 -4.6875,1.244984 -8.52908,0 -8.95204,-0.112338 -4.6875,-1.244984 z"
       id="path3418"
       inkscape:connector-curvature="0" />
  </g>
</svg>
