<?xml version="1.0" encoding="UTF-8" standalone="no"?>
<!-- Created with Inkscape (http://www.inkscape.org/) -->

<svg
   xmlns:dc="http://purl.org/dc/elements/1.1/"
   xmlns:cc="http://creativecommons.org/ns#"
   xmlns:rdf="http://www.w3.org/1999/02/22-rdf-syntax-ns#"
   xmlns:svg="http://www.w3.org/2000/svg"
   xmlns="http://www.w3.org/2000/svg"
   xmlns:sodipodi="http://sodipodi.sourceforge.net/DTD/sodipodi-0.dtd"
   xmlns:inkscape="http://www.inkscape.org/namespaces/inkscape"
   id="svg3830"
   version="1.1"
   inkscape:version="0.91 r13725"
   width="625"
   height="625"
   viewBox="0 0 625 625"
   sodipodi:docname="machi.svg">
  <metadata
     id="metadata3836">
    <rdf:RDF>
      <cc:Work
         rdf:about="">
        <dc:format>image/svg+xml</dc:format>
        <dc:type
           rdf:resource="http://purl.org/dc/dcmitype/StillImage" />
        <dc:title></dc:title>
      </cc:Work>
    </rdf:RDF>
  </metadata>
  <defs
     id="defs3834" />
  <sodipodi:namedview
     pagecolor="#ffffff"
     bordercolor="#666666"
     borderopacity="1"
     objecttolerance="10"
     gridtolerance="10"
     guidetolerance="10"
     inkscape:pageopacity="0"
     inkscape:pageshadow="2"
     inkscape:window-width="640"
     inkscape:window-height="480"
     id="namedview3832"
     showgrid="false"
     inkscape:zoom="0.3776"
     inkscape:cx="-18.538136"
     inkscape:cy="312.5"
     inkscape:window-x="0"
     inkscape:window-y="0"
     inkscape:window-maximized="0"
     inkscape:current-layer="svg3830" />
  <g
     id="g3840">
    <path
       style="fill:#fcfcfc"
       d="M 0,312.5 0,0 312.5,0 625,0 625,312.5 625,625 312.5,625 0,625 0,312.5 Z"
       id="path3856"
       inkscape:connector-curvature="0" />
    <path
       style="fill:#fcb4af"
       d="M 0,312.5 0,0 312.5,0 625,0 625,312.5 625,625 312.5,625 0,625 0,312.5 Z m 346.875,226.21825 c 43.86693,-7.47464 83.14323,-27.206 115.24608,-57.89652 94.79944,-90.62888 94.79944,-242.26458 0,-332.89345 C 429.92854,117.15201 391.59892,97.923293 346.25,89.799546 c -20.09996,-3.60068 -52.40004,-3.60068 -72.5,0 -45.34892,8.123747 -83.67854,27.352464 -115.87108,58.128724 -92.033854,87.98495 -95.153176,234.4987 -6.94075,326.00512 18.81403,19.51657 38.16035,33.66215 62.12209,45.42222 41.58583,20.4097 88.13792,27.14566 133.81474,19.36264 z m -35,-107.01194 c -47.26395,-4.25697 -64.59631,-8.3562 -73.6616,-17.42149 -7.08176,-7.08176 4.87184,-18.64687 26.9098,-26.03523 17.47194,-5.85758 31.42716,-7.50225 63.6268,-7.49863 40.203,0.005 58.74147,3.20219 90.82295,15.66588 7.11972,2.76601 13.04219,5.83022 13.48155,6.97518 1.25002,3.2575 -0.61732,12.52737 -2.94852,14.63707 -6.27494,5.67875 -94.15887,15.84536 -118.23098,13.67722 z m 3.38207,-12.38005 c 0.37055,-0.37055 -0.32956,-2.64165 -1.55582,-5.04687 -2.97864,-5.84243 -4.2883,-15.84683 -2.50958,-19.1704 1.83025,-3.41987 5.55764,-3.32317 7.84478,0.20351 2.27862,3.51356 7.21355,18.69312 7.21355,22.1885 0,2.48319 0.44677,2.56601 9.6875,1.7958 28.97214,-2.41483 44.15324,-3.97088 44.77136,-4.589 0.56452,-0.56451 -1.14863,-12.24463 -2.63576,-17.97036 -0.3724,-1.43384 -23.88596,-5.09125 -25.07666,-3.90054 -0.36834,0.36834 -0.0254,2.83385 0.76225,5.4789 0.78759,2.64506 1.24845,7.34045 1.02413,10.4342 -0.34952,4.82094 -0.83046,5.6848 -3.3645,6.04332 -4.21981,0.59707 -5.20561,-0.89533 -8.28503,-12.54255 l -2.74326,-10.37577 -13.63252,-0.39022 c -16.49122,-0.47206 -38.94187,1.64738 -51.5162,4.86336 -10.74175,2.74727 -27.975,9.90488 -28.62145,11.88756 -1.03717,3.18099 17.58409,7.14952 45.88014,9.77792 23.39758,2.17338 21.9782,2.0915 22.75707,1.31264 z m 94.43043,-8.20632 c 4.98437,-0.83618 9.0625,-1.91576 9.0625,-2.39908 0,-0.87683 -18.79616,-7.87517 -25.3125,-9.42455 -3.92144,-0.9324 -4.26608,0.2421 -2.07741,7.07966 0.74805,2.33697 1.59134,4.99695 1.87397,5.91108 0.33417,1.08079 1.7164,1.43318 3.9524,1.00762 1.8912,-0.35993 7.51667,-1.33856 12.50104,-2.17473 z M 187.74896,313.49849 c -2.26932,-0.76812 -6.3648,-3.41639 -9.10105,-5.88504 -4.01802,-3.62505 -5.24935,-5.83126 -6.40114,-11.4692 -2.89393,-14.1655 3.34755,-29.38168 14.68637,-35.80403 6.9972,-3.96325 20.52708,-3.97535 27.99722,-0.025 7.69034,4.06675 12.8498,11.75674 13.54958,20.19514 1.64052,19.78265 -9.4211,33.08504 -28.26098,33.98583 -4.58917,0.21941 -10.20067,-0.22953 -12.47,-0.99765 z M 197.5,280 c 5.17611,-5.17611 2.26141,-12.5 -4.97464,-12.5 -3.32749,0 -8.77536,5.34143 -8.77536,8.6039 0,6.06769 9.022,8.6241 13.75,3.8961 z m 215.12601,31.20531 c -10.31796,-2.13642 -19.17239,-10.77828 -21.45571,-20.94064 -2.45756,-10.93778 2.75995,-25.7739 11.8802,-33.78157 7.94053,-6.97188 16.86986,-6.86256 31.55098,0.38627 10.10197,4.98788 13.26595,8.89231 15.44693,19.06184 1.16544,5.43425 0.99079,7.6321 -1.18778,14.94733 -4.80082,16.12021 -18.75225,23.94665 -36.23462,20.32677 z m 5.4097,-35.6696 c 2.47154,-2.47154 2.47577,-4.24921 0.0184,-7.75757 -2.14375,-3.06063 -7.81781,-3.76445 -10.30413,-1.27814 -3.77357,3.77357 -0.24247,11 5.375,11 1.62054,0 3.83037,-0.88393 4.91072,-1.96429 z M 274.0125,244.0625 c -0.5915,-1.20313 -0.75191,-5.84375 -0.35648,-10.3125 0.62794,-7.09618 1.05983,-8.17358 3.41078,-8.50863 3.97809,-0.56693 6.6832,4.15332 6.6832,11.66177 0,3.49077 -0.675,7.02186 -1.5,7.84686 -2.21905,2.21905 -7.0049,1.81962 -8.2375,-0.6875 z m 53.9426,0.68358 C 320.36616,241.19065 320.96497,222.5 328.66782,222.5 c 3.97638,0 5.1151,3.04571 6.70903,17.94445 0.35621,3.3295 -4.04806,5.8822 -7.42175,4.30163 z M 212.59156,237.43153 C 200.93116,234.37831 184.1948,228.28321 174.20911,223.4533 165.58287,219.28093 155,210.23535 155,207.03456 c 0,-4.11435 3.97767,-3.62912 14.17069,1.72861 11.84431,6.22572 39.4781,16.52063 50.26383,18.7257 10.69987,2.18753 14.32712,6.07092 9.85119,10.54684 -2.4976,2.4976 -5.22524,2.39889 -16.69415,-0.60419 z m 164.93176,-8.02843 c -4.02252,-4.84684 1.99057,-8.3866 32.47668,-19.11824 29.97354,-10.5512 36.0869,-12.24832 38.5534,-10.7027 2.97241,1.86265 3.22965,6.13479 0.53182,8.83261 -2.6918,2.6918 -57.27021,21.67813 -64.75938,22.528 -3.72489,0.42272 -5.50903,0.0189 -6.80252,-1.53967 z"
       id="path3854"
       inkscape:connector-curvature="0" />
    <path
       style="fill:#fc847d"
       d="M 0,312.5 0,0 312.5,0 625,0 625,312.5 625,625 312.5,625 0,625 0,312.5 Z m 602.6761,294.06718 c 1.87695,-1.89043 2.71444,-175.26009 1.1307,-234.06718 -0.84245,-31.28125 -1.68946,-57.03648 -1.88226,-57.23385 -0.19282,-0.19736 -13.8523,0.0294 -30.35442,0.50396 l -30.00386,0.86279 -0.84866,14.49605 c -2.7226,46.50543 -23.20576,98.56769 -52.72733,134.01767 -55.61186,66.77964 -138.06296,96.14117 -223.87647,79.72429 -40.16093,-7.68314 -80.8407,-28.67825 -110.34363,-56.9491 -24.44358,-23.42281 -38.27,-42.1933 -51.21231,-69.52491 C 89.612559,391.05897 81.285149,360.87825 79.288472,334.0625 L 78.427539,322.5 l -29.059418,0 -29.059417,0 -0.753417,50.3125 C 19.14091,400.48437 19.212076,464.46875 19.713436,515 L 20.625,606.875 95,607.61785 c 99.02021,0.989 506.48825,0.14571 507.6761,-1.05067 z M 349.70911,538.81485 C 447.23856,520.78846 521.31052,439.57281 532.41642,338.48676 539.3707,275.18886 518.13076,209.12055 475.23664,160.625 442.34577,123.43901 396.48337,98.05264 346.25,89.226571 c -18.2308,-3.203172 -54.2692,-3.203172 -72.5,0 -60.95569,10.709992 -113.38309,44.672079 -147.67959,95.665779 -52.964526,78.7502 -52.964526,180.2151 0,258.9653 C 163.6868,499.7875 219.54166,533.1382 290,541.7393 c 10.79959,1.31834 46.1113,-0.41116 59.70911,-2.92445 z M 289.375,429.34762 c -21.85269,-2.60097 -32.74738,-5.06956 -41.59573,-9.42503 -9.26893,-4.56252 -11.86667,-7.80045 -10.49955,-13.08712 1.15988,-4.48515 12.70814,-12.7318 23.60915,-16.85935 30.50748,-11.55132 89.13662,-12.68451 130.36113,-2.51963 10.56336,2.60465 35.33762,11.65817 39.67064,14.49727 2.47847,1.62396 2.7433,2.55033 2.04219,7.14359 -1.56919,10.28035 -2.06349,10.54986 -26.71283,14.56541 -40.66597,6.62478 -89.16011,8.98355 -116.875,5.68486 z m 26.875,-9.81372 c 0,-0.25636 -1.06905,-2.92824 -2.37568,-5.9375 -3.91318,-9.01239 -4.42661,-15.1374 -1.56511,-18.6712 2.38576,-2.94629 2.52071,-2.96659 4.97219,-0.74802 3.02139,2.73431 9.31615,20.96267 8.22285,23.81173 -0.59785,1.55799 0.0329,2.01295 2.79951,2.01935 7.80404,0.018 52.3813,-4.09482 53.27515,-4.91537 0.52464,-0.48164 0.38164,-2.52769 -0.3178,-4.5468 -0.69942,-2.0191 -1.40994,-6.19856 -1.5789,-9.2877 l -0.30721,-5.61662 -8.125,-1.51253 c -4.46875,-0.8319 -10.57822,-1.5388 -13.57661,-1.57089 l -5.45162,-0.0584 1.01594,4.6875 c 1.79471,8.28066 1.35913,15.50035 -1.02676,17.01831 -3.41978,2.17574 -6.23461,-1.75636 -9.07505,-12.67705 l -2.5109,-9.65376 -6.875,-0.88256 c -9.27524,-1.19068 -39.07663,1.06108 -54.01609,4.08141 -12.14495,2.45535 -33.52275,10.66766 -34.36765,13.20237 -0.69,2.06999 13.91954,6.3224 27.13374,7.89786 25.21266,3.00596 43.75,4.42956 43.75,3.35982 z m 96.62749,-8.50637 c 3.32732,-0.69988 5.80031,-1.86914 5.54882,-2.62358 -0.51267,-1.53802 -27.13385,-11.07774 -28.52091,-10.22049 -0.49333,0.3049 0.021,3.98038 1.14294,8.16773 l 2.03991,7.61337 6.89337,-0.83723 c 3.79135,-0.46049 9.5945,-1.40541 12.89587,-2.0998 z M 191.36181,313.69011 c -7.11326,-1.45572 -14.40265,-6.54595 -16.8948,-11.79776 -2.48412,-5.2349 -2.57036,-18.61798 -0.16391,-25.43855 2.63944,-7.48096 6.48124,-12.05304 13.20115,-15.71046 13.33749,-7.25918 31.48817,-2.15229 38.23235,10.75708 2.2783,4.36103 2.31838,21.01675 0.0634,26.35223 -4.99256,11.81281 -20.11701,18.76826 -34.43819,15.83746 z m 5.34461,-32.53084 c 2.34263,-1.8427 3.29358,-3.75555 3.29358,-6.625 0,-5.07086 -1.92791,-7.03427 -6.90711,-7.03427 -8.40879,0 -12.64547,11.09004 -5.59289,14.64011 4.25574,2.14222 5.3897,2.0214 9.20642,-0.98084 z M 407.5,309.25712 c -5.73663,-2.48481 -10.87516,-7.45771 -14.01334,-13.56161 -2.06242,-4.01152 -2.42706,-6.572 -1.95812,-13.75 0.70052,-10.72284 3.68411,-17.01871 11.46317,-24.1892 5.44122,-5.01552 6.0632,-5.25631 13.57813,-5.25631 6.37616,0 9.53496,0.79975 16.59042,4.20042 9.85379,4.74943 12.59541,7.33155 15.02873,14.15433 4.0353,11.31463 0.85264,25.00363 -7.63153,32.82405 -3.06715,2.8272 -7.0152,5.68731 -8.77342,6.35579 -4.82044,1.83272 -19.33044,1.36817 -24.28404,-0.77746 z M 418.5,276 c 3.58135,-3.58135 0.77015,-10.2869 -4.8828,-11.64699 -4.09326,-0.98484 -7.3672,2.00873 -7.3672,6.73628 0,4.45457 2.0978,6.41071 6.875,6.41071 2.13125,0 4.55,-0.675 5.375,-1.5 z M 275.25,244.75 c -0.8388,-0.8388 -1.5,-4.86111 -1.5,-9.125 0,-7.53838 1.36211,-10.625 4.68879,-10.625 2.14581,0 5.31121,7.47484 5.31121,12.54203 0,7.34001 -4.52813,11.17984 -8.5,7.20797 z m 50.30978,-2.32206 c -3.3378,-3.68824 -3.46313,-15.62752 -0.18918,-18.02149 2.99226,-2.18799 7.00805,-0.99738 7.77583,2.30541 0.34048,1.46473 0.7562,6.03814 0.92382,10.16314 0.2927,7.20331 0.17855,7.5147 -2.88547,7.87166 -2.02779,0.23625 -4.07739,-0.60864 -5.625,-2.31872 z M 214.375,237.53749 c -24.18339,-6.42548 -43.8584,-15.0684 -52.98823,-23.2769 -11.44996,-10.29452 -7.26918,-12.90172 7.93525,-4.94857 12.0255,6.29034 37.98722,15.9491 48.91134,18.19694 4.0654,0.83653 8.37601,2.04026 9.57914,2.67498 4.13367,2.18073 1.95181,9.91426 -2.75,9.74723 -1.06563,-0.0379 -5.875,-1.11501 -10.6875,-2.39368 z m 163.19131,-8.08259 c -3.90212,-4.70178 3.91784,-9.03533 36.72128,-20.34964 8.98557,-3.09923 19.88391,-6.66616 24.21852,-7.92651 7.74999,-2.25341 7.92204,-2.2506 10.34115,0.16851 2.80858,2.80858 1.72178,6.34127 -2.67467,8.69416 -4.97106,2.66044 -60.93757,21.20858 -63.994,21.20858 -1.71737,0 -3.79289,-0.80779 -4.61228,-1.7951 z"
       id="path3852"
       inkscape:connector-curvature="0" />
    <path
       style="fill:#a29e9e"
       d="M 0,312.5 0,0 312.5,0 625,0 625,312.5 625,625 312.5,625 0,625 0,312.5 Z m 602.98106,293.76894 c 1.4592,-1.4592 2.03861,-313.76175 0.89056,-480.01894 L 603.125,18.125 458.51249,17.104271 c -79.53689,-0.561401 -210.59939,-0.561401 -291.25,0 L 20.625,18.125 19.564534,179.0462 c -0.583257,88.50666 -0.583257,220.97541 0,294.375 L 20.625,606.875 95,607.61785 c 115.30162,1.15161 506.51939,0.11275 507.98106,-1.34891 z M 290.625,548.58351 C 238.54755,544.11389 189.91505,522.55724 153.77017,487.92181 129.37425,464.54467 115.58789,445.84375 102.51627,418.3969 85.594995,382.8668 78.863686,347.51534 80.448228,302.5 c 1.518577,-43.14139 12.304347,-79.06505 34.486762,-114.86343 21.8709,-35.29566 55.3542,-65.84965 92.67374,-84.5661 53.30594,-26.733935 117.70218,-31.236585 175.51627,-12.272271 17.25369,5.659596 46.51045,20.495581 61.25,31.059621 46.87461,33.59569 79.2516,84.48537 91.5166,143.84445 3.11109,15.05675 3.34196,18.37222 3.34586,48.04773 0.005,35.78429 -1.37942,46.09596 -10.00541,74.54 -23.58895,77.78417 -91.42426,139.88355 -170.4862,156.07044 -13.34877,2.73299 -43.0158,5.86398 -51.80821,5.46773 -2.09695,-0.0945 -9.43764,-0.65459 -16.31264,-1.24466 z m 59.08411,-9.76866 C 447.23856,520.78846 521.31052,439.57281 532.41642,338.48676 539.3707,275.18886 518.13076,209.12055 475.23664,160.625 442.34577,123.43901 396.48337,98.05264 346.25,89.226571 c -18.2308,-3.203172 -54.2692,-3.203172 -72.5,0 -60.95569,10.709992 -113.38309,44.672079 -147.67959,95.665779 -52.964526,78.7502 -52.964526,180.2151 0,258.9653 C 163.6868,499.7875 219.54166,533.1382 290,541.7393 c 10.79959,1.31834 46.1113,-0.41116 59.70911,-2.92445 z M 289.375,429.34762 c -21.85269,-2.60097 -32.74738,-5.06956 -41.59573,-9.42503 -9.26893,-4.56252 -11.86667,-7.80045 -10.49955,-13.08712 1.15988,-4.48515 12.70814,-12.7318 23.60915,-16.85935 30.50748,-11.55132 89.13662,-12.68451 130.36113,-2.51963 10.56336,2.60465 35.33762,11.65817 39.67064,14.49727 2.47847,1.62396 2.7433,2.55033 2.04219,7.14359 -1.56919,10.28035 -2.06349,10.54986 -26.71283,14.56541 -40.66597,6.62478 -89.16011,8.98355 -116.875,5.68486 z m 26.875,-9.81372 c 0,-0.25636 -1.06905,-2.92824 -2.37568,-5.9375 -3.91318,-9.01239 -4.42661,-15.1374 -1.56511,-18.6712 2.38576,-2.94629 2.52071,-2.96659 4.97219,-0.74802 3.02139,2.73431 9.31615,20.96267 8.22285,23.81173 -0.59785,1.55799 0.0329,2.01295 2.79951,2.01935 7.80404,0.018 52.3813,-4.09482 53.27515,-4.91537 0.52464,-0.48164 0.38164,-2.52769 -0.3178,-4.5468 -0.69942,-2.0191 -1.40994,-6.19856 -1.5789,-9.2877 l -0.30721,-5.61662 -8.125,-1.51253 c -4.46875,-0.8319 -10.57822,-1.5388 -13.57661,-1.57089 l -5.45162,-0.0584 1.01594,4.6875 c 1.79471,8.28066 1.35913,15.50035 -1.02676,17.01831 -3.41978,2.17574 -6.23461,-1.75636 -9.07505,-12.67705 l -2.5109,-9.65376 -6.875,-0.88256 c -9.27524,-1.19068 -39.07663,1.06108 -54.01609,4.08141 -12.14495,2.45535 -33.52275,10.66766 -34.36765,13.20237 -0.69,2.06999 13.91954,6.3224 27.13374,7.89786 25.21266,3.00596 43.75,4.42956 43.75,3.35982 z m 96.62749,-8.50637 c 3.32732,-0.69988 5.80031,-1.86914 5.54882,-2.62358 -0.51267,-1.53802 -27.13385,-11.07774 -28.52091,-10.22049 -0.49333,0.3049 0.021,3.98038 1.14294,8.16773 l 2.03991,7.61337 6.89337,-0.83723 c 3.79135,-0.46049 9.5945,-1.40541 12.89587,-2.0998 z M 191.36181,313.69011 c -7.11326,-1.45572 -14.40265,-6.54595 -16.8948,-11.79776 -2.48412,-5.2349 -2.57036,-18.61798 -0.16391,-25.43855 2.63944,-7.48096 6.48124,-12.05304 13.20115,-15.71046 13.33749,-7.25918 31.48817,-2.15229 38.23235,10.75708 2.2783,4.36103 2.31838,21.01675 0.0634,26.35223 -4.99256,11.81281 -20.11701,18.76826 -34.43819,15.83746 z m 5.34461,-32.53084 c 2.34263,-1.8427 3.29358,-3.75555 3.29358,-6.625 0,-5.07086 -1.92791,-7.03427 -6.90711,-7.03427 -8.40879,0 -12.64547,11.09004 -5.59289,14.64011 4.25574,2.14222 5.3897,2.0214 9.20642,-0.98084 z M 407.5,309.25712 c -5.73663,-2.48481 -10.87516,-7.45771 -14.01334,-13.56161 -2.06242,-4.01152 -2.42706,-6.572 -1.95812,-13.75 0.70052,-10.72284 3.68411,-17.01871 11.46317,-24.1892 5.44122,-5.01552 6.0632,-5.25631 13.57813,-5.25631 6.37616,0 9.53496,0.79975 16.59042,4.20042 9.85379,4.74943 12.59541,7.33155 15.02873,14.15433 4.0353,11.31463 0.85264,25.00363 -7.63153,32.82405 -3.06715,2.8272 -7.0152,5.68731 -8.77342,6.35579 -4.82044,1.83272 -19.33044,1.36817 -24.28404,-0.77746 z M 418.5,276 c 3.58135,-3.58135 0.77015,-10.2869 -4.8828,-11.64699 -4.09326,-0.98484 -7.3672,2.00873 -7.3672,6.73628 0,4.45457 2.0978,6.41071 6.875,6.41071 2.13125,0 4.55,-0.675 5.375,-1.5 z M 275.25,244.75 c -0.8388,-0.8388 -1.5,-4.86111 -1.5,-9.125 0,-7.53838 1.36211,-10.625 4.68879,-10.625 2.14581,0 5.31121,7.47484 5.31121,12.54203 0,7.34001 -4.52813,11.17984 -8.5,7.20797 z m 50.30978,-2.32206 c -3.3378,-3.68824 -3.46313,-15.62752 -0.18918,-18.02149 2.99226,-2.18799 7.00805,-0.99738 7.77583,2.30541 0.34048,1.46473 0.7562,6.03814 0.92382,10.16314 0.2927,7.20331 0.17855,7.5147 -2.88547,7.87166 -2.02779,0.23625 -4.07739,-0.60864 -5.625,-2.31872 z M 214.375,237.53749 c -24.18339,-6.42548 -43.8584,-15.0684 -52.98823,-23.2769 -11.44996,-10.29452 -7.26918,-12.90172 7.93525,-4.94857 12.0255,6.29034 37.98722,15.9491 48.91134,18.19694 4.0654,0.83653 8.37601,2.04026 9.57914,2.67498 4.13367,2.18073 1.95181,9.91426 -2.75,9.74723 -1.06563,-0.0379 -5.875,-1.11501 -10.6875,-2.39368 z m 163.19131,-8.08259 c -3.90212,-4.70178 3.91784,-9.03533 36.72128,-20.34964 8.98557,-3.09923 19.88391,-6.66616 24.21852,-7.92651 7.74999,-2.25341 7.92204,-2.2506 10.34115,0.16851 2.80858,2.80858 1.72178,6.34127 -2.67467,8.69416 -4.97106,2.66044 -60.93757,21.20858 -63.994,21.20858 -1.71737,0 -3.79289,-0.80779 -4.61228,-1.7951 z"
       id="path3850"
       inkscape:connector-curvature="0" />
    <path
       style="fill:#b56a66"
       d="M 0,312.5 0,0 312.5,0 625,0 625,312.5 625,625 312.5,625 0,625 0,312.5 Z m 568.31452,295.53867 35.18953,-0.81772 0.87207,-17.67298 C 605.74242,561.85966 603.93689,19.686885 602.47351,18.223515 600.64567,16.395671 22.964515,16.535485 21.135787,18.364212 19.481142,20.018857 18.765986,605.4289 20.416591,607.0819 c 2.051596,2.05458 465.806389,2.86441 547.897929,0.95677 z M 306.875,549.36627 C 306.1875,549.09529 298.59375,548.29696 290,547.5922 220.19006,541.86725 158.398,505.60156 119.45578,447.5 104.37292,424.99648 90.768836,393.0735 85.029971,366.71735 78.836315,338.27254 78.533312,294.02169 84.334012,265.07844 98.401827,194.88546 143.98619,134.97837 207.60873,103.07047 260.91467,76.336535 325.31091,71.833885 383.125,90.798199 c 17.25369,5.659596 46.51045,20.495581 61.25,31.059621 46.87162,33.59355 79.22945,84.45001 91.52216,143.84445 3.13848,15.16412 3.3446,18.19959 3.3052,48.67273 -0.0391,30.21951 -0.27347,33.60481 -3.34045,48.24497 -14.68239,70.08634 -58.53524,128.88281 -119.61191,160.37173 -27.23653,14.04217 -54.13404,21.89422 -83.75,24.44872 -8.59375,0.74126 -17.59375,1.58867 -20,1.88314 -2.40625,0.29449 -4.9375,0.3137 -5.625,0.0427 z m 42.5,-9.25361 c 89.58425,-16.64866 159.83844,-85.11671 179.83068,-175.25869 7.68723,-34.66055 7.68723,-66.2974 0,-100.95795 C 508.97994,172.70126 437.54959,104.01803 346.25,87.976571 c -18.2308,-3.203172 -54.2692,-3.203172 -72.5,0 C 173.1082,105.65946 97.516201,187.24294 86.319265,290.26324 c -8.673764,79.80517 26.581295,161.1421 90.500655,208.79403 32.9885,24.59295 68.8783,38.52396 113.18008,43.93203 10.69749,1.30587 46.09827,-0.40924 59.375,-2.87664 z m -60,-112.04571 c -23.05805,-2.80894 -33.01919,-5.11516 -41.875,-9.69499 -7.46135,-3.85867 -8.15594,-4.5638 -8.50376,-8.6328 -0.33049,-3.86609 0.28905,-5.00254 4.86022,-8.9153 23.07277,-19.74942 96.43764,-25.39952 149.26854,-11.49571 14.18331,3.7327 37.71712,12.78136 38.44616,14.7824 1.09359,3.00169 -0.62377,10.77584 -2.8194,12.76285 -2.69531,2.43922 -28.59976,7.05767 -56.25176,10.029 -27.16255,2.91872 -64.43849,3.44095 -83.125,1.16455 z M 320,420 c 0,-0.6875 -0.59413,-1.25 -1.32029,-1.25 -1.72141,0 -5.70995,-9.25167 -6.73616,-15.625 -1.00201,-6.2231 1.61368,-10.87851 4.68163,-8.33234 2.93416,2.43514 8.88495,21.44721 7.23075,23.10142 -2.40155,2.40155 -1.46204,3.35532 3.33157,3.38217 8.22963,0.0461 53.87156,-4.1357 55.39148,-5.07506 1.11508,-0.68917 1.10624,-1.98494 -0.0371,-5.44956 -0.82506,-2.49998 -1.50013,-7.04379 -1.50013,-10.09735 0,-4.10588 -0.54262,-5.70989 -2.08332,-6.15842 -5.01248,-1.45916 -17.3728,-3.24586 -22.45488,-3.24586 l -5.5373,0 0.74364,4.0625 c 2.35362,12.858 2.41377,17.12257 0.2532,17.95166 -3.23656,1.24199 -4.58684,-0.9429 -7.57893,-12.26339 l -2.74237,-10.37577 -7.3834,-0.86739 c -12.797,-1.50337 -47.81903,1.70625 -62.38339,5.71718 -11.77052,3.24152 -29.375,11.10863 -29.375,13.12713 0,1.60237 12.84655,6.16938 21.59116,7.67578 9.86723,1.69979 39.28627,4.60672 48.72134,4.81422 C 316.87621,421.1813 320,420.70674 320,420 Z m 88.92441,-6.9671 c 10.93244,-2.05781 13.71873,-3.38976 11.57513,-5.53336 -2.17053,-2.17053 -30.71698,-11.53315 -31.79783,-10.429 -0.56772,0.57995 -0.086,4.8495 1.07054,9.48788 2.44836,9.81957 2.06652,9.69049 19.15216,6.47448 z M 191.32229,312.41381 c -6.03008,-1.21136 -13.53448,-6.50755 -15.99137,-11.28582 -1.94547,-3.78365 -2.03426,-17.44984 -0.15413,-23.72514 0.78473,-2.6192 3.08913,-6.77891 5.12091,-9.2438 10.78551,-13.0847 32.50311,-12.60001 42.31462,0.94439 3.28449,4.5341 3.63768,5.97825 3.63768,14.87426 0,5.5852 -0.74543,11.59477 -1.72105,13.87495 -4.66904,10.91226 -19.342,17.34636 -33.20666,14.56116 z m 5.93346,-30.52511 c 4.1021,-3.45169 5.51072,-7.94404 3.59246,-11.45704 -1.80477,-3.30515 -3.4295,-4.14085 -8.09252,-4.16252 -8.05914,-0.0375 -13.59824,10.43155 -8.06819,15.24901 4.82614,4.20426 7.9043,4.29501 12.56825,0.37055 z m 210.7575,26.33212 c -5.35645,-2.33207 -12.62418,-10.1294 -14.36889,-15.41592 -3.69345,-11.19126 1.0122,-26.60433 10.72635,-35.13346 3.99994,-3.51199 5.29256,-3.92144 12.37984,-3.92144 6.56247,0 9.42412,0.75571 16.76129,4.42634 10.36283,5.18431 13.83191,9.77063 14.83563,19.61356 1.34919,13.23072 -4.51586,24.6763 -15.4729,30.19516 -4.93135,2.48383 -19.38306,2.62088 -24.86132,0.23576 z m 11.27246,-31.43511 c 4.0853,-4.0853 1.15188,-12.0274 -5.01391,-13.57492 -5.03186,-1.26292 -9.2718,2.09991 -9.2718,7.35373 0,5.39299 2.77185,8.18548 8.125,8.18548 2.30804,0 5.08036,-0.88393 6.16071,-1.96429 z M 275.83334,244.16666 c -1.39587,-1.39586 -0.9304,-16.45914 0.53661,-17.3658 3.93625,-2.43274 8.31607,12.18398 4.88842,16.31405 -1.64922,1.98719 -4.02836,2.44844 -5.42503,1.05175 z m 50.45735,-2.24264 c -2.24249,-2.70202 -3.03778,-11.15956 -1.34653,-14.31968 0.96825,-1.8092 2.41176,-2.62263 4.20171,-2.36769 2.3281,0.33158 2.86443,1.48475 3.66878,7.88835 0.51812,4.125 0.67695,8.20312 0.35292,9.0625 -0.80428,2.13321 -5.02192,1.97163 -6.87688,-0.26348 z M 214.375,236.31252 c -13.87509,-3.64687 -39.10781,-13.38045 -45.7712,-17.65633 -3.35358,-2.15199 -7.59173,-5.68312 -9.41811,-7.84694 -3.2762,-3.88153 -3.2846,-3.9396 -0.62729,-4.33381 1.48137,-0.21975 6.77112,1.83105 11.755,4.55734 10.41051,5.69477 36.78381,15.46397 47.8116,17.71038 4.125,0.84029 8.20312,2.0982 9.0625,2.79536 2.18975,1.77645 1.94745,5.54629 -0.41474,6.45274 -2.52505,0.96895 -2.11085,1.02504 -12.39776,-1.67873 z m 164.63392,-7.87553 c -3.22893,-3.89063 3.52053,-7.15482 40.77214,-19.71829 13.97333,-4.71264 26.16421,-8.2775 27.09085,-7.92193 2.8,1.07447 3.20461,4.1267 0.8581,6.47322 -2.23705,2.23705 -55.55987,21.08217 -63.12741,22.31021 -2.72079,0.44152 -4.59664,0.0581 -5.59368,-1.14321 z"
       id="path3848"
       inkscape:connector-curvature="0" />
    <path
       style="fill:#615958"
       d="M 0,312.5 0,0 312.5,0 625,0 625,312.5 625,625 312.5,625 0,625 0,312.5 Z m 525,296.51924 79.375,-0.89424 0.88136,-36.25 c 1.44693,-59.51124 0.10363,-553.265019 -1.5096,-554.878235 -2.17028,-2.170282 -581.814744,-1.928782 -583.986835,0.24331 -1.310875,1.310875 -1.616944,56.921213 -1.625,295.249935 -0.0065,194.10689 0.413764,294.05665 1.240075,294.87928 2.665588,2.65367 323.57866,3.70087 505.625,1.64995 z M 288.125,546.82689 C 256.46285,543.63986 232.96045,536.72304 205,522.36291 160.5205,499.51884 126.5036,464.89623 105.04197,420.625 87.181604,383.78249 80.092435,348.35786 81.652967,303.75 83.415588,253.36549 98.672736,209.887 128.53589,170.14713 180.98371,100.35312 270.35425,67.542671 358.73007,85.636349 425.63623,99.334419 484.53714,145.50881 514.97885,208.125 c 8.80959,18.12062 16.44719,41.27842 20.24102,61.37232 2.43672,12.90593 2.80585,18.93643 2.78534,45.50268 -0.0206,26.69575 -0.387,32.46934 -2.8556,45 -7.86527,39.92451 -25.13307,76.96049 -49.5384,106.25 -40.25362,48.3095 -94.61242,75.94341 -159.7418,81.20658 -18.35484,1.48327 -16.43456,1.51529 -37.74441,-0.62969 z m 61.25,-6.71423 c 89.58425,-16.64866 159.83844,-85.11671 179.83068,-175.25869 7.68723,-34.66055 7.68723,-66.2974 0,-100.95795 C 508.97994,172.70126 437.54959,104.01803 346.25,87.976571 c -18.2308,-3.203172 -54.2692,-3.203172 -72.5,0 C 173.1082,105.65946 97.516201,187.24294 86.319265,290.26324 c -8.673764,79.80517 26.581295,161.1421 90.500655,208.79403 32.9885,24.59295 68.8783,38.52396 113.18008,43.93203 10.69749,1.30587 46.09827,-0.40924 59.375,-2.87664 z m -60,-112.04571 c -23.05805,-2.80894 -33.01919,-5.11516 -41.875,-9.69499 -7.46135,-3.85867 -8.15594,-4.5638 -8.50376,-8.6328 -0.33049,-3.86609 0.28905,-5.00254 4.86022,-8.9153 23.07277,-19.74942 96.43764,-25.39952 149.26854,-11.49571 14.18331,3.7327 37.71712,12.78136 38.44616,14.7824 1.09359,3.00169 -0.62377,10.77584 -2.8194,12.76285 -2.69531,2.43922 -28.59976,7.05767 -56.25176,10.029 -27.16255,2.91872 -64.43849,3.44095 -83.125,1.16455 z M 320,420 c 0,-0.6875 -0.59413,-1.25 -1.32029,-1.25 -1.72141,0 -5.70995,-9.25167 -6.73616,-15.625 -1.00201,-6.2231 1.61368,-10.87851 4.68163,-8.33234 2.93416,2.43514 8.88495,21.44721 7.23075,23.10142 -2.40155,2.40155 -1.46204,3.35532 3.33157,3.38217 8.22963,0.0461 53.87156,-4.1357 55.39148,-5.07506 1.11508,-0.68917 1.10624,-1.98494 -0.0371,-5.44956 -0.82506,-2.49998 -1.50013,-7.04379 -1.50013,-10.09735 0,-4.10588 -0.54262,-5.70989 -2.08332,-6.15842 -5.01248,-1.45916 -17.3728,-3.24586 -22.45488,-3.24586 l -5.5373,0 0.74364,4.0625 c 2.35362,12.858 2.41377,17.12257 0.2532,17.95166 -3.23656,1.24199 -4.58684,-0.9429 -7.57893,-12.26339 l -2.74237,-10.37577 -7.3834,-0.86739 c -12.797,-1.50337 -47.81903,1.70625 -62.38339,5.71718 -11.77052,3.24152 -29.375,11.10863 -29.375,13.12713 0,1.60237 12.84655,6.16938 21.59116,7.67578 9.86723,1.69979 39.28627,4.60672 48.72134,4.81422 C 316.87621,421.1813 320,420.70674 320,420 Z m 88.92441,-6.9671 c 10.93244,-2.05781 13.71873,-3.38976 11.57513,-5.53336 -2.17053,-2.17053 -30.71698,-11.53315 -31.79783,-10.429 -0.56772,0.57995 -0.086,4.8495 1.07054,9.48788 2.44836,9.81957 2.06652,9.69049 19.15216,6.47448 z M 191.32229,312.41381 c -6.03008,-1.21136 -13.53448,-6.50755 -15.99137,-11.28582 -1.94547,-3.78365 -2.03426,-17.44984 -0.15413,-23.72514 0.78473,-2.6192 3.08913,-6.77891 5.12091,-9.2438 10.78551,-13.0847 32.50311,-12.60001 42.31462,0.94439 3.28449,4.5341 3.63768,5.97825 3.63768,14.87426 0,5.5852 -0.74543,11.59477 -1.72105,13.87495 -4.66904,10.91226 -19.342,17.34636 -33.20666,14.56116 z m 5.93346,-30.52511 c 4.1021,-3.45169 5.51072,-7.94404 3.59246,-11.45704 -1.80477,-3.30515 -3.4295,-4.14085 -8.09252,-4.16252 -8.05914,-0.0375 -13.59824,10.43155 -8.06819,15.24901 4.82614,4.20426 7.9043,4.29501 12.56825,0.37055 z m 210.7575,26.33212 c -5.35645,-2.33207 -12.62418,-10.1294 -14.36889,-15.41592 -3.69345,-11.19126 1.0122,-26.60433 10.72635,-35.13346 3.99994,-3.51199 5.29256,-3.92144 12.37984,-3.92144 6.56247,0 9.42412,0.75571 16.76129,4.42634 10.36283,5.18431 13.83191,9.77063 14.83563,19.61356 1.34919,13.23072 -4.51586,24.6763 -15.4729,30.19516 -4.93135,2.48383 -19.38306,2.62088 -24.86132,0.23576 z m 11.27246,-31.43511 c 4.0853,-4.0853 1.15188,-12.0274 -5.01391,-13.57492 -5.03186,-1.26292 -9.2718,2.09991 -9.2718,7.35373 0,5.39299 2.77185,8.18548 8.125,8.18548 2.30804,0 5.08036,-0.88393 6.16071,-1.96429 z M 275.83334,244.16666 c -1.39587,-1.39586 -0.9304,-16.45914 0.53661,-17.3658 3.93625,-2.43274 8.31607,12.18398 4.88842,16.31405 -1.64922,1.98719 -4.02836,2.44844 -5.42503,1.05175 z m 50.45735,-2.24264 c -2.24249,-2.70202 -3.03778,-11.15956 -1.34653,-14.31968 0.96825,-1.8092 2.41176,-2.62263 4.20171,-2.36769 2.3281,0.33158 2.86443,1.48475 3.66878,7.88835 0.51812,4.125 0.67695,8.20312 0.35292,9.0625 -0.80428,2.13321 -5.02192,1.97163 -6.87688,-0.26348 z M 214.375,236.31252 c -13.87509,-3.64687 -39.10781,-13.38045 -45.7712,-17.65633 -3.35358,-2.15199 -7.59173,-5.68312 -9.41811,-7.84694 -3.2762,-3.88153 -3.2846,-3.9396 -0.62729,-4.33381 1.48137,-0.21975 6.77112,1.83105 11.755,4.55734 10.41051,5.69477 36.78381,15.46397 47.8116,17.71038 4.125,0.84029 8.20312,2.0982 9.0625,2.79536 2.18975,1.77645 1.94745,5.54629 -0.41474,6.45274 -2.52505,0.96895 -2.11085,1.02504 -12.39776,-1.67873 z m 164.63392,-7.87553 c -3.22893,-3.89063 3.52053,-7.15482 40.77214,-19.71829 13.97333,-4.71264 26.16421,-8.2775 27.09085,-7.92193 2.8,1.07447 3.20461,4.1267 0.8581,6.47322 -2.23705,2.23705 -55.55987,21.08217 -63.12741,22.31021 -2.72079,0.44152 -4.59664,0.0581 -5.59368,-1.14321 z"
       id="path3846"
       inkscape:connector-curvature="0" />
    <path
       style="fill:#523331"
       d="M 0,312.5 0,0 312.5,0 625,0 625,312.5 625,625 312.5,625 0,625 0,312.5 Z m 593.36141,296.80519 11.48643,-0.77709 0.79583,-6.45155 c 0.43772,-3.54835 0.61258,-136.22037 0.38858,-294.82671 C 605.71321,81.341029 605.29234,18.542052 604.08926,17.3391 600.72711,13.977301 23.108821,13.891179 19.748025,17.251975 16.876947,20.123052 16.300747,605.46834 19.166177,608.33381 c 2.028788,2.02881 544.987583,2.94734 574.195233,0.97138 z M 287.57735,546.19426 C 238.24989,541.45843 191.26842,520.36059 155.2294,486.76115 132.74722,465.80084 118.00754,445.61827 104.39566,417.15615 90.895565,388.92777 84.567883,364.21112 82.452296,331.44289 78.167469,265.0753 97.214465,206.60385 139.06687,157.64454 c 23.6331,-27.6462 58.9378,-51.27599 95.51862,-63.93155 18.61203,-6.439054 32.6351,-9.35181 56.54565,-11.745203 16.81232,-1.682876 21.02031,-1.684403 38.45382,-0.01396 34.67788,3.322754 56.4216,9.542621 85.41504,24.433263 44.76323,22.98979 77.21425,56.22392 99.3406,101.73791 14.20682,29.22349 20.95299,54.76213 23.1751,87.73297 3.67545,54.53481 -9.12783,105.8603 -37.20389,149.14203 -14.0307,21.62958 -37.36938,45.98849 -58.36655,60.91799 -24.30198,17.27932 -61.57287,32.7479 -91.03313,37.7816 -16.80059,2.87061 -47.02088,4.06095 -63.33478,2.49468 z m 41.79765,-2.4948 C 438.63596,533.38167 522.67642,448.45814 534.9278,335.98676 540.37161,286.01084 526.05839,229.31551 496.97742,185.6637 463.53189,135.46046 413.02031,101.02651 354.83485,88.764525 277.16962,72.397379 194.7279,100.40934 141.50356,161.25 100.23484,208.4242 78.505952,275.70657 85.072204,335.98676 95.247907,429.40285 155.07669,505.23346 240.625,533.14379 c 31.61354,10.31399 58.03354,13.45631 88.75,10.55567 z M 312.5,429.15815 C 297.57034,428.07859 269.7763,424.6625 262.62879,423.02864 253.21072,420.87574 240,414.18448 240,411.56711 c 0,-1.24006 0.70889,-1.55712 2.1875,-0.97839 18.96134,7.42159 47.01039,11.28015 80.9375,11.13417 21.86456,-0.0941 58.97724,-3.32513 60.95925,-5.30714 0.65531,-0.65531 0.27187,-3.60425 -0.92831,-7.13931 -1.12465,-3.31257 -1.87294,-8.01709 -1.66288,-10.4545 0.37585,-4.36103 0.28233,-4.4565 -5.86806,-5.99033 -3.4375,-0.85726 -10.68603,-1.93234 -16.10784,-2.38906 l -9.85784,-0.8304 0.7845,4.25643 c 0.43148,2.34103 1.15395,7.54808 1.6055,11.57123 0.75579,6.73389 0.63255,7.27864 -1.55167,6.85933 -1.81219,-0.34789 -3.00508,-2.8643 -5.04998,-10.65295 -1.47252,-5.60862 -3.0526,-10.80469 -3.51127,-11.54684 -1.21118,-1.95974 -32.33558,-1.66345 -48.28194,0.45961 -16.7116,2.22495 -26.95281,4.87691 -37.33215,9.66718 C 242.13904,406.772 240,407.57001 240,406.31548 c 0,-3.66924 15.88869,-12.98189 28.75207,-16.85213 11.16524,-3.3593 29.31503,-5.73407 49.99793,-6.54187 38.75862,-1.51378 75.34416,4.7442 105.38782,18.02661 l 7.26282,3.21092 -0.8229,5.108 c -1.1174,6.936 -2.65418,8.18745 -12.6192,10.2763 -23.46008,4.91764 -88.46129,10.84392 -105.45854,9.61484 z m 96.60944,-15.30237 c 13.1952,-2.46227 14.0529,-2.82677 13.01515,-5.5311 -1.16168,-3.02728 -31.695,-13.88527 -34.37993,-12.22588 -1.24967,0.77234 -0.558,5.03695 3.01493,18.5887 0.54106,2.05219 3.65026,1.91126 18.34985,-0.83172 z m -91.49185,2.23246 c -3.86009,-4.1433 -6.54495,-18.80854 -3.75868,-20.53055 2.11348,-1.3062 3.50683,0.83587 6.91109,10.62481 4.07807,11.72653 2.66899,16.15429 -3.15241,9.90574 z M 189.0832,311.18111 c -2.22299,-0.68302 -6.30111,-3.3911 -9.0625,-6.01793 -5.31731,-5.05825 -5.87981,-7.27862 -5.10801,-20.16318 0.91842,-15.33254 11.00447,-25.02934 25.97501,-24.97255 9.77815,0.0371 16.75881,3.35866 21.21713,10.09564 2.96386,4.4787 3.52011,6.6178 3.51976,13.53562 -5.3e-4,10.23132 -0.99381,13.85274 -5.15646,18.79977 -6.56253,7.79912 -21.17398,11.86 -31.38493,8.72263 z m 10.12135,-29.47656 C 205.87411,275.03498 202.16416,265 193.02885,265 c -5.63716,0 -11.77885,5.61085 -11.77885,10.76079 0,8.68424 11.43016,12.46813 17.95455,5.94376 z m 206.12513,23.84801 c -7.76525,-4.65415 -11.58652,-11.90233 -11.55223,-21.91239 0.0319,-9.29919 3.068,-17.14718 9.01566,-23.30412 7.68013,-7.95037 16.87548,-8.30255 30.9893,-1.1869 6.73427,3.39516 8.57169,5.03623 10.94693,9.77708 7.01442,14.00033 0.4088,33.53113 -13.07458,38.65751 -1.68713,0.64143 -7.10901,1.16094 -12.04863,1.15443 -7.37977,-0.01 -9.9253,-0.57772 -14.27645,-3.18561 z M 419.9513,277.2643 c 5.3268,-5.71765 0.9573,-14.7643 -7.1311,-14.7643 -5.81318,0 -9.0702,2.98717 -9.0702,8.31874 0,8.40186 10.49047,12.57541 16.2013,6.44556 z M 276.25,235.71665 c 0,-4.51915 0.54271,-8.21665 1.20602,-8.21665 4.14707,0 5.0809,15.24076 0.98148,16.01837 -1.90356,0.36108 -2.1875,-0.6516 -2.1875,-7.80172 z m 50.08457,4.44139 c -1.94292,-3.6304 -1.64644,-12.0931 0.48568,-13.8626 2.74825,-2.28084 3.99927,-0.73985 4.78496,5.894 0.39165,3.30685 0.89381,6.82555 1.11594,7.81934 0.6518,2.91623 -4.83708,3.04452 -6.38658,0.14926 z M 213.125,235.05502 c -10.06256,-2.65343 -32.7176,-11.01231 -40.02809,-14.7689 -6.51732,-3.34901 -15.23925,-11.01343 -13.98746,-12.29155 0.54145,-0.55282 5.8852,1.42615 11.875,4.39774 12.58684,6.24443 34.76352,14.42886 46.50465,17.1628 9.03696,2.10428 11.43987,3.52403 10.42786,6.16128 -0.88617,2.30935 -4.06524,2.16721 -14.79196,-0.66136 z m 166.2619,-7.53577 c -1.18934,-1.92439 6.17815,-5.76853 22.4881,-11.73363 28.97999,-10.59895 44.2431,-15.16752 45.72435,-13.68627 0.99649,0.99649 1.00505,2.08706 0.0306,3.90771 -1.00897,1.88529 -9.03932,5.08797 -31.67879,12.6342 -30.09672,10.0319 -35.10032,11.2468 -36.56432,8.87799 z"
       id="path3844"
       inkscape:connector-curvature="0" />
    <path
       style="fill:#060505"
       d="M 0,312.5 0,0 312.5,0 625,0 625,312.5 625,625 312.5,625 0,625 0,312.5 Z m 581.29908,297.77765 24.32592,-0.90265 0.94737,-12.5 c 0.52107,-6.875 0.80232,-140.01883 0.625,-295.87518 C 606.94165,76.215054 606.55173,17.301407 605.3115,16.061315 601.91452,12.66474 21.89445,12.60555 18.498569,16.001431 c -3.402305,3.402305 -3.401063,589.596659 0.0012,592.998819 1.307133,1.30707 30.024691,1.74695 146.875001,2.24975 175.05842,0.75326 382.48869,0.26834 415.92425,-0.97235 z M 306.875,546.25 c -0.45194,-0.73125 0.84494,-1.25 3.125,-1.25 2.28006,0 3.57694,0.51875 3.125,1.25 -0.4249,0.6875 -1.83115,1.25 -3.125,1.25 -1.29385,0 -2.7001,-0.5625 -3.125,-1.25 z m -52.10938,-7.10389 c 0.90234,-0.36108 1.98047,-0.31668 2.39584,0.0986 0.41536,0.41536 -0.32292,0.7108 -1.64062,0.65652 -1.45619,-0.06 -1.75238,-0.35617 -0.75522,-0.7552 z m 107.83854,0.37038 c 0.28646,-0.26593 4.78835,-1.64527 10.00422,-3.06518 13.52708,-3.68247 36.94679,-13.8819 50.64408,-22.0558 42.43785,-25.32491 76.18299,-64.06181 94.9747,-109.02387 2.64428,-6.32685 4.98745,-11.3237 5.20704,-11.1041 0.87227,0.87226 -4.00791,13.32098 -10.33273,26.35746 -15.20652,31.34312 -39.98671,60.9695 -68.96347,82.45046 -14.25398,10.56672 -43.60041,25.56085 -62.42405,31.89468 -12.76247,4.29435 -20.93191,6.23791 -19.10979,4.54635 z M 246.875,537.5 c -1.5758,-0.67715 -1.80685,-1.07429 -0.625,-1.07429 1.03125,0 3,0.48343 4.375,1.07429 1.5758,0.67715 1.80685,1.07429 0.625,1.07429 -1.03125,0 -3,-0.48343 -4.375,-1.07429 z m -23.36921,-8.06366 C 172.07517,508.06721 130.3523,468.89797 106.26903,419.375 99.740224,405.94965 89.901694,378.83709 90.061347,374.71061 c 0.03374,-0.87209 1.942084,4.03939 4.240763,10.91439 14.38632,43.02732 38.41286,79.00542 71.09469,106.45942 18.79622,15.78957 31.80131,23.6378 63.3532,38.23206 6.73314,3.11438 2.76814,2.44895 -5.24421,-0.88014 z M 305,428.00539 c -2.40625,-0.29068 -11.6875,-1.40334 -20.625,-2.4726 -8.9375,-1.06927 -19.625,-2.7987 -23.75,-3.8432 -7.83243,-1.98328 -19.375,-7.57628 -19.375,-9.38825 0,-1.42323 -0.1095,-1.44673 8.91367,1.91304 15.31574,5.70275 50.16234,8.94168 83.58633,7.76922 24.77589,-0.86911 50.40793,-3.22486 51.95837,-4.7753 0.47002,-0.47002 -0.0596,-3.1393 -1.1769,-5.93174 -1.11731,-2.79244 -2.03147,-7.84507 -2.03147,-11.22809 0,-3.38301 -0.4639,-6.43763 -1.03089,-6.78806 -0.56699,-0.35041 -7.63266,-1.5867 -15.70149,-2.74729 -10.48397,-1.50797 -15.05495,-1.7258 -16.01747,-0.76327 -0.96253,0.96252 -0.70592,3.81821 0.89919,10.0068 2.42477,9.34884 1.80797,15.24996 -1.1712,11.20509 -0.87631,-1.1898 -2.59353,-6.41054 -3.816,-11.60163 -1.61525,-6.85892 -2.93573,-9.81996 -4.8317,-10.83466 -3.35819,-1.79724 -36.83731,-0.5219 -53.33044,2.03155 -14.87824,2.30344 -22.67445,4.63954 -35.94628,10.77114 -5.76748,2.66458 -10.2785,4.22117 -10.02446,3.45909 0.80248,-2.40743 15.35504,-10.48338 24.01111,-13.32497 17.6933,-5.8083 29.15791,-7.07116 63.83463,-7.03157 41.50686,0.0474 56.72929,2.54939 87.26084,14.34245 L 430,403.93516 l 0,4.71369 c 0,2.92138 -0.84096,5.47474 -2.21169,6.71524 -6.47128,5.85642 -99.59168,15.44336 -122.78831,12.6413 z m 106.65832,-13.85683 c 12.08579,-2.1289 14.78841,-4.32675 9.60147,-7.8082 -4.28119,-2.87351 -27.55961,-11.18041 -31.57229,-11.26656 -4.06996,-0.0874 -4.40914,2.2605 -1.64313,11.37452 0.97203,3.20283 1.45896,6.13169 1.08205,6.50859 -0.3769,0.3769 -0.33328,1.60251 0.0969,2.72359 0.85394,2.22531 1.26407,2.19731 22.435,-1.53194 z m -94.85606,-0.53921 c -2.83063,-5.47386 -4.0511,-17.897 -1.682,-17.1213 1.77617,0.58155 7.33798,14.79709 7.36504,18.82445 0.0239,3.5572 -3.51055,2.49796 -5.68304,-1.70315 z M 527.04371,381.875 c 1.31323,-5.94711 3.10494,-9.51995 2.19399,-4.375 -0.42604,2.40625 -1.28029,5.21875 -1.89834,6.25 -0.7345,1.22557 -0.8369,0.57615 -0.29565,-1.875 z M 88.848684,370.52084 c 0.05997,-1.45619 0.356176,-1.75238 0.755208,-0.75522 0.361089,0.90234 0.316681,1.98048 -0.09869,2.39584 -0.415365,0.41536 -0.710801,-0.32292 -0.656525,-1.64062 z m 96.893836,-62.1039 c -8.20171,-4.68996 -10.12377,-8.40011 -10.07647,-19.45058 0.0431,-10.07531 2.768,-17.71355 7.68009,-21.52844 2.18251,-1.69501 2.187,-1.66157 0.10625,0.79064 -1.19497,1.40826 -2.5264,4.32916 -2.95874,6.49088 -0.65541,3.27704 -0.15437,4.5621 3.014,7.73048 5.28788,5.28788 10.39836,5.14411 15.99239,-0.44992 3.00537,-3.00537 4.25,-5.3848 4.25,-8.125 0,-6.4551 -7.2218,-11.43084 -14.08256,-9.70271 -2.68698,0.67681 -2.70163,0.63551 -0.38778,-1.09356 3.74508,-2.79857 10.48701,-3.56195 17.38849,-1.96891 12.32736,2.84551 18.35279,10.5661 18.3044,23.45409 -0.0625,16.64966 -10.29773,26.71339 -27.1199,26.66553 -5.16051,-0.0147 -8.62406,-0.81908 -12.11013,-2.8125 z m 225.96333,-0.8577 c -5.48349,-1.308 -11.02164,-5.537 -14.43022,-11.0191 -2.28922,-3.68179 -2.88653,-6.38527 -2.83373,-12.82565 0.0788,-9.60889 3.27289,-17.25915 9.87944,-23.66248 3.60401,-3.49315 5.52079,-4.3119 11.19645,-4.78256 5.74804,-0.47668 8.16119,0.0466 15.02346,3.25786 10.91465,5.10758 13.88525,8.31393 15.67068,16.9143 1.23223,5.93561 1.1364,8.20224 -0.60228,14.24604 -4.29669,14.93561 -17.35509,21.81904 -33.9038,17.87159 z m 6.27585,-27.72139 c 4.1409,-1.88672 6.26393,-7.12151 4.63054,-11.41764 -4.46068,-11.73246 -21.88889,-7.65751 -19.59291,4.58109 1.2699,6.76914 8.18036,9.92664 14.96237,6.83655 z M 526.55745,245.8452 c -1.51339,-5.14396 -5.32171,-15.3699 -8.46297,-22.72429 C 490.56576,158.66984 438.26192,112.04076 370.625,91.65128 c -7.84328,-2.364394 -11.33361,-3.808573 -8.125,-3.361839 9.74337,1.356565 37.55248,11.602093 52.5,19.342239 42.28007,21.89352 77.59985,58.29092 98.73096,101.74332 6.88114,14.14984 16.85323,41.99742 15.97864,44.6212 -0.2203,0.66091 -1.63877,-3.00704 -3.15215,-8.151 z m -435.208766,3.42564 c 0.05997,-1.45619 0.356176,-1.75238 0.755209,-0.75522 0.361088,0.90234 0.31668,1.98047 -0.09869,2.39584 -0.415365,0.41537 -0.710801,-0.32292 -0.656525,-1.64062 z m 185.804506,-6.28432 c -1.34207,-1.34206 -1.09477,-14.23652 0.27303,-14.23652 1.61813,0 2.21562,1.18541 3.15504,6.25952 0.81248,4.38847 -1.54075,9.86433 -3.42807,7.977 z m 50.25032,-2.47778 c -2.13565,-2.5733 -2.25738,-11.15486 -0.1876,-13.22465 2.37937,-2.37937 3.75512,0.0911 4.23086,7.59761 0.45503,7.17958 -1.03442,9.25246 -4.04326,5.62704 z M 209.375,233.15706 c -17.47428,-5.17216 -36.04745,-12.98371 -42.40584,-17.83516 -9.88376,-7.5413 -8.07927,-8.30235 4.49838,-1.89718 10.17043,5.1793 31.92819,13.12053 49.69292,18.13712 3.0445,0.85974 5.76325,2.26628 6.04167,3.12566 0.78987,2.43807 -6.54758,1.80816 -17.82713,-1.53044 z M 96.903698,231.87244 C 98.391809,225.3646 114.51109,193.56475 121.93049,182.5 c 15.06162,-22.46181 34.39426,-42.47876 56.19451,-58.18363 11.7106,-8.4363 50.45685,-28.747421 53.13601,-27.854366 0.84495,0.281648 -4.0981,2.917946 -10.98455,5.858436 -43.01756,18.36838 -83.17512,54.91812 -106.95414,97.34521 -3.76362,6.71515 -8.92564,17.27185 -11.47116,23.45935 -5.090518,12.37375 -6.242349,14.41025 -4.947463,8.74744 z m 283.755242,-4.31753 c -0.94869,-1.53501 3.18087,-4.18186 11.84106,-7.58957 12.55922,-4.94195 50.33837,-17.46534 52.68749,-17.46534 3.48827,0 2.77385,3.45112 -1.12499,5.43439 -3.1613,1.60809 -60.32663,20.81561 -61.95131,20.81561 -0.3925,0 -1.04602,-0.53779 -1.45225,-1.19509 z M 244.41429,91.931065 c 2.08411,-0.943401 6.02161,-2.052351 8.75,-2.464334 l 4.96071,-0.74906 -5.23044,1.735059 c -2.87673,0.954281 -6.81423,2.063231 -8.75,2.464333 l -3.51956,0.729275 3.78929,-1.715273 z m 107.85133,-5.284957 c 0.90234,-0.361089 1.98048,-0.31668 2.39584,0.09869 0.41536,0.415365 -0.32292,0.710801 -1.64062,0.656525 -1.45619,-0.05997 -1.75238,-0.356176 -0.75522,-0.755209 z m -7.57812,-1.223959 c 0.85937,-0.346765 2.26562,-0.346765 3.125,0 0.85937,0.346766 0.15625,0.630482 -1.5625,0.630482 -1.71875,0 -2.42188,-0.283716 -1.5625,-0.630482 z M 305.625,82.5 c 0.4249,-0.6875 2.39365,-1.25 4.375,-1.25 1.98135,0 3.9501,0.5625 4.375,1.25 0.46726,0.756038 -1.26161,1.25 -4.375,1.25 -3.11339,0 -4.84226,-0.493962 -4.375,-1.25 z"
       id="path3842"
       inkscape:connector-curvature="0" />
  </g>
</svg>
