<?xml version="1.0" encoding="UTF-8" standalone="no"?>
<!-- Created with Inkscape (http://www.inkscape.org/) -->

<svg
   xmlns:dc="http://purl.org/dc/elements/1.1/"
   xmlns:cc="http://creativecommons.org/ns#"
   xmlns:rdf="http://www.w3.org/1999/02/22-rdf-syntax-ns#"
   xmlns:svg="http://www.w3.org/2000/svg"
   xmlns="http://www.w3.org/2000/svg"
   xmlns:sodipodi="http://sodipodi.sourceforge.net/DTD/sodipodi-0.dtd"
   xmlns:inkscape="http://www.inkscape.org/namespaces/inkscape"
   id="svg3732"
   version="1.1"
   inkscape:version="0.91 r13725"
   width="625"
   height="625"
   viewBox="0 0 625 625"
   sodipodi:docname="yayamachi.svg">
  <metadata
     id="metadata3738">
    <rdf:RDF>
      <cc:Work
         rdf:about="">
        <dc:format>image/svg+xml</dc:format>
        <dc:type
           rdf:resource="http://purl.org/dc/dcmitype/StillImage" />
        <dc:title></dc:title>
      </cc:Work>
    </rdf:RDF>
  </metadata>
  <defs
     id="defs3736" />
  <sodipodi:namedview
     pagecolor="#ffffff"
     bordercolor="#666666"
     borderopacity="1"
     objecttolerance="10"
     gridtolerance="10"
     guidetolerance="10"
     inkscape:pageopacity="0"
     inkscape:pageshadow="2"
     inkscape:window-width="640"
     inkscape:window-height="480"
     id="namedview3734"
     showgrid="false"
     inkscape:zoom="0.3776"
     inkscape:cx="-18.538136"
     inkscape:cy="312.5"
     inkscape:window-x="0"
     inkscape:window-y="0"
     inkscape:window-maximized="0"
     inkscape:current-layer="svg3732" />
  <g
     id="g3742">
    <path
       style="fill:#fdfdfd"
       d="M 0,312.5 0,0 312.5,0 625,0 625,312.5 625,625 312.5,625 0,625 0,312.5 Z"
       id="path3758"
       inkscape:connector-curvature="0" />
    <path
       style="fill:#fcc7ac"
       d="M 0,312.5 0,0 312.5,0 625,0 625,312.5 625,625 312.5,625 0,625 0,312.5 Z m 326.875,228.67747 c 57.116,-4.93763 107.59899,-29.58983 146.04354,-71.317 27.47107,-29.81668 48.09425,-70.71812 55.81932,-110.70504 9.96282,-51.57009 2.92383,-101.96519 -20.83172,-149.14308 -10.23589,-20.32819 -20.69268,-35.60734 -34.9876,-51.12283 C 377.0101,54.791901 212.39651,65.205199 129.32372,180.625 c -10.44364,14.5102 -25.12022,43.70746 -30.90511,61.48194 -15.24449,46.83972 -15.24449,97.6964 0,144.53612 5.78489,17.77448 20.46147,46.97174 30.90511,61.48194 38.3718,53.31308 97.40404,87.29764 161.44336,92.94211 17.56942,1.54859 19.40628,1.5542 36.10792,0.11038 z m 50,-116.42171 c -2.99964,-0.74577 -15.58166,-0.96486 -31.44945,-0.54763 -21.72455,0.57123 -26.70788,0.38407 -27.89614,-1.04769 -2.21262,-2.66605 2.32811,-6.42336 10.85887,-8.98533 11.12791,-3.34196 45.92802,-3.21117 55.36172,0.20805 5.94529,2.15487 6.9308,2.98062 7.2876,6.1062 0.65276,5.71835 -3.40544,6.94086 -14.1626,4.2664 z M 188.0753,313.66962 c -5.95025,-1.73026 -14.06141,-9.39331 -15.52661,-14.66881 -4.25444,-15.31832 2.47221,-32.50526 15.38472,-39.30879 7.69512,-4.0545 19.92503,-3.68461 27.63875,0.83593 8.14976,4.77608 12.33286,11.62816 12.94236,21.20011 0.94202,14.79399 -4.47356,24.67164 -16.63042,30.3328 -6.60722,3.07683 -16.46871,3.74318 -23.8088,1.60877 z m 9.03164,-33.88751 C 202.25199,274.94857 199.74851,267.5 192.9789,267.5 c -3.54608,0 -9.2289,5.09991 -9.2289,8.28225 0,3.2609 3.75681,6.71775 7.30067,6.71775 1.73977,0 4.46508,-1.22305 6.05627,-2.71789 z m 214.43755,31.49413 c -6.56227,-1.5565 -13.64048,-7.01804 -17.41289,-13.43575 -6.63479,-11.28723 -3.97726,-27.33612 6.43502,-38.86127 8.45782,-9.3618 19.25773,-9.99212 34.44688,-2.01045 9.80859,5.15427 12.91931,9.09778 15.06362,19.09638 1.20587,5.62269 1.04024,7.67321 -1.22108,15.11814 -2.14958,7.07698 -3.62035,9.49707 -8.24648,13.56915 -7.85144,6.91112 -17.91186,9.16923 -29.06507,6.5238 z m 6.49122,-35.74053 c 2.47154,-2.47153 2.47577,-4.24921 0.0184,-7.75757 -2.14375,-3.06063 -7.81782,-3.76445 -10.30413,-1.27814 -3.77357,3.77357 -0.24247,11 5.375,11 1.62054,0 3.83037,-0.88393 4.91071,-1.96429 z M 147.75,223.5 c -1.94773,-1.94773 -1.9172,-5.35275 0.0625,-6.97154 0.85937,-0.70271 7.68621,-2.748 15.17074,-4.54508 16.30867,-3.91584 22.099,-6.3566 34.7516,-14.64865 9.78915,-6.41545 13.75877,-7.26233 14.5592,-3.10603 0.70166,3.64343 -11.8919,14.64796 -22.91354,20.02235 -5.44965,2.65736 -15.3518,5.98428 -22.92451,7.70215 -15.32238,3.4759 -16.6658,3.58699 -18.70599,1.5468 z m 306.82469,-9.80954 c -10.60419,-1.77981 -22.45974,-5.96807 -30.67834,-10.83786 -8.45386,-5.00919 -12.13699,-9.11954 -10.94802,-12.21795 1.13046,-2.94591 5.28393,-2.25854 16.23777,2.68725 11.42815,5.15996 25.42154,9.12476 32.31759,9.15668 9.40685,0.0435 14.69702,5.24156 10.29025,10.111 -2.35454,2.60172 -6.64349,2.87593 -17.21925,1.10088 z"
       id="path3756"
       inkscape:connector-curvature="0" />
    <path
       style="fill:#f7b491"
       d="M 0,312.5 0,0 312.5,0 625,0 625,312.5 625,625 312.5,625 0,625 0,312.5 Z m 541.99624,294.28372 60.12124,-0.82437 0.81243,-21.41717 c 0.44685,-11.77946 0.81416,-52.72244 0.81626,-90.98444 l 0.004,-69.56727 -43.06011,-0.17528 -43.06011,-0.17529 -2.15981,3.49255 c -16.78185,27.13725 -28.91089,42.51277 -47.79395,60.58661 -17.45643,16.70833 -33.13581,27.84681 -53.30101,37.86455 -28.67812,14.2468 -50.88957,20.47245 -84.50156,23.68495 -16.88598,1.6139 -21.57891,1.61669 -38.23612,0.0226 -10.44323,-0.99938 -24.22448,-2.90168 -30.625,-4.22733 -26.63835,-5.51722 -62.16362,-20.97886 -84.24495,-36.66585 -12.88185,-9.15151 -33.53317,-28.52602 -44.74415,-41.97776 -8.50464,-10.20448 -23.1905,-31.70865 -28.79686,-42.16659 l -3.41557,-6.37131 -38.955869,-0.71629 c -29.025222,-0.53368 -39.222976,-0.34343 -40.003678,0.74631 -1.080578,1.50834 -0.128542,186.97698 0.965395,188.07092 1.809883,1.80987 401.685142,2.42517 520.179592,0.80041 z M 347.5,539.32505 C 417.59885,526.97744 476.71305,482.4561 509.4241,417.37334 560.99089,314.77472 527.68285,187.26072 432.72534,123.7456 330.44975,55.335556 192.6286,83.576386 124.64068,186.875 c -50.962952,77.43142 -50.962952,177.56857 0,255 36.25122,55.07892 94.45936,91.12716 160.35932,99.31036 13.34405,1.65701 48.46676,0.61159 62.5,-1.86031 z m 28.75,-115.0021 c -8.78575,-2.02154 -22.24905,-2.18193 -39.27936,-0.46793 C 322.50005,425.3114 317.5,424.7921 317.5,421.83281 c 0,-2.93586 7.14445,-6.5424 16.14148,-8.14827 4.92373,-0.87884 16.02206,-1.2773 27.60852,-0.99125 16.1552,0.39885 20.20591,0.88992 24.375,2.95502 5.56112,2.75464 7.06792,6.45514 3.64701,8.95656 -2.5902,1.894 -3.66657,1.8707 -13.02201,-0.28192 z M 191.36181,313.65734 c -7.08957,-1.40873 -14.39424,-6.49547 -16.8948,-11.76499 -2.48412,-5.2349 -2.57036,-18.61798 -0.16391,-25.43855 2.63944,-7.48096 6.48124,-12.05304 13.20115,-15.71046 13.33749,-7.25918 31.48817,-2.15229 38.23235,10.75708 2.2783,4.36103 2.31838,21.01675 0.0634,26.35223 -4.97077,11.76126 -20.02279,18.66907 -34.43819,15.80469 z m 5.34461,-32.49806 C 199.04905,279.31657 200,277.40372 200,274.53427 200,269.46341 198.07209,267.5 193.09289,267.5 c -8.40879,0 -12.64547,11.09004 -5.59289,14.64011 4.25574,2.14222 5.3897,2.0214 9.20642,-0.98084 z M 407.5,309.25712 c -5.73663,-2.48481 -10.87516,-7.45771 -14.01334,-13.56161 -2.06242,-4.01152 -2.42706,-6.572 -1.95812,-13.75 0.70052,-10.72284 3.68411,-17.01871 11.46317,-24.1892 5.44122,-5.01552 6.0632,-5.25631 13.57813,-5.25631 6.37616,0 9.53496,0.79975 16.59042,4.20042 9.85379,4.74943 12.59541,7.33155 15.02873,14.15433 4.0353,11.31463 0.85264,25.00363 -7.63153,32.82405 -3.06715,2.8272 -7.0152,5.68731 -8.77342,6.35579 -4.82044,1.83272 -19.33044,1.36817 -24.28404,-0.77746 z m 11.61997,-34.37615 c 2.00189,-3.19816 -0.0426,-8.56838 -3.80695,-9.99958 -5.23646,-1.9909 -9.06302,0.31728 -9.06302,5.46681 0,2.28349 0.70071,4.85251 1.55715,5.70895 2.10002,2.10002 9.76062,1.30357 11.31282,-1.17618 z M 147.08334,222.91666 c -1.60098,-1.60096 -0.81555,-5.33776 1.35416,-6.44276 1.20312,-0.61274 7.8125,-2.3861 14.6875,-3.94081 14.39527,-3.25534 23.9149,-7.3325 36.19139,-15.50044 9.62938,-6.40674 9.80741,-6.46956 11.73827,-4.14303 2.94605,3.54979 -7.92146,13.87034 -22.02827,20.91959 -12.57175,6.28218 -39.02444,12.02608 -41.94305,9.10745 z M 445.01577,211.1114 c -11.56998,-3.13619 -25.28953,-10.21533 -29.50371,-15.22357 -2.8289,-3.36197 -2.96616,-3.96944 -1.27834,-5.65727 1.68784,-1.68783 3.34053,-1.27475 15.39108,3.84694 12.92736,5.49435 28.65916,9.6725 36.41945,9.6725 4.3587,0 6.79961,2.54047 6.2392,6.4937 -0.37781,2.66519 -1.06476,2.90093 -9.15845,3.14297 -5.63609,0.16854 -12.08071,-0.64116 -18.10923,-2.27527 z"
       id="path3754"
       inkscape:connector-curvature="0" />
    <path
       style="fill:#fd975e"
       d="M 0,312.5 0,0 312.5,0 625,0 625,312.5 625,625 312.5,625 0,625 0,312.5 Z m 523.75,295.2691 79.375,-0.8941 0.9891,-38.75 c 1.03688,-40.62186 0.19465,-207.78752 -1.11845,-221.9912 l -0.76189,-8.2412 -30.10501,-0.82228 c -21.28631,-0.58141 -30.35286,-0.42122 -30.95115,0.54683 -0.46539,0.753 -1.17958,4.55031 -1.58709,8.43847 -2.99182,28.54533 -20.04467,73.76325 -37.78587,100.19438 -15.26703,22.74505 -37.86793,46.14686 -59.41403,61.51949 -42.6728,30.44602 -99.20657,45.5137 -151.76561,40.44935 -33.96031,-3.27225 -56.36098,-9.66385 -85.25929,-24.32709 C 183.98136,513.04115 169.79194,503.12738 153.55602,487.6937 123.89425,459.49754 103.88225,428.25274 91.384435,390.625 86.434927,375.7233 80.857844,350.94854 79.355037,337.1875 L 78.570109,330 50.014221,330 c -21.723857,0 -28.684867,-0.37383 -29.094987,-1.5625 -1.620928,-4.69803 -2.320597,73.99871 -1.505804,169.36861 0.665774,77.9275 1.321822,108.79115 2.319925,109.14031 2.310892,0.80843 285.332905,2.45442 356.391645,2.07268 36.4375,-0.19574 101.96875,-0.75824 145.625,-1.25 z M 347.5,539.32505 C 417.59885,526.97744 476.71305,482.4561 509.4241,417.37334 560.99089,314.77472 527.68285,187.26072 432.72534,123.7456 330.44975,55.335556 192.6286,83.576386 124.64068,186.875 c -50.962952,77.43142 -50.962952,177.56857 0,255 36.25122,55.07892 94.45936,91.12716 160.35932,99.31036 13.34405,1.65701 48.46676,0.61159 62.5,-1.86031 z m 28.75,-115.0021 c -8.78575,-2.02154 -22.24905,-2.18193 -39.27936,-0.46793 C 322.50005,425.3114 317.5,424.7921 317.5,421.83281 c 0,-2.93586 7.14445,-6.5424 16.14148,-8.14827 4.92373,-0.87884 16.02206,-1.2773 27.60852,-0.99125 16.1552,0.39885 20.20591,0.88992 24.375,2.95502 5.56112,2.75464 7.06792,6.45514 3.64701,8.95656 -2.5902,1.894 -3.66657,1.8707 -13.02201,-0.28192 z M 191.36181,313.65734 c -7.08957,-1.40873 -14.39424,-6.49547 -16.8948,-11.76499 -2.48412,-5.2349 -2.57036,-18.61798 -0.16391,-25.43855 2.63944,-7.48096 6.48124,-12.05304 13.20115,-15.71046 13.33749,-7.25918 31.48817,-2.15229 38.23235,10.75708 2.2783,4.36103 2.31838,21.01675 0.0634,26.35223 -4.97077,11.76126 -20.02279,18.66907 -34.43819,15.80469 z m 5.34461,-32.49806 C 199.04905,279.31657 200,277.40372 200,274.53427 200,269.46341 198.07209,267.5 193.09289,267.5 c -8.40879,0 -12.64547,11.09004 -5.59289,14.64011 4.25574,2.14222 5.3897,2.0214 9.20642,-0.98084 z M 407.5,309.25712 c -5.73663,-2.48481 -10.87516,-7.45771 -14.01334,-13.56161 -2.06242,-4.01152 -2.42706,-6.572 -1.95812,-13.75 0.70052,-10.72284 3.68411,-17.01871 11.46317,-24.1892 5.44122,-5.01552 6.0632,-5.25631 13.57813,-5.25631 6.37616,0 9.53496,0.79975 16.59042,4.20042 9.85379,4.74943 12.59541,7.33155 15.02873,14.15433 4.0353,11.31463 0.85264,25.00363 -7.63153,32.82405 -3.06715,2.8272 -7.0152,5.68731 -8.77342,6.35579 -4.82044,1.83272 -19.33044,1.36817 -24.28404,-0.77746 z m 11.61997,-34.37615 c 2.00189,-3.19816 -0.0426,-8.56838 -3.80695,-9.99958 -5.23646,-1.9909 -9.06302,0.31728 -9.06302,5.46681 0,2.28349 0.70071,4.85251 1.55715,5.70895 2.10002,2.10002 9.76062,1.30357 11.31282,-1.17618 z M 147.08334,222.91666 c -1.60098,-1.60096 -0.81555,-5.33776 1.35416,-6.44276 1.20312,-0.61274 7.8125,-2.3861 14.6875,-3.94081 14.39527,-3.25534 23.9149,-7.3325 36.19139,-15.50044 9.62938,-6.40674 9.80741,-6.46956 11.73827,-4.14303 2.94605,3.54979 -7.92146,13.87034 -22.02827,20.91959 -12.57175,6.28218 -39.02444,12.02608 -41.94305,9.10745 z M 445.01577,211.1114 c -11.56998,-3.13619 -25.28953,-10.21533 -29.50371,-15.22357 -2.8289,-3.36197 -2.96616,-3.96944 -1.27834,-5.65727 1.68784,-1.68783 3.34053,-1.27475 15.39108,3.84694 12.92736,5.49435 28.65916,9.6725 36.41945,9.6725 4.3587,0 6.79961,2.54047 6.2392,6.4937 -0.37781,2.66519 -1.06476,2.90093 -9.15845,3.14297 -5.63609,0.16854 -12.08071,-0.64116 -18.10923,-2.27527 z"
       id="path3752"
       inkscape:connector-curvature="0" />
    <path
       style="fill:#a09e9d"
       d="M 0,312.5 0,0 312.5,0 625,0 625,312.5 625,625 312.5,625 0,625 0,312.5 Z m 523.75,295.2691 79.375,-0.8941 0.91007,-36.25 C 605.24925,522.26242 604.22191,19.962576 602.90622,18.69008 599.5979,15.490354 23.923407,15.709191 20.625,18.911429 c -0.826311,0.802218 -1.25,100.314251 -1.25,293.588531 0,193.25645 0.423765,292.79544 1.25,293.61526 2.673004,2.65224 321.46374,3.70018 503.125,1.65388 z m -235,-59.62444 c -31.69059,-3.16757 -54.85463,-9.86939 -82.65549,-23.91384 -22.00056,-11.11426 -36.13379,-20.943 -52.53849,-36.53712 C 110.32424,446.59802 86.253197,396.73207 81.06918,337.52879 79.295855,317.27681 80.488924,286.97933 83.774111,268.83819 98.620478,186.85504 156.84561,118.65246 234.7388,92.00421 c 80.88356,-27.671292 171.09906,-8.853686 230.79361,48.1401 23.40539,22.34645 38.0723,42.01386 50.69644,67.98069 19.62759,40.37241 26.71641,81.87032 22.52734,131.875 -3.79857,45.34311 -22.65632,91.15066 -52.05352,126.4437 -19.35347,23.23495 -44.77463,43.86313 -70.45267,57.16929 -27.31579,14.15482 -56.99804,22.39591 -90.38059,25.09359 -18.26237,1.47579 -16.45966,1.50308 -37.11941,-0.56192 z m 58.75,-8.81961 C 417.59885,526.97744 476.71305,482.4561 509.4241,417.37334 560.99089,314.77472 527.68285,187.26072 432.72534,123.7456 330.44975,55.335556 192.6286,83.576386 124.64068,186.875 c -50.962952,77.43142 -50.962952,177.56857 0,255 36.25122,55.07892 94.45936,91.12716 160.35932,99.31036 13.34405,1.65701 48.46676,0.61159 62.5,-1.86031 z m 28.75,-115.0021 c -8.78575,-2.02154 -22.24905,-2.18193 -39.27936,-0.46793 C 322.50005,425.3114 317.5,424.7921 317.5,421.83281 c 0,-2.93586 7.14445,-6.5424 16.14148,-8.14827 4.92373,-0.87884 16.02206,-1.2773 27.60852,-0.99125 16.1552,0.39885 20.20591,0.88992 24.375,2.95502 5.56112,2.75464 7.06792,6.45514 3.64701,8.95656 -2.5902,1.894 -3.66657,1.8707 -13.02201,-0.28192 z M 191.36181,313.65734 c -7.08957,-1.40873 -14.39424,-6.49547 -16.8948,-11.76499 -2.48412,-5.2349 -2.57036,-18.61798 -0.16391,-25.43855 2.63944,-7.48096 6.48124,-12.05304 13.20115,-15.71046 13.33749,-7.25918 31.48817,-2.15229 38.23235,10.75708 2.2783,4.36103 2.31838,21.01675 0.0634,26.35223 -4.97077,11.76126 -20.02279,18.66907 -34.43819,15.80469 z m 5.34461,-32.49806 C 199.04905,279.31657 200,277.40372 200,274.53427 200,269.46341 198.07209,267.5 193.09289,267.5 c -8.40879,0 -12.64547,11.09004 -5.59289,14.64011 4.25574,2.14222 5.3897,2.0214 9.20642,-0.98084 z M 407.5,309.25712 c -5.73663,-2.48481 -10.87516,-7.45771 -14.01334,-13.56161 -2.06242,-4.01152 -2.42706,-6.572 -1.95812,-13.75 0.70052,-10.72284 3.68411,-17.01871 11.46317,-24.1892 5.44122,-5.01552 6.0632,-5.25631 13.57813,-5.25631 6.37616,0 9.53496,0.79975 16.59042,4.20042 9.85379,4.74943 12.59541,7.33155 15.02873,14.15433 4.0353,11.31463 0.85264,25.00363 -7.63153,32.82405 -3.06715,2.8272 -7.0152,5.68731 -8.77342,6.35579 -4.82044,1.83272 -19.33044,1.36817 -24.28404,-0.77746 z m 11.61997,-34.37615 c 2.00189,-3.19816 -0.0426,-8.56838 -3.80695,-9.99958 -5.23646,-1.9909 -9.06302,0.31728 -9.06302,5.46681 0,2.28349 0.70071,4.85251 1.55715,5.70895 2.10002,2.10002 9.76062,1.30357 11.31282,-1.17618 z M 147.08334,222.91666 c -1.60098,-1.60096 -0.81555,-5.33776 1.35416,-6.44276 1.20312,-0.61274 7.8125,-2.3861 14.6875,-3.94081 14.39527,-3.25534 23.9149,-7.3325 36.19139,-15.50044 9.62938,-6.40674 9.80741,-6.46956 11.73827,-4.14303 2.94605,3.54979 -7.92146,13.87034 -22.02827,20.91959 -12.57175,6.28218 -39.02444,12.02608 -41.94305,9.10745 z M 445.01577,211.1114 c -11.56998,-3.13619 -25.28953,-10.21533 -29.50371,-15.22357 -2.8289,-3.36197 -2.96616,-3.96944 -1.27834,-5.65727 1.68784,-1.68783 3.34053,-1.27475 15.39108,3.84694 12.92736,5.49435 28.65916,9.6725 36.41945,9.6725 4.3587,0 6.79961,2.54047 6.2392,6.4937 -0.37781,2.66519 -1.06476,2.90093 -9.15845,3.14297 -5.63609,0.16854 -12.08071,-0.64116 -18.10923,-2.27527 z"
       id="path3750"
       inkscape:connector-curvature="0" />
    <path
       style="fill:#a36a4b"
       d="M 0,312.5 0,0 312.5,0 625,0 625,312.5 625,625 312.5,625 0,625 0,312.5 Z m 595.89875,295.5645 c 7.59256,-0.73759 7.79167,-0.85081 8.54347,-4.85824 1.18037,-6.29182 -0.31463,-583.333388 -1.51429,-584.494479 -3.20434,-3.10132 -578.962281,-3.036301 -582.169016,0.06574 -1.423335,1.376867 -1.764381,586.879039 -0.342678,588.303909 2.0134,2.0179 555.104274,2.9627 575.482514,0.98306 z M 287.57735,547.3589 C 252.94902,544.28486 214.69179,531.02088 184.375,511.57809 134.89202,479.84361 96.939445,424.11943 84.989002,365.65379 79.183789,337.2527 78.678392,296.97727 83.774111,268.83819 98.620478,186.85504 156.84561,118.65246 234.7388,92.00421 c 80.88356,-27.671292 171.09906,-8.853686 230.79361,48.1401 23.40539,22.34645 38.0723,42.01386 50.69644,67.98069 19.62446,40.36599 26.70466,81.80036 22.53442,131.875 -5.05182,60.66052 -39.1348,123.42256 -87.01835,160.2398 -47.60882,36.60601 -103.11917,52.5385 -164.16757,47.1191 z m 61.79765,-7.24624 c 89.58425,-16.64866 159.83844,-85.11671 179.83068,-175.25869 7.68723,-34.66055 7.68723,-66.2974 0,-100.95795 C 508.97994,172.70126 437.54959,104.01803 346.25,87.976571 c -18.2308,-3.203172 -54.2692,-3.203172 -72.5,0 C 173.1082,105.65946 97.516201,187.24294 86.319265,290.26324 c -8.673764,79.80517 26.581295,161.1421 90.500655,208.79403 32.9885,24.59295 68.8783,38.52396 113.18008,43.93203 10.69749,1.30587 46.09827,-0.40924 59.375,-2.87664 z m 26.25,-117.1795 c -5.74884,-1.36842 -11.73199,-1.57857 -25.625,-0.90007 -26.91008,1.31423 -30.33975,1.27015 -30.9048,-0.39727 -0.6685,-1.97266 4.96875,-4.75138 13.15382,-6.48381 8.38624,-1.775 39.40169,-1.82584 47.55183,-0.078 8.23681,1.76649 11.27874,4.03355 9.44649,7.04023 -1.75369,2.87777 -4.32375,3.03226 -13.62234,0.81887 z M 191.32229,312.41381 c -6.03008,-1.21136 -13.53448,-6.50755 -15.99137,-11.28582 -1.94547,-3.78365 -2.03426,-17.44984 -0.15413,-23.72514 0.78473,-2.6192 3.08913,-6.77891 5.12091,-9.2438 10.78551,-13.0847 32.50311,-12.60001 42.31462,0.94439 3.28449,4.5341 3.63768,5.97825 3.63768,14.87426 0,5.5852 -0.74543,11.59477 -1.72105,13.87495 -4.66904,10.91226 -19.342,17.34636 -33.20666,14.56116 z m 5.93346,-30.52511 c 4.1021,-3.45169 5.51072,-7.94404 3.59246,-11.45704 -1.80477,-3.30515 -3.4295,-4.14085 -8.09252,-4.16252 -8.05914,-0.0375 -13.59824,10.43155 -8.06819,15.24901 4.82614,4.20426 7.9043,4.29501 12.56825,0.37055 z m 210.7575,26.33212 c -5.35645,-2.33207 -12.62418,-10.12939 -14.36889,-15.41592 -3.69345,-11.19126 1.0122,-26.60432 10.72635,-35.13346 3.99994,-3.51199 5.29256,-3.92144 12.37984,-3.92144 6.56247,0 9.42412,0.75571 16.76129,4.42634 10.36283,5.18431 13.83191,9.77063 14.83563,19.61356 1.34919,13.23072 -4.51586,24.6763 -15.4729,30.19516 -4.93135,2.48383 -19.38306,2.62088 -24.86132,0.23576 z m 11.27246,-31.43511 c 4.0853,-4.0853 1.15188,-12.0274 -5.01391,-13.57492 -5.03186,-1.26292 -9.2718,2.09991 -9.2718,7.35373 0,5.39299 2.77185,8.18548 8.125,8.18548 2.30804,0 5.08036,-0.88393 6.16071,-1.96429 z M 148.05086,221.13005 c -1.57137,-2.54255 2.51833,-4.54024 15.07414,-7.36325 14.7176,-3.30905 24.62417,-7.54407 36.21995,-15.48389 4.64515,-3.1806 8.90962,-5.78291 9.47661,-5.78291 6.54554,0 -6.66604,13.66184 -19.10755,19.75877 -9.00991,4.41528 -29.87359,10.24123 -36.67552,10.24123 -2.27752,0 -4.52195,-0.61647 -4.98763,-1.36995 z M 445,209.87378 c -8.99784,-2.42452 -23.22409,-9.23573 -27.8125,-13.31601 C 414.92214,194.5433 414.1673,190 416.09796,190 c 0.60388,0 6.932,2.50073 14.0625,5.55716 7.7411,3.31818 17.49718,6.3809 24.21454,7.60165 6.1875,1.12448 12.55214,2.29988 14.14365,2.61203 2.14912,0.4215 2.79236,1.2798 2.5,3.33585 -0.35565,2.50106 -1.17803,2.79365 -8.51865,3.03077 -5.01152,0.16188 -11.71746,-0.70556 -17.5,-2.26368 z"
       id="path3748"
       inkscape:connector-curvature="0" />
    <path
       style="fill:#615c59"
       d="M 0,312.5 0,0 312.5,0 625,0 625,312.5 625,625 312.5,625 0,625 0,312.5 Z m 462.44976,296.90475 c 94.8048,-0.45811 140.99812,-1.10271 141.875,-1.97976 1.85782,-1.85815 1.81933,-588.030948 -0.0387,-589.88897 -3.41015,-3.410106 -581.426687,-3.395403 -584.836911,0.01487 -1.839411,1.839442 -1.868748,588.02951 -0.02952,589.86872 1.163349,1.16333 282.828021,4.01117 297.455401,3.00748 2.75,-0.18869 68.25865,-0.64875 145.57476,-1.02235 z M 288.125,546.7481 C 255.75971,543.41792 232.99045,536.73844 205,522.36291 159.63216,499.0626 126.55367,464.84036 104.32522,418.20707 90.445897,389.08954 84.537442,366.4132 82.244964,333.46421 77.743316,268.76362 95.32758,211.39965 134.50739,162.972 c 24.95217,-30.84179 60.88798,-55.74143 99.86761,-69.197501 18.96686,-6.547504 33.89936,-9.658667 57.1796,-11.913272 15.89496,-1.539367 21.05237,-1.543208 37.5,-0.02792 34.13664,3.144925 56.95154,9.662924 85.9454,24.553793 44.6587,22.9361 76.50798,55.50345 99.4947,101.73791 18.00756,36.21959 25.5574,74.33664 23.64462,119.37499 -1.43792,33.85734 -8.00422,60.37067 -22.46453,90.70708 C 493.44632,464.84037 460.36784,499.0626 415,522.36292 c -28.89926,14.84227 -50.86852,21.18755 -85,24.55013 -20.82264,2.05143 -20.3151,2.05343 -41.875,-0.16495 z m 61.25,-6.63544 c 89.58425,-16.64866 159.83844,-85.11671 179.83068,-175.25869 7.68723,-34.66055 7.68723,-66.2974 0,-100.95795 C 508.97994,172.70126 437.54959,104.01803 346.25,87.976571 c -18.2308,-3.203172 -54.2692,-3.203172 -72.5,0 C 173.1082,105.65946 97.516201,187.24294 86.319265,290.26324 c -8.673764,79.80517 26.581295,161.1421 90.500655,208.79403 32.9885,24.59295 68.8783,38.52396 113.18008,43.93203 10.69749,1.30587 46.09827,-0.40924 59.375,-2.87664 z m 26.25,-117.1795 c -5.74884,-1.36842 -11.73199,-1.57857 -25.625,-0.90007 -26.91008,1.31423 -30.33975,1.27015 -30.9048,-0.39727 -0.6685,-1.97266 4.96875,-4.75138 13.15382,-6.48381 8.38624,-1.775 39.40169,-1.82584 47.55183,-0.078 8.23681,1.76649 11.27874,4.03355 9.44649,7.04023 -1.75369,2.87777 -4.32375,3.03226 -13.62234,0.81887 z M 191.32229,312.41381 c -6.03008,-1.21136 -13.53448,-6.50755 -15.99137,-11.28582 -1.94547,-3.78365 -2.03426,-17.44984 -0.15413,-23.72514 0.78473,-2.6192 3.08913,-6.77891 5.12091,-9.2438 10.78551,-13.0847 32.50311,-12.60001 42.31462,0.94439 3.28449,4.5341 3.63768,5.97825 3.63768,14.87426 0,5.5852 -0.74543,11.59477 -1.72105,13.87495 -4.66904,10.91226 -19.342,17.34636 -33.20666,14.56116 z m 5.93346,-30.52511 c 4.1021,-3.45169 5.51072,-7.94404 3.59246,-11.45704 -1.80477,-3.30515 -3.4295,-4.14085 -8.09252,-4.16252 -8.05914,-0.0375 -13.59824,10.43155 -8.06819,15.24901 4.82614,4.20426 7.9043,4.29501 12.56825,0.37055 z m 210.7575,26.33212 c -5.35645,-2.33207 -12.62418,-10.12939 -14.36889,-15.41592 -3.69345,-11.19126 1.0122,-26.60432 10.72635,-35.13346 3.99994,-3.51199 5.29256,-3.92144 12.37984,-3.92144 6.56247,0 9.42412,0.75571 16.76129,4.42634 10.36283,5.18431 13.83191,9.77063 14.83563,19.61356 1.34919,13.23072 -4.51586,24.6763 -15.4729,30.19516 -4.93135,2.48383 -19.38306,2.62088 -24.86132,0.23576 z m 11.27246,-31.43511 c 4.0853,-4.0853 1.15188,-12.0274 -5.01391,-13.57492 -5.03186,-1.26292 -9.2718,2.09991 -9.2718,7.35373 0,5.39299 2.77185,8.18548 8.125,8.18548 2.30804,0 5.08036,-0.88393 6.16071,-1.96429 z M 148.05086,221.13005 c -1.57137,-2.54255 2.51833,-4.54024 15.07414,-7.36325 14.7176,-3.30905 24.62417,-7.54407 36.21995,-15.48389 4.64515,-3.1806 8.90962,-5.78291 9.47661,-5.78291 6.54554,0 -6.66604,13.66184 -19.10755,19.75877 -9.00991,4.41528 -29.87359,10.24123 -36.67552,10.24123 -2.27752,0 -4.52195,-0.61647 -4.98763,-1.36995 z M 445,209.87378 c -8.99784,-2.42452 -23.22409,-9.23573 -27.8125,-13.31601 C 414.92214,194.5433 414.1673,190 416.09796,190 c 0.60388,0 6.932,2.50073 14.0625,5.55716 7.7411,3.31818 17.49718,6.3809 24.21454,7.60165 6.1875,1.12448 12.55214,2.29988 14.14365,2.61203 2.14912,0.4215 2.79236,1.2798 2.5,3.33585 -0.35565,2.50106 -1.17803,2.79365 -8.51865,3.03077 -5.01152,0.16188 -11.71746,-0.70556 -17.5,-2.26368 z"
       id="path3746"
       inkscape:connector-curvature="0" />
    <path
       style="fill:#060504"
       d="M 0,312.5 0,0 312.5,0 625,0 625,312.5 625,625 312.5,625 0,625 0,312.5 Z m 463.65205,298.2106 c 124.70633,-0.54079 139.48345,-0.81044 141.25,-2.5775 1.78666,-1.78719 1.96321,-29.71096 1.86985,-295.73677 C 606.68353,60.619223 606.41554,18.384363 604.8969,16.89292 600.47261,12.54789 23.190148,12.657021 18.75,17.003727 c -1.656138,1.621284 -1.875,36.113618 -1.875,295.496063 0,265.59553 0.188176,293.84871 1.968999,295.62972 1.758645,1.75883 17.516463,2.0688 147.500001,2.90154 80.04205,0.51279 148.3435,0.78636 151.781,0.60794 3.4375,-0.17843 68.92468,-0.5962 145.52705,-0.92839 z M 301.25,546.25 c -2.8748,-0.60513 0.3399,-0.92368 9.375,-0.92899 10.71671,-0.006 12.50911,0.2127 8.125,0.99279 -6.72155,1.19601 -11.59939,1.17822 -17.5,-0.0638 z m -25,-2.09947 c -1.71875,-0.27997 -8.71976,-1.61615 -15.5578,-2.9693 -45.48286,-9.00045 -93.92458,-37.80612 -123.70677,-73.56176 -25.00937,-30.02551 -43.951277,-70.24688 -50.679772,-107.61377 -1.405612,-7.80611 -2.510233,-16.20393 -2.454714,-18.66181 0.05553,-2.45789 1.188224,1.71861 2.51712,9.28111 9.167292,52.16934 30.572156,93.81484 66.312686,129.01862 35.104,34.5768 77.33689,55.87668 125.7209,63.4065 6.03534,0.93925 8.72335,1.68562 5.97335,1.65858 -2.75,-0.027 -6.40625,-0.27821 -8.125,-0.55817 z m 65.34835,-1.10041 c 49.01378,-7.62782 92.5988,-29.90078 127.44248,-65.12606 32.80414,-33.16342 53.39433,-71.89292 62.75905,-118.04785 2.92945,-14.43807 4.48092,-19.39903 4.42428,-14.14705 -0.0142,1.31772 -1.38903,9.05049 -3.05517,17.18395 -9.62699,46.99534 -34.44713,92.18633 -67.67383,123.2164 -20.8401,19.46237 -52.4678,38.41087 -80.49516,48.22553 -14.69723,5.14668 -40.189,10.63443 -48.75,10.49466 -4.34317,-0.0709 -3.1244,-0.481 5.34835,-1.79958 z M 376.875,421.66304 c -5.75169,-1.44075 -11.7251,-1.71209 -25.625,-1.16402 -9.96875,0.39308 -20.87091,1.0856 -24.22704,1.53894 -7.56256,1.02155 -7.60755,-1.48076 -0.0776,-4.31672 6.80898,-2.56443 42.05662,-3.5399 51.96112,-1.43803 7.40469,1.57138 10.72349,3.78169 9.25235,6.16204 -1.00135,1.62022 -1.95751,1.55395 -11.28383,-0.78221 z M 535.19736,340 c 0,-1.71875 0.28373,-2.42188 0.63049,-1.5625 0.34676,0.85937 0.34676,2.26562 0,3.125 -0.34676,0.85937 -0.63049,0.15625 -0.63049,-1.5625 z M 82.697369,313.75 c 0,-1.71875 0.283716,-2.42188 0.630482,-1.5625 0.346765,0.85937 0.346765,2.26562 0,3.125 -0.346766,0.85937 -0.630482,0.15625 -0.630482,-1.5625 z m 453.749991,0 c 0,-1.71875 0.28373,-2.42188 0.63049,-1.5625 0.34676,0.85937 0.34676,2.26562 0,3.125 -0.34676,0.85937 -0.63049,0.15625 -0.63049,-1.5625 z m -352.94355,-6.13744 c -7.14131,-4.52889 -9.05951,-9.54091 -8.20771,-21.44587 0.80881,-11.30419 4.82049,-18.22215 13.21699,-22.7921 12.60923,-6.86282 28.51596,-2.56867 34.73067,9.37583 2.2628,4.34903 2.27406,18.59053 0.019,23.98771 -3.855,9.22631 -13.13111,14.51187 -25.46822,14.51187 -7.29944,0 -9.3969,-0.53386 -14.29072,-3.63744 z m 16.17476,-25.79555 c 3.98379,-4.52674 4.7457,-8.72675 2.26885,-12.50691 -6.1006,-9.3107 -20.64693,-4.46665 -20.97251,6.98401 -0.26495,9.31886 12.13948,12.9817 18.70366,5.5229 z m 209.08035,24.94177 c -12.50825,-5.42428 -17.42765,-17.29609 -13.54936,-32.69817 1.05664,-4.19632 3.27337,-7.66909 8.03014,-12.58017 l 6.57057,-6.78377 8.09619,0.51553 c 10.00586,0.63714 21.34968,6.02931 25.43379,12.08974 8.42287,12.4987 2.08244,33.97855 -11.7376,39.76415 -5.31366,2.2245 -17.37973,2.06217 -22.84373,-0.30731 z m 11.55358,-28.97537 c 2.38841,-2.09731 2.88716,-7.89042 0.98527,-11.44415 -1.63826,-3.06111 -8.06556,-5.54406 -11.87577,-4.58775 -3.85516,0.96759 -7.25061,7.12898 -6.2111,11.2707 1.87556,7.47284 11.09164,10.03866 17.1016,4.7612 z m -336.42819,10.2477 c -0.07388,-2.80164 1.015736,-11.4807 2.421347,-19.28681 8.4798,-47.09281 35.131473,-95.88153 69.600843,-127.41171 28.7937,-26.33848 71.16071,-47.86001 108.17445,-54.9503 73.5322,-14.085703 146.81434,5.881656 199.40205,54.33155 27.79374,25.60682 50.30986,60.53243 61.99392,96.16116 5.73759,17.49586 9.40064,34.31416 10.1498,46.60111 l 0.58832,9.64889 -1.90373,-11.875 C 522.25621,206.05319 478.45692,143.76325 413.50429,109.44211 326.69624,63.572519 222.28474,79.807676 151.5961,150.16675 116.56292,185.0366 92.88049,232.17909 85.74531,281.25 c -1.105466,7.60264 -1.775013,10.04234 -1.861,6.78111 z M 148.75,220.20964 c 0,-1.37203 0.98794,-1.68859 19.52004,-6.25487 11.18391,-2.75568 22.93422,-8.19682 32.04031,-14.83668 8.05612,-5.87425 10.56051,-4.6012 3.65867,1.8598 -10.29857,9.64077 -29.87237,17.72737 -47.82615,19.75862 -5.01605,0.5675 -7.39287,0.39811 -7.39287,-0.52687 z M 446.57574,208.741 c -10.57603,-2.77145 -24.20414,-9.26099 -28.05402,-13.35899 -1.48403,-1.57968 -2.43946,-3.13093 -2.12316,-3.44724 0.31629,-0.31628 5.04305,1.36723 10.5039,3.74115 14.21703,6.18039 21.04515,8.26277 32.42539,9.88878 7.7361,1.10535 10.13057,1.9213 10.4461,3.55969 0.34865,1.81035 -0.67024,2.1154 -6.8698,2.05678 -4.00353,-0.0379 -11.35131,-1.13593 -16.32841,-2.44017 z"
       id="path3744"
       inkscape:connector-curvature="0" />
  </g>
</svg>
