<?xml version="1.0" encoding="UTF-8" standalone="no"?>
<!-- Created with Inkscape (http://www.inkscape.org/) -->

<svg
   xmlns:dc="http://purl.org/dc/elements/1.1/"
   xmlns:cc="http://creativecommons.org/ns#"
   xmlns:rdf="http://www.w3.org/1999/02/22-rdf-syntax-ns#"
   xmlns:svg="http://www.w3.org/2000/svg"
   xmlns="http://www.w3.org/2000/svg"
   xmlns:sodipodi="http://sodipodi.sourceforge.net/DTD/sodipodi-0.dtd"
   xmlns:inkscape="http://www.inkscape.org/namespaces/inkscape"
   id="svg3520"
   version="1.1"
   inkscape:version="0.91 r13725"
   width="625"
   height="625"
   viewBox="0 0 625 625"
   sodipodi:docname="yayakomi.svg">
  <metadata
     id="metadata3526">
    <rdf:RDF>
      <cc:Work
         rdf:about="">
        <dc:format>image/svg+xml</dc:format>
        <dc:type
           rdf:resource="http://purl.org/dc/dcmitype/StillImage" />
        <dc:title></dc:title>
      </cc:Work>
    </rdf:RDF>
  </metadata>
  <defs
     id="defs3524" />
  <sodipodi:namedview
     pagecolor="#ffffff"
     bordercolor="#666666"
     borderopacity="1"
     objecttolerance="10"
     gridtolerance="10"
     guidetolerance="10"
     inkscape:pageopacity="0"
     inkscape:pageshadow="2"
     inkscape:window-width="640"
     inkscape:window-height="480"
     id="namedview3522"
     showgrid="false"
     inkscape:zoom="0.3776"
     inkscape:cx="-18.538136"
     inkscape:cy="312.5"
     inkscape:window-x="0"
     inkscape:window-y="0"
     inkscape:window-maximized="0"
     inkscape:current-layer="svg3520" />
  <g
     id="g3530">
    <path
       style="fill:#fdfdfd"
       d="M 0,312.5 0,0 312.5,0 625,0 625,312.5 625,625 312.5,625 0,625 0,312.5 Z"
       id="path3546"
       inkscape:connector-curvature="0" />
    <path
       style="fill:#b2fcb8"
       d="M 0,312.5 0,0 312.5,0 625,0 625,312.5 625,625 312.5,625 0,625 0,312.5 Z M 326.6483,541.2364 C 460.84484,530.11764 554.81446,404.14897 528.84569,270.18567 513.23682,189.66531 456.15674,123.84281 379.78034,98.289376 260.62741,58.424103 132.68526,126.3064 96.331119,248.67907 c -12.39601,41.72655 -12.39601,89.66531 0,131.39185 26.483821,89.14791 104.441081,153.5765 194.918881,161.09275 17.11649,1.42193 19.06597,1.42593 35.3983,0.0728 z M 283.125,403.79099 c -25.76625,-1.14483 -36.28239,-3.9004 -58.39391,-15.30113 C 203.7455,377.66966 196.25,370.55744 196.25,361.46512 c 0,-7.31254 8.18717,-8.96263 10.37054,-2.09012 0.65525,2.0625 2.66806,5.33869 4.47291,7.28041 4.62957,4.98066 27.22252,16.81256 40.68071,21.30444 l 11.35084,3.78851 40.42487,0.45489 c 39.77133,0.44754 40.6201,0.40449 52.5,-2.66286 19.6003,-5.06073 32.81629,-11.19397 39.48619,-18.32463 3.14266,-3.35976 5.71394,-6.88932 5.71394,-7.84347 0,-2.93458 4.55765,-6.18115 7.40751,-5.27664 9.84008,3.12311 -1.65266,22.69312 -18.23225,31.04616 -8.46156,4.26305 -23.01801,9.3615 -34.72032,12.16091 -12.00158,2.871 -41.33342,3.87659 -72.57994,2.48827 z M 117.75,279.75 c -7.25505,-7.25505 12.68811,-38.84087 34.25817,-54.2578 18.14565,-12.96937 33.27472,-17.17993 59.24183,-16.48751 14.7488,0.39327 17.86389,0.86158 24.72349,3.71687 10.99167,4.57525 20.75717,10.62815 28.58281,17.71636 5.19093,4.70178 6.6937,6.88572 6.6937,9.72779 0,2.65749 -0.77307,3.95222 -2.8125,4.71032 -3.79407,1.41033 -5.76642,0.55252 -11.04446,-4.80347 -5.84224,-5.92852 -15.06871,-11.79074 -25.02395,-15.89942 -16.36725,-6.75501 -43.49565,-5.00474 -61.93176,3.99574 -15.80038,7.71371 -36.01042,28.80376 -41.2835,43.08112 -3.40722,9.22532 -7.57328,12.33055 -11.40383,8.5 z m 369.31874,-5.78592 C 485.93092,272.70681 485,270.96095 485,270.08436 c 0,-0.87657 -2.01479,-5.42792 -4.4773,-10.1141 -12.59388,-23.96617 -38.84223,-40.70012 -66.1477,-42.17072 -23.8828,-1.28628 -42.84992,7.64592 -57.09542,26.88796 -4.97518,6.72019 -8.19987,8.09709 -11.0161,4.70374 -2.88633,-3.47782 10e-4,-8.564 11.02359,-19.41284 17.07502,-16.80719 32.44109,-23.13098 55.83793,-22.97968 18.95879,0.12263 33.17781,4.84347 50.625,16.80802 13.89236,9.52678 28.05121,27.4571 31.89036,40.38491 1.6518,5.56224 1.64676,6.57206 -0.0457,9.15509 -2.28522,3.48768 -5.70425,3.73525 -8.52592,0.61733 z"
       id="path3544"
       inkscape:connector-curvature="0" />
    <path
       style="fill:#7dfc89"
       d="M 0,312.5 0,0 312.5,0 625,0 625,312.5 625,625 312.5,625 0,625 0,312.5 Z m 602.95521,293.79479 c 1.49113,-1.49113 1.81141,-238.81524 0.36277,-268.79479 l -1.05704,-21.875 -17.69297,0.2987 c -9.73113,0.16429 -23.3516,0.633 -30.26768,1.04159 l -12.57472,0.74287 -1.55361,15.83341 c -3.15759,32.18019 -10.18662,58.43474 -22.718,84.85533 -12.93966,27.2814 -26.83381,46.1649 -50.95274,69.24972 C 449.52655,503.8935 435.457,513.92565 415.20131,524.22549 340.14262,562.3922 251.09397,557.00576 180.87518,510.05141 166.49601,500.43625 144.77646,480.47712 132.00972,465.14662 114.9099,444.61287 99.410503,416.08061 90.848794,389.375 86.742256,376.56592 80.973731,349.8358 79.283255,335.78274 l -0.732852,-6.09227 -29.139507,0.46727 -29.139506,0.46726 -0.807206,30 c -0.443963,16.5 -0.3644,78.65625 0.176805,138.125 l 0.984011,108.125 77.5,0.742 c 114.24765,1.09382 503.4335,0.0745 504.83021,-1.32221 z M 333.125,541.22407 C 399.13936,533.85741 458.90614,497.4436 495.163,442.5 564.91912,336.79162 536.81282,193.36706 432.69395,123.72468 358.22226,73.912524 262.20221,73.88522 187.37255,123.65492 c -55.80249,37.11459 -92.129479,97.77522 -99.774419,166.60832 -9.29517,83.69133 30.083119,168.4797 99.774419,214.83185 43.14871,28.69848 95.67104,41.71767 145.75245,36.12898 z M 267.5,402.88219 c -26.74555,-4.51341 -62.98633,-23.02786 -69.41691,-35.46324 -2.82223,-5.45759 -2.35033,-9.73687 1.2549,-11.37952 3.59977,-1.64018 6.91201,0.28512 6.91201,4.01772 0,4.33525 6.22888,9.57453 20.76254,17.46394 8.98152,4.8755 19.53593,9.41381 27.25932,11.72127 l 12.60314,3.76534 39.375,0.0586 c 39.05796,0.0581 39.4722,0.0315 51.4474,-3.31857 25.82365,-7.22407 38.31929,-14.51863 43.40527,-25.33861 2.09523,-4.4574 3.31305,-5.65917 5.73475,-5.65917 8.0121,0 5.5842,11.43921 -4.52785,21.33322 -9.05981,8.86449 -33.88779,18.93355 -55.22479,22.39658 -7.31766,1.18767 -72.96451,1.51958 -79.58478,0.40238 z M 118.31874,278.96407 c -3.01037,-3.32641 -2.58469,-6.35015 2.25017,-15.98362 13.31736,-26.53493 39.15561,-46.80259 66.80995,-52.40608 15.34703,-3.1097 36.54055,-2.08653 47.95044,2.31493 15.50859,5.98256 35.9207,21.42355 35.9207,27.17265 0,5.85565 -6.87414,6.44136 -11.95364,1.01851 -6.09075,-6.50247 -21.63772,-15.96031 -30.82102,-18.74966 -7.40107,-2.248 -10.89084,-2.54051 -24.49063,-2.05277 -17.90644,0.64218 -26.98111,3.08387 -39.3743,10.59423 -14.62862,8.86506 -31.21283,27.77577 -36.58575,41.71808 -1.95577,5.07512 -4.77875,8.65966 -6.81984,8.65966 -0.44954,0 -1.74828,-1.02866 -2.88608,-2.28593 z m 370.1558,-4.04347 c -1.18277,-0.68935 -2.71648,-3.35536 -3.40826,-5.92446 -1.51664,-5.63235 -8.11389,-16.81778 -14.55672,-24.68039 -6.0246,-7.35222 -24.59495,-19.61045 -35.32807,-23.31994 -11.31578,-3.91085 -35.70645,-4.13231 -47.01524,-0.42687 -10.52705,3.44929 -21.40629,11.20406 -29.01361,20.68106 -7.1172,8.86641 -11.89471,10.82846 -12.69029,5.2117 -0.58961,-4.16271 4.96015,-11.5335 15.29194,-20.30962 15.28425,-12.98289 31.3814,-19.01453 50.74571,-19.01453 13.11862,0 23.82469,2.63054 37.01844,9.09561 19.98094,9.79087 33.4059,22.61258 42.40266,40.49729 4.71779,9.37852 5.40909,14.51079 2.36461,17.55526 -2.272,2.27201 -2.88702,2.3392 -5.81117,0.63489 z"
       id="path3542"
       inkscape:connector-curvature="0" />
    <path
       style="fill:#9da29d"
       d="M 0,312.5 0,0 312.5,0 625,0 625,312.5 625,625 312.5,625 0,625 0,312.5 Z M 603.08176,606.16806 C 604.69719,604.55241 604.57355,20.31137 602.95739,18.732155 601.38128,17.191961 249.93648,16.03442 126.25,17.162041 L 20.625,18.125 19.556135,170.42084 c -0.59182,84.3247 -0.59182,215.70716 0,294.375 L 20.625,606.875 l 77.5,0.742 c 122.18146,1.16979 503.43221,0.0759 504.95676,-1.44894 z M 290,548.57361 C 250.60236,544.96889 213.51324,531.87604 180.87518,510.05141 166.49601,500.43625 144.77646,480.47712 132.00972,465.14662 108.08463,436.41699 90.710661,398.63864 83.653601,360 81.208189,346.61094 80.787378,339.99255 80.712924,313.75 80.615099,279.26916 82.195126,267.71042 90.794219,240 108.86642,181.76266 152.32794,130.79482 207.51901,103.11547 261.16535,76.210818 327.83415,71.835489 384.9016,91.474232 c 18.1234,6.236847 44.75099,19.842298 59.4734,30.388118 46.85244,33.56091 79.21782,84.42609 91.52501,143.83992 3.14948,15.20436 3.34557,18.11873 3.2749,48.67273 -0.0693,29.94176 -0.33291,33.77289 -3.34971,48.67089 -4.2264,20.87148 -9.37496,36.38366 -18.37124,55.35101 -12.93966,27.2814 -26.83381,46.1649 -50.95273,69.24973 -16.97468,16.24687 -31.04423,26.27902 -51.29992,36.57886 -28.3838,14.43292 -54.36202,21.73866 -87.07631,24.48807 -16.88211,1.41883 -21.26434,1.40274 -38.125,-0.13995 z m 43.125,-7.34954 C 399.13936,533.85741 458.90614,497.4436 495.163,442.5 564.91912,336.79162 536.81282,193.36706 432.69395,123.72468 358.22226,73.912524 262.20221,73.88522 187.37255,123.65492 c -55.80249,37.11459 -92.129479,97.77522 -99.774419,166.60832 -9.29517,83.69133 30.083119,168.4797 99.774419,214.83185 43.14871,28.69848 95.67104,41.71767 145.75245,36.12898 z M 267.5,402.88219 c -26.74555,-4.51341 -62.98633,-23.02786 -69.41691,-35.46324 -2.82223,-5.45759 -2.35033,-9.73687 1.2549,-11.37952 3.59977,-1.64018 6.91201,0.28512 6.91201,4.01772 0,4.33525 6.22888,9.57453 20.76254,17.46394 8.98152,4.8755 19.53593,9.41381 27.25932,11.72127 l 12.60314,3.76534 39.375,0.0586 c 39.05796,0.0581 39.4722,0.0315 51.4474,-3.31857 25.82365,-7.22407 38.31929,-14.51863 43.40527,-25.33861 2.09523,-4.4574 3.31305,-5.65917 5.73475,-5.65917 8.0121,0 5.5842,11.43921 -4.52785,21.33322 -9.05981,8.86449 -33.88779,18.93355 -55.22479,22.39658 -7.31766,1.18767 -72.96451,1.51958 -79.58478,0.40238 z M 118.31874,278.96407 c -3.01037,-3.32641 -2.58469,-6.35015 2.25017,-15.98362 13.31736,-26.53493 39.15561,-46.80259 66.80995,-52.40608 15.34703,-3.1097 36.54055,-2.08653 47.95044,2.31493 15.50859,5.98256 35.9207,21.42355 35.9207,27.17265 0,5.85565 -6.87414,6.44136 -11.95364,1.01851 -6.09075,-6.50247 -21.63772,-15.96031 -30.82102,-18.74966 -7.40107,-2.248 -10.89084,-2.54051 -24.49063,-2.05277 -17.90644,0.64218 -26.98111,3.08387 -39.3743,10.59423 -14.62862,8.86506 -31.21283,27.77577 -36.58575,41.71808 -1.95577,5.07512 -4.77875,8.65966 -6.81984,8.65966 -0.44954,0 -1.74828,-1.02866 -2.88608,-2.28593 z m 370.1558,-4.04347 c -1.18277,-0.68935 -2.71648,-3.35536 -3.40826,-5.92446 -1.51664,-5.63235 -8.11389,-16.81778 -14.55672,-24.68039 -6.0246,-7.35222 -24.59495,-19.61045 -35.32807,-23.31994 -11.31578,-3.91085 -35.70645,-4.13231 -47.01524,-0.42687 -10.52705,3.44929 -21.40629,11.20406 -29.01361,20.68106 -7.1172,8.86641 -11.89471,10.82846 -12.69029,5.2117 -0.58961,-4.16271 4.96015,-11.5335 15.29194,-20.30962 15.28425,-12.98289 31.3814,-19.01453 50.74571,-19.01453 13.11862,0 23.82469,2.63054 37.01844,9.09561 19.98094,9.79087 33.4059,22.61258 42.40266,40.49729 4.71779,9.37852 5.40909,14.51079 2.36461,17.55526 -2.272,2.27201 -2.88702,2.3392 -5.81117,0.63489 z"
       id="path3540"
       inkscape:connector-curvature="0" />
    <path
       style="fill:#64b06b"
       d="M 0,312.5 0,0 312.5,0 625,0 625,312.5 625,625 312.5,625 0,625 0,312.5 Z m 574.5727,295.54176 28.94771,-0.81432 0.88245,-14.12319 c 1.44293,-23.0934 -0.39084,-573.342221 -1.91581,-574.867195 -1.93121,-1.931221 -579.412011,-1.812094 -581.34403,0.119925 -1.695925,1.695925 -2.418422,587.03009 -0.726682,588.72483 2.047808,2.05144 485.579812,2.88905 554.156362,0.95995 z M 306.875,549.36627 C 306.1875,549.09529 298.59375,548.29696 290,547.5922 251.07861,544.40035 215.9787,532.43745 184.375,511.59266 131.3849,476.6421 98.224983,426.74424 84.048541,360.625 81.103042,346.88713 80.823706,342.99556 80.728716,314.375 80.611966,279.19859 82.14474,267.87279 90.794219,240 108.86642,181.76266 152.32794,130.79482 207.51901,103.11547 261.16535,76.210818 327.83415,71.835489 384.9016,91.474232 c 18.1234,6.236847 44.75099,19.842298 59.4734,30.388118 46.85816,33.56501 79.26025,84.49379 91.51437,143.83992 3.0945,14.98653 3.34081,18.46478 3.35807,47.42273 0.0176,29.59206 -0.16755,32.11212 -3.49082,47.5 -11.49996,53.24876 -34.13233,94.41782 -70.38095,128.02535 -14.97703,13.8858 -30.50807,24.74279 -49.12567,34.34135 -27.30809,14.07906 -53.99007,21.82252 -84.375,24.48674 -8.25,0.72337 -16.96875,1.55492 -19.375,1.84788 -2.40625,0.29297 -4.9375,0.31094 -5.625,0.04 z M 347.5,540.57505 C 417.8117,528.18995 478.22126,482.78214 510.42127,418.11267 564.82941,308.8412 525.54633,176.07534 420.625,114.62627 400.70905,102.96213 371.69249,92.486722 346.875,88.001425 c -17.47634,-3.158521 -56.27366,-3.158521 -73.75,0 C 201.65854,100.91765 141.8972,145.72995 109.57872,210.63732 55.170592,319.9088 94.453671,452.67466 199.375,514.12374 c 25.14137,14.7245 56.98406,24.87147 90.625,28.87851 9.42199,1.12227 46.15113,-0.42814 57.5,-2.4272 z m -80,-138.89713 c -29.82982,-5.47051 -66.44018,-25.06838 -69.46239,-37.1839 -0.98977,-3.96781 0.61024,-7.61902 3.33879,-7.61902 0.95091,0 2.69345,2.04841 3.87231,4.55202 1.17885,2.50362 4.09814,6.16329 6.48728,8.13263 7.7403,6.38021 30.8646,17.59081 43.88901,21.2773 l 12.5,3.53805 38.75,0 c 38.42821,0 38.85179,-0.0285 51.00764,-3.42651 25.72456,-7.19108 39.67873,-15.47003 44.78966,-26.57349 1.91851,-4.16799 6.55987,-5.6789 7.76862,-2.52895 1.38217,3.60186 -3.1156,11.81274 -9.8346,17.95352 -7.50798,6.86188 -21.1734,13.26488 -39.56402,18.53792 -11.41673,3.27345 -12.51294,3.3514 -51.0423,3.62941 -21.65625,0.15627 -40.78125,0.0263 -42.5,-0.28898 z M 119.01563,278.51562 c -4.81535,-4.81535 4.56058,-22.8179 20.95137,-40.22837 12.56025,-13.34163 29.14121,-22.70273 46.60002,-26.30895 12.19304,-2.51854 31.95254,-2.55267 41.47779,-0.0716 17.58418,4.58009 43.42943,22.72926 41.41333,29.08143 -1.37536,4.33338 -5.81145,3.42209 -11.39195,-2.34021 -6.35744,-6.56454 -19.64368,-14.48384 -29.38732,-17.5164 -9.59089,-2.98503 -30.6584,-3.20114 -42.42887,-0.43524 -23.38736,5.49571 -45.52465,24.23899 -58.51796,49.5462 -4.84178,9.43039 -6.23595,10.75367 -8.71641,8.27321 z m 369.64841,-5.4942 c -0.94115,-1.13401 -2.36865,-3.97431 -3.17223,-6.31176 -6.54012,-19.02396 -27.72913,-38.9085 -49.87884,-46.80812 -9.50605,-3.3903 -30.35628,-4.65164 -40.43117,-2.44588 -15.318,3.35369 -28.91438,12.24929 -38.33278,25.07973 -5.18731,7.06652 -9.34902,8.35128 -9.34902,2.88612 0,-5.03879 19.43875,-23.76967 30.02294,-28.92966 27.18964,-13.25544 57.25063,-10.32051 84.61312,8.26101 18.23098,12.38041 36.80298,39.97303 32.01453,47.56429 -1.76819,2.80316 -3.55434,3.03244 -5.48655,0.70427 z"
       id="path3538"
       inkscape:connector-curvature="0" />
    <path
       style="fill:#576158"
       d="M 0,312.5 0,0 312.5,0 625,0 625,312.5 625,625 312.5,625 0,625 0,312.5 Z M 531.875,609.02178 604.375,608.125 605.26855,575 C 606.47176,530.39564 605.444,18.683346 604.14871,17.438884 600.82494,14.245556 22.683382,14.471566 19.375,17.667487 17.621801,19.36109 17.645985,605.64577 19.39933,607.39924 c 2.664398,2.66458 341.502,3.73737 512.47567,1.62253 z M 288.6005,546.86784 C 256.84044,543.72491 232.97041,536.72814 205,522.36291 160.25669,499.38335 126.27334,464.5841 104.42672,419.375 87.159825,383.6431 80.054547,347.31981 81.686809,303.125 82.973957,268.27439 90.27241,238.7773 105.02542,208.80077 127.66931,162.79084 160.60831,129.04112 205.02016,106.34494 253.5059,81.566824 304.55965,74.693508 358.41221,85.693914 425.89357,99.478257 484.4016,145.23004 514.97885,208.125 c 8.8063,18.11386 16.44441,41.26959 20.24419,61.37232 2.44546,12.93773 2.80666,18.87097 2.77008,45.50268 -0.0365,26.57406 -0.41464,32.52646 -2.85875,45 -12.58252,64.21516 -47.16644,116.24655 -100.75937,151.59211 -15.24985,10.05758 -30.02475,17.32321 -47.70345,23.45845 -19.87216,6.89646 -33.5585,9.77094 -56.67155,11.90245 -21.8626,2.01619 -20.12864,2.01976 -41.3995,-0.0851 z M 347.5,540.57505 C 417.8117,528.18995 478.22126,482.78214 510.42127,418.11267 564.82941,308.8412 525.54633,176.07534 420.625,114.62627 400.70905,102.96213 371.69249,92.486722 346.875,88.001425 c -17.47634,-3.158521 -56.27366,-3.158521 -73.75,0 C 201.65854,100.91765 141.8972,145.72995 109.57872,210.63732 55.170592,319.9088 94.453671,452.67466 199.375,514.12374 c 25.14137,14.7245 56.98406,24.87147 90.625,28.87851 9.42199,1.12227 46.15113,-0.42814 57.5,-2.4272 z m -80,-138.89713 c -29.82982,-5.47051 -66.44018,-25.06838 -69.46239,-37.1839 -0.98977,-3.96781 0.61024,-7.61902 3.33879,-7.61902 0.95091,0 2.69345,2.04841 3.87231,4.55202 1.17885,2.50362 4.09814,6.16329 6.48728,8.13263 7.7403,6.38021 30.8646,17.59081 43.88901,21.2773 l 12.5,3.53805 38.75,0 c 38.42821,0 38.85179,-0.0285 51.00764,-3.42651 25.72456,-7.19108 39.67873,-15.47003 44.78966,-26.57349 1.91851,-4.16799 6.55987,-5.6789 7.76862,-2.52895 1.38217,3.60186 -3.1156,11.81274 -9.8346,17.95352 -7.50798,6.86188 -21.1734,13.26488 -39.56402,18.53792 -11.41673,3.27345 -12.51294,3.3514 -51.0423,3.62941 -21.65625,0.15627 -40.78125,0.0263 -42.5,-0.28898 z M 119.01563,278.51562 c -4.81535,-4.81535 4.56058,-22.8179 20.95137,-40.22837 12.56025,-13.34163 29.14121,-22.70273 46.60002,-26.30895 12.19304,-2.51854 31.95254,-2.55267 41.47779,-0.0716 17.58418,4.58009 43.42943,22.72926 41.41333,29.08143 -1.37536,4.33338 -5.81145,3.42209 -11.39195,-2.34021 -6.35744,-6.56454 -19.64368,-14.48384 -29.38732,-17.5164 -9.59089,-2.98503 -30.6584,-3.20114 -42.42887,-0.43524 -23.38736,5.49571 -45.52465,24.23899 -58.51796,49.5462 -4.84178,9.43039 -6.23595,10.75367 -8.71641,8.27321 z m 369.64841,-5.4942 c -0.94115,-1.13401 -2.36865,-3.97431 -3.17223,-6.31176 -6.54012,-19.02396 -27.72913,-38.9085 -49.87884,-46.80812 -9.50605,-3.3903 -30.35628,-4.65164 -40.43117,-2.44588 -15.318,3.35369 -28.91438,12.24929 -38.33278,25.07973 -5.18731,7.06652 -9.34902,8.35128 -9.34902,2.88612 0,-5.03879 19.43875,-23.76967 30.02294,-28.92966 27.18964,-13.25544 57.25063,-10.32051 84.61312,8.26101 18.23098,12.38041 36.80298,39.97303 32.01453,47.56429 -1.76819,2.80316 -3.55434,3.03244 -5.48655,0.70427 z"
       id="path3536"
       inkscape:connector-curvature="0" />
    <path
       style="fill:#305133"
       d="M 0,312.5 0,0 312.5,0 625,0 625,312.5 625,625 312.5,625 0,625 0,312.5 Z m 595.87604,296.81166 9.00103,-0.76344 0.77504,-5.21161 c 0.42628,-2.86638 0.59455,-135.54295 0.37396,-294.8368 -0.3157,-227.975191 -0.73021,-289.954276 -1.94732,-291.171246 -3.38494,-3.384535 -580.954366,-3.452948 -584.3381,-0.06921 -2.887283,2.887282 -3.456111,588.192656 -0.574436,591.074406 2.020578,2.02063 553.393056,2.95556 576.709826,0.9779 z M 287.57735,546.19426 C 238.24989,541.45843 191.26842,520.36059 155.2294,486.76115 126.62256,460.09079 107.32698,430.177 94.415294,392.48155 87.355987,371.87202 83.928212,354.31868 82.432658,331.11947 78.423349,268.92668 95.524134,211.90034 131.70562,166.8079 c 12.38919,-15.44045 35.33789,-36.7744 50.37143,-46.82713 33.59386,-22.46376 66.86144,-34.009218 109.50258,-38.002693 30.44022,-2.850821 64.98044,1.32943 93.93058,11.368007 16.57589,5.747752 43.5505,19.689126 57.61478,29.777226 46.16137,33.11086 79.67432,85.54206 90.72362,141.93759 5.47024,27.9201 5.41955,67.62275 -0.12375,96.90884 -6.91872,36.55275 -25.06464,75.35415 -48.27387,103.22396 -10.66396,12.80536 -30.28496,31.28244 -42.6304,40.14501 -24.26088,17.41645 -62.33485,33.30781 -91.90849,38.36088 -16.80059,2.87061 -47.02087,4.06095 -63.33477,2.49467 z m 42.60271,-2.50568 C 441.38348,532.42285 525.44168,445.2287 535.2741,330.94312 542.41033,247.99622 498.44769,161.26187 427.17903,117.68127 386.47974,92.793756 337.23709,80.753049 292.85671,84.837065 186.7116,94.60486 104.15832,172.32845 86.894165,278.75 72.262312,368.94522 115.50823,463.79217 192.82097,511.06874 c 41.86588,25.60086 91.13929,37.30225 137.35909,32.61984 z M 260.625,399.24827 c -13.96519,-3.33943 -23.70521,-7.11343 -37.87859,-14.67696 -14.39781,-7.68329 -21.97619,-14.19229 -23.4745,-20.162 -1.83935,-7.32856 3.3772,-9.65756 5.72145,-2.55442 2.01217,6.09691 8.79123,11.38051 25.21764,19.65462 22.18198,11.17323 31.62193,13.18767 66.43184,14.17623 33.06674,0.93907 48.56827,-0.26678 65.13104,-5.06648 22.50295,-6.5211 35.55413,-14.3858 40.81779,-24.59695 2.77624,-5.38572 3.81593,-6.22 6.03913,-4.84598 2.82895,1.74838 0.30458,8.34711 -5.78379,15.11883 -8.57345,9.53574 -27.73881,18.32405 -50.3192,23.07399 -12.41838,2.61229 -80.84938,2.52229 -91.90281,-0.12088 z M 119.60938,277.94271 c -4.64444,-4.64444 8.27558,-27.17792 24.19198,-42.19266 10.19723,-9.61954 22.43133,-17.0473 34.32364,-20.83911 6.84295,-2.18185 12.71395,-2.91319 26.93752,-3.35556 17.0289,-0.52963 18.76759,-0.36394 27.29325,2.601 5.00815,1.74166 12.23349,5.0346 16.05629,7.31763 9.24606,5.52191 20.33794,15.69399 20.33794,18.65141 0,4.19144 -4.94723,2.67367 -11.85065,-3.63567 -7.41408,-6.77605 -20.44021,-14.01895 -30.56373,-16.99431 -8.54368,-2.51104 -26.51632,-2.56808 -38.21062,-0.12125 -24.45451,5.11667 -47.56965,24.10878 -60.69291,49.86718 -4.33726,8.51321 -6.07639,10.44767 -7.82272,8.70134 z m 369.54347,-5.71359 c -0.6723,-0.88226 -2.21206,-4.28272 -3.4217,-7.55656 -3.20916,-8.68552 -14.01764,-23.07612 -22.39505,-29.81719 C 448.15317,222.63814 432.63704,216.39342 415,215.40176 c -25.96493,-1.4599 -44.10127,7.30633 -61.43705,29.69569 -2.50254,3.23206 -3.67421,3.93076 -4.79386,2.85867 -2.22989,-2.13513 0.9897,-7.43302 9.56232,-15.73495 12.18289,-11.79818 19.4872,-16.25176 33.59698,-20.48465 9.77646,-2.93291 29.48421,-2.97747 40.57161,-0.0918 16.72773,4.35375 35.24995,15.9706 46.29871,29.03784 8.21332,9.71378 15.22184,23.19211 14.71662,28.30201 -0.42479,4.2964 -2.4265,5.78514 -4.36248,3.2445 z"
       id="path3534"
       inkscape:connector-curvature="0" />
    <path
       style="fill:#050605"
       d="M 0,312.5 0,0 312.5,0 625,0 625,312.5 625,625 312.5,625 0,625 0,312.5 Z M 582.2351,610.27755 605.625,609.375 606.58333,597.5 c 0.52707,-6.53125 0.80832,-139.67509 0.625,-295.8752 C 606.94211,74.805945 606.55696,17.306609 605.2954,16.045209 601.8812,12.631428 21.912101,12.587899 18.498834,16.001166 c -3.417825,3.417825 -3.416886,589.581434 9.49e-4,592.999124 1.307078,1.30702 30.026436,1.74692 146.875007,2.24971 175.35696,0.75455 384.76415,0.26604 416.86031,-0.97245 z M 307.5,546.25 c -1.406,-0.90863 -0.78067,-1.21171 2.5,-1.21171 3.28067,0 3.906,0.30308 2.5,1.21171 -1.03125,0.66645 -2.15625,1.21171 -2.5,1.21171 -0.34375,0 -1.46875,-0.54526 -2.5,-1.21171 z m -52.73438,-7.10389 c 0.90234,-0.36108 1.98047,-0.31668 2.39584,0.0986 0.41536,0.41536 -0.32292,0.7108 -1.64062,0.65652 -1.45619,-0.06 -1.75238,-0.35617 -0.75522,-0.7552 z m 115.16104,-1.71082 c 4.42841,-1.30549 8.28078,-2.14452 8.5608,-1.8645 0.67123,0.67123 -12.12716,4.4567 -14.65184,4.33367 -1.07835,-0.0525 1.66263,-1.16367 6.09104,-2.46917 z M 246.875,537.5 c -1.5758,-0.67715 -1.80685,-1.07429 -0.625,-1.07429 1.03125,0 3,0.48343 4.375,1.07429 1.5758,0.67715 1.80685,1.07429 0.625,1.07429 -1.03125,0 -3,-0.48343 -4.375,-1.07429 z m 148.4125,-9.22986 c 55.47666,-23.29682 99.85171,-67.657 122.93966,-122.8985 2.64428,-6.32685 4.99981,-11.31134 5.23452,-11.07663 0.79434,0.79435 -7.59233,21.2677 -12.93547,31.57773 -14.88834,28.72827 -39.3322,57.15231 -66.38821,77.19815 -11.48095,8.50626 -39.24018,23.47711 -53.44691,28.82451 -14.64593,5.51271 -11.77869,3.25127 4.59641,-3.62526 z m -171.78171,1.1662 c -48.5127,-20.15675 -90.59551,-58.26349 -113.78068,-103.03045 -6.64206,-12.82479 -15.028235,-33.69954 -14.27849,-35.5418 0.463925,-1.13995 0.629149,-1.13585 0.704696,0.0175 0.05428,0.82862 2.656234,7.49441 5.782124,14.81285 14.53882,34.03872 36.12808,63.42727 63.46336,86.38996 18.79622,15.78956 31.80131,23.6378 63.3532,38.23205 6.73314,3.11439 2.76814,2.44895 -5.24421,-0.88014 z M 269.375,400.08729 c -17.9557,-2.26373 -49.70855,-15.58825 -61.78898,-25.92865 -5.37653,-4.60212 -9.59037,-11.9268 -8.17702,-14.21367 1.39035,-2.24962 4.341,-1.21692 4.341,1.51931 0,7.80196 31.06204,25.86803 54.63529,31.77656 12.58795,3.15511 13.28857,3.19187 51.875,2.72208 38.29081,-0.46618 39.34615,-0.54736 50.10221,-3.85358 25.01087,-7.68792 38.35704,-15.61429 43.14363,-25.62329 2.48271,-5.19146 5.24387,-6.6543 5.24387,-2.77814 0,4.02436 -2.94524,8.82913 -9.05836,14.77749 -6.50913,6.33369 -22.5491,13.66683 -40.70348,18.60876 -11.55915,3.14661 -13.71392,3.31209 -47.11316,3.61805 -19.25,0.17635 -38.375,-0.10487 -42.5,-0.62492 z M 91.96004,382.39641 c -1.078023,-3.63009 -1.90873,-7.2012 -1.846019,-7.93579 0.06271,-0.7346 1.164679,2.01554 2.448815,6.1114 1.284137,4.09585 2.114844,7.66697 1.846019,7.93579 -0.268826,0.26883 -1.370794,-2.4813 -2.448815,-6.1114 z m 435.63865,-3.12557 c 0.06,-1.45619 0.35617,-1.75238 0.7552,-0.75522 0.36108,0.90234 0.31668,1.98048 -0.0986,2.39584 -0.41536,0.41536 -0.7108,-0.32292 -0.65652,-1.64062 z M 119.49563,276.44519 c -1.17745,-1.90515 1.65747,-9.58274 6.43486,-17.427 10.39348,-17.06567 24.00025,-30.02305 39.69451,-37.80009 14.84098,-7.3542 23.45935,-9.23219 42.5,-9.26099 13.81765,-0.0209 17.46617,0.4063 24.375,2.85405 15.19061,5.38193 37.11982,21.46763 35.39477,25.96306 -1.04548,2.72448 -3.38013,2.03967 -7.34841,-2.15547 -4.99105,-5.27638 -16.76572,-13.18996 -25.12802,-16.88817 -20.05841,-8.87078 -51.22606,-5.98278 -72.12634,6.68325 -14.75126,8.93958 -31.26684,27.66832 -38.04981,43.14867 -2.47553,5.64975 -4.30945,7.20797 -5.74656,4.88269 z m 368.26003,-8.5848 C 483.67941,254.25507 470.5263,238.13087 455.625,228.47189 418.96912,204.71164 377.93017,210.85172 353.5095,243.75 c -3.40825,4.59141 -5.58925,4.58351 -4.12975,-0.015 1.22089,-3.84668 14.91291,-16.97679 23.65509,-22.68429 21.35148,-13.93974 51.43478,-14.59634 76.55407,-1.67086 19.39861,9.98181 31.33495,21.60677 39.95658,38.91427 4.56199,9.15798 5.03121,13.26702 1.59069,13.9296 -1.32655,0.25548 -2.41924,-1.15491 -3.38052,-4.36338 z m 39.97161,-18.08767 c -0.74228,-2.92437 -1.13406,-5.53261 -0.8706,-5.79606 0.26347,-0.26346 1.11545,1.88454 1.89333,4.77334 0.77787,2.8888 1.16964,5.49702 0.8706,5.79606 -0.29905,0.29905 -1.15104,-1.84895 -1.89333,-4.77334 z M 518.26335,223.464 C 491.59681,159.66549 438.28777,112.07218 370.625,91.655271 c -7.85838,-2.371226 -11.33979,-3.813423 -8.125,-3.36583 9.75219,1.357792 37.55926,11.605402 52.5,19.347579 20.57443,10.6615 35.86785,21.99009 53.81441,39.86298 16.88765,16.81833 25.57619,27.74945 36.49575,45.9156 7.01825,11.67581 18.95223,38.17222 18.2039,40.4172 -0.2237,0.67111 -2.58652,-3.99484 -5.25071,-10.3688 z M 97.5,229.96291 c 0,-3.21572 17.30732,-36.83994 24.43049,-47.46291 15.06162,-22.46181 34.39426,-42.47876 56.19451,-58.18363 11.41102,-8.22048 50.42912,-28.756661 53.00525,-27.897954 0.77302,0.257675 -4.08693,2.849893 -10.79988,5.760484 -50.5541,21.91916 -95.49522,67.0893 -117.19272,117.78994 C 98.322133,231.22129 97.5,232.67871 97.5,229.96291 Z M 246.25,91.326156 c 1.03125,-0.603802 4.125,-1.437721 6.875,-1.853154 l 5,-0.755331 -5.625,1.872189 c -6.24726,2.079296 -9.1222,2.417986 -6.25,0.736296 z m 106.01562,-4.680049 c 0.90234,-0.361088 1.98048,-0.31668 2.39584,0.09869 0.41536,0.415365 -0.32292,0.710801 -1.64062,0.656525 -1.45619,-0.05997 -1.75238,-0.356176 -0.75522,-0.755209 z m -7.57812,-1.223958 c 0.85937,-0.346765 2.26562,-0.346765 3.125,0 0.85937,0.346766 0.15625,0.630482 -1.5625,0.630482 -1.71875,0 -2.42188,-0.283716 -1.5625,-0.630482 z M 306.25,82.5 c 0,-0.6875 1.6875,-1.25 3.75,-1.25 2.0625,0 3.75,0.5625 3.75,1.25 0,0.6875 -1.6875,1.25 -3.75,1.25 -2.0625,0 -3.75,-0.5625 -3.75,-1.25 z"
       id="path3532"
       inkscape:connector-curvature="0" />
  </g>
</svg>
