<?xml version="1.0" standalone="no"?>
<!DOCTYPE svg PUBLIC "-//W3C//DTD SVG 20010904//EN"
 "http://www.w3.org/TR/2001/REC-SVG-20010904/DTD/svg10.dtd">
<svg version="1.0" xmlns="http://www.w3.org/2000/svg"
 width="250.000000pt" height="250.000000pt" viewBox="0 0 250.000000 250.000000"
 preserveAspectRatio="xMidYMid meet">
<metadata>
Created by potrace 1.11, written by Peter Selinger 2001-2013
</metadata>
<g transform="translate(0.000000,250.000000) scale(0.100000,-0.100000)"
fill="#000000" stroke="none">
<path d="M1008 2185 c-4 -4 -92 -15 -157 -20 -31 -3 -65 -6 -76 -9 -11 -2 -40
-7 -65 -11 -42 -7 -71 -13 -95 -19 -32 -8 -116 -54 -159 -87 -64 -48 -131
-147 -149 -219 -8 -33 -13 -102 -13 -172 l2 -117 -36 -15 c-52 -22 -74 -30
-85 -32 -5 -1 -13 -3 -17 -4 -16 -5 -28 -8 -43 -9 -8 0 -15 -5 -15 -9 0 -17
66 -45 132 -56 l71 -12 4 -63 c5 -98 60 -181 153 -233 25 -14 44 -30 43 -34
-2 -5 -11 -32 -21 -61 -16 -44 -18 -80 -17 -240 1 -103 6 -206 12 -228 6 -22
14 -52 17 -67 8 -37 51 -85 97 -108 93 -48 208 -73 354 -77 273 -7 870 -2 910
8 22 5 51 12 65 15 50 10 152 64 185 99 43 44 59 76 75 146 l12 55 69 18 c63
16 149 65 149 85 0 5 -19 11 -42 15 -47 7 -139 35 -150 45 -3 3 -9 71 -13 151
-7 172 -10 199 -30 265 -17 56 -33 77 -87 118 -34 27 -36 31 -31 70 8 59 8
350 1 422 -14 129 -72 227 -165 280 -44 24 -117 53 -158 61 -60 12 -136 24
-185 30 -30 3 -66 8 -80 11 -26 5 -457 13 -462 8z"/>
</g>
</svg>
