<?xml version="1.0" encoding="UTF-8" standalone="no"?>
<!-- Created with Inkscape (http://www.inkscape.org/) -->

<svg
   xmlns:dc="http://purl.org/dc/elements/1.1/"
   xmlns:cc="http://creativecommons.org/ns#"
   xmlns:rdf="http://www.w3.org/1999/02/22-rdf-syntax-ns#"
   xmlns:svg="http://www.w3.org/2000/svg"
   xmlns="http://www.w3.org/2000/svg"
   xmlns:sodipodi="http://sodipodi.sourceforge.net/DTD/sodipodi-0.dtd"
   xmlns:inkscape="http://www.inkscape.org/namespaces/inkscape"
   id="svg3912"
   version="1.1"
   inkscape:version="0.91 r13725"
   width="625"
   height="625"
   viewBox="0 0 625 625"
   sodipodi:docname="close.svg">
  <metadata
     id="metadata3918">
    <rdf:RDF>
      <cc:Work
         rdf:about="">
        <dc:format>image/svg+xml</dc:format>
        <dc:type
           rdf:resource="http://purl.org/dc/dcmitype/StillImage" />
        <dc:title></dc:title>
      </cc:Work>
    </rdf:RDF>
  </metadata>
  <defs
     id="defs3916" />
  <sodipodi:namedview
     pagecolor="#ffffff"
     bordercolor="#666666"
     borderopacity="1"
     objecttolerance="10"
     gridtolerance="10"
     guidetolerance="10"
     inkscape:pageopacity="0"
     inkscape:pageshadow="2"
     inkscape:window-width="640"
     inkscape:window-height="480"
     id="namedview3914"
     showgrid="false"
     inkscape:zoom="0.3776"
     inkscape:cx="-18.538136"
     inkscape:cy="312.5"
     inkscape:window-x="0"
     inkscape:window-y="0"
     inkscape:window-maximized="0"
     inkscape:current-layer="svg3912" />
  <g
     id="g3922">
    <path
       style="fill:#fdfdfd"
       d="M 0,312.5 0,0 312.5,0 625,0 625,312.5 625,625 312.5,625 0,625 0,312.5 Z"
       id="path3938"
       inkscape:connector-curvature="0" />
    <path
       style="fill:#d2cece"
       d="M 0,312.5 0,0 312.5,0 625,0 625,312.5 625,625 312.5,625 0,625 0,312.5 Z m 351.72321,225.09259 c 23.18675,-4.6803 61.77794,-19.03155 60.57776,-22.52758 -0.23428,-0.68245 -11.39472,-13.07876 -24.80097,-27.54737 l -24.375,-26.30655 -10.0675,-3.10645 c -25.1934,-7.77377 -52.63686,-10.93206 -73.88604,-8.5031 l -8.95355,1.02346 -30.73395,32.36193 C 222.58029,500.78597 208.75,515.75457 208.75,516.25048 c 0,1.47055 19.48569,9.93522 33.25124,14.44448 10.86757,3.55995 29.12515,7.64974 43.62376,9.77191 2.0625,0.30189 14.71875,0.39627 28.125,0.20972 19.11207,-0.26594 27.31105,-0.93183 37.97321,-3.084 z M 339.87777,436.55388 c -3.71402,-3.95788 -11.47462,-12.23731 -17.24576,-18.39874 l -10.49298,-11.20261 -14.44915,14.96123 -14.44914,14.96124 20.56712,0.86975 c 13.27418,0.56134 24.11306,1.72673 30.56714,3.28655 5.5,1.32925 10.5075,2.48474 11.12777,2.56775 0.62028,0.083 -1.91097,-3.08731 -5.625,-7.04517 z M 180.78974,383.65874 c 29.47188,-30.9877 53.74101,-57.00835 53.93139,-57.82368 0.19036,-0.81531 -4.02839,-6.18855 -9.375,-11.94051 l -9.72113,-10.45813 -8.75,2.7875 c -10.78481,3.43574 -37.38543,4.89889 -47.58121,2.61717 -9.10244,-2.03704 -17.30027,-7.76585 -20.46359,-14.30042 -2.98885,-6.17413 -3.34135,-11.48112 -0.8267,-12.44608 2.14921,-0.82473 4.20624,0.83627 8.79772,7.10397 5.45494,7.44636 11.33725,9.4915 27.39335,9.52399 12.209,0.0247 25.66479,-2.09016 30.37559,-4.77416 1.57395,-0.89677 -83.8951,-93.32339 -86.29831,-93.32339 -1.82784,0 -12.20766,20.86147 -17.10359,34.375 -9.245116,25.51795 -13.62246,51.02374 -13.62246,79.375 0,34.8322 6.637961,65.72826 20.80647,96.84266 C 114.39033,424.47741 123.69006,440 125.59604,440 c 0.88464,0 25.7218,-25.35358 55.1937,-56.34126 z m 321.98311,44.77468 c 28.90936,-50.52851 37.39644,-113.67895 22.95068,-170.77081 -4.82289,-19.0608 -16.8741,-49.65854 -20.42215,-51.85135 -0.69857,-0.43174 -21.89814,20.87017 -47.11017,47.33755 -34.26278,35.96881 -45.33316,48.31705 -43.83303,48.8927 2.6427,1.0141 18.01105,-0.48739 27.78405,-2.71451 11.54596,-2.63114 22.89203,-7.6198 27.50986,-12.09556 3.56486,-3.4552 4.5352,-3.81123 7.53245,-2.76371 2.67076,0.93341 3.5295,2.12507 3.83845,5.32662 0.56569,5.8621 -5.76589,11.46069 -18.52644,16.38168 -17.14171,6.61053 -25.17144,8.07535 -44.6215,8.13998 l -17.74996,0.059 -5.09856,4.97637 c -2.80422,2.737 -4.94174,5.61482 -4.75005,6.39516 0.50303,2.0478 103.8556,112.82704 105.34852,112.91862 0.6875,0.0421 3.90404,-4.5621 7.14785,-10.23172 z M 371.64187,183.125 c 30.72103,-32.3125 55.8568,-59.44607 55.85728,-60.29682 0.002,-3.64438 -28.11304,-17.76717 -48.97409,-24.600742 C 353.69889,90.094986 340.34331,88.126262 310,88.126262 c -30.45563,0 -43.44189,1.927624 -68.97895,10.238934 -12.50181,4.068844 -43.81179,18.642694 -44.05056,20.504204 -0.0525,0.40941 25.98748,28.6653 57.86667,62.79085 37.31338,39.94266 58.49407,61.72019 59.45523,61.1306 0.82118,-0.50371 26.62845,-27.35335 57.34948,-59.66585 z"
       id="path3936"
       inkscape:connector-curvature="0" />
    <path
       style="fill:#ec93a4"
       d="M 0,312.5 0,0 312.5,0 625,0 625,312.5 625,625 312.5,625 0,625 0,312.5 Z m 602.66625,294.08375 c 1.71189,-1.71189 2.73181,-176.30906 1.2607,-215.81336 -0.73948,-19.85754 -1.56788,-36.32798 -1.84088,-36.60098 -0.27299,-0.273 -14.45991,-0.61967 -31.52646,-0.77039 l -31.0301,-0.27402 -3.40295,13.75 c -5.83347,23.57081 -18.12575,53.4453 -30.67075,74.54057 l -3.44355,5.79057 8.58531,9.5926 c 7.6386,8.53477 8.45808,9.9364 7.43138,12.71045 -0.63468,1.71482 -17.43925,18.27677 -37.34351,36.80433 C 453.14925,531.94514 443.74122,540 441.33983,540 c -2.24269,0 -5.77032,-2.59684 -12.18957,-8.97324 l -9.03352,-8.97323 -13.49586,6.33385 c -43.20975,20.27907 -92.72784,26.00673 -142.50708,16.48353 -14.98742,-2.86722 -41.80659,-11.7981 -54.25549,-18.06726 l -8.7731,-4.41806 -12.1051,12.55876 c -8.33791,8.65039 -12.98541,12.55828 -14.93377,12.55721 -1.99603,-0.001 -13.67834,-10.3458 -39.6875,-35.14327 C 105.12963,484.49077 97.5,476.56574 97.5,474.07234 c 0,-2.2608 2.98535,-6.19504 10.625,-14.00214 5.84375,-5.97182 10.625,-11.23222 10.625,-11.68976 0,-0.45754 -2.0706,-4.06876 -4.60133,-8.02493 -12.73714,-19.91136 -26.4189,-54.80007 -31.815335,-81.12965 L 79.484606,345.32671 49.891475,344.22586 20.298344,343.125 19.554074,388.75 c -0.409348,25.09375 -0.33585,84.4375 0.163329,131.875 l 0.907597,86.25 70,0.74297 c 96.60647,1.02538 510.81828,0.18876 512.04125,-1.03422 z m -248.1507,-68.31926 c 8.32731,-1.76738 20.13981,-4.96133 26.25,-7.09765 14.51415,-5.07464 34.57564,-14.54054 34.03474,-16.05911 -0.23392,-0.65669 -11.31298,-12.90269 -24.62014,-27.21335 -15.89585,-17.09454 -25.81539,-26.76452 -28.91933,-28.19174 -6.92753,-3.18536 -31.67636,-9.33051 -44.49977,-11.04934 -11.45709,-1.53567 -44.13889,-0.83484 -47.297,1.01426 -3.50235,2.05064 -63.0826,65.78385 -62.45165,66.80475 2.21184,3.57883 33.09921,15.8667 49.93271,19.86465 21.69529,5.15263 31.33361,6.09365 57.42989,5.60708 20.87505,-0.38921 27.49816,-0.99634 40.14055,-3.67955 z M 332.31657,425.9375 c -9.86786,-10.48438 -18.8482,-19.23206 -19.9563,-19.4393 -1.85458,-0.34685 -31.11027,28.84986 -31.11027,31.04756 0,0.48914 9.70312,1.19265 21.5625,1.56335 15.70934,0.49105 24.10735,1.34478 30.9375,3.14504 18.65811,4.91781 18.669,5.0417 -1.43343,-16.31665 z M 189.21685,376.26231 c 29.4886,-31.04751 47.74574,-51.1946 47.22896,-52.11802 -0.46333,-0.82793 -5.0005,-6.08799 -10.08258,-11.68903 -10.37279,-11.43199 -8.3381,-10.94157 -25.73823,-6.20356 -8.4317,2.29594 -12.55436,2.65635 -26.28739,2.29814 -14.44816,-0.37687 -16.9739,-0.77837 -22.36672,-3.55544 -7.41479,-3.81831 -13.0547,-10.50174 -14.05291,-16.65304 -1.06379,-6.55532 1.73465,-6.02165 8.11752,1.54807 7.55183,8.95601 12.49709,10.49661 31.67616,9.86804 16.09559,-0.52749 30.23448,-3.75378 29.5208,-6.73621 -0.547,-2.2859 -87.36251,-94.89626 -88.95838,-94.89626 -1.97199,0 -11.46316,18.68862 -17.13482,33.7394 -19.922511,52.86799 -20.044154,111.2586 -0.3421,164.21593 5.15278,13.85021 15.09112,33.81966 20.65113,41.49503 l 3.81364,5.26457 7.94176,-7.98247 c 4.36797,-4.39035 29.5739,-30.75817 56.01316,-58.59515 z m 311.25711,58.42519 c 10.26721,-16.06965 20.62575,-40.70585 26.30386,-62.55972 9.29948,-35.79174 9.29948,-79.71382 0,-115.50555 C 520.98604,234.33084 508.12455,203.75 504.54116,203.75 c -2.7525,0 -93.60828,96.12061 -92.8135,98.19179 2.50976,6.54035 48.90848,-4.03833 58.39776,-13.31439 4.02844,-3.93794 6.0504,-4.45158 8.37458,-2.1274 4.91357,4.91357 -2.64256,13.20517 -17.17183,18.84317 -16.07423,6.23753 -24.22852,7.66669 -44.08422,7.72648 l -18.38105,0.0554 -5.71638,5.60704 c -3.14401,3.08388 -5.56005,6.21478 -5.36896,6.95755 0.44524,1.73068 106.27931,115.3641 107.55046,115.4763 0.52417,0.0462 2.83984,-2.86901 5.14594,-6.47839 z M 368.1494,188.125 c 29.3798,-30.9375 55.45583,-58.39898 57.94671,-61.0255 l 4.52889,-4.7755 -3.125,-2.55334 c -4.75691,-3.88672 -34.21483,-17.89662 -46.74806,-22.232929 -6.11768,-2.116626 -18.21143,-5.364364 -26.875,-7.217192 -14.45698,-3.091834 -18.06409,-3.36878 -43.87694,-3.36878 -25.81285,0 -29.41996,0.276946 -43.87694,3.36878 -8.66357,1.852829 -20.75732,5.100566 -26.875,7.217192 C 225.7829,102.19648 195,117.01064 195,118.83197 c 0,2.12129 116.61821,126.28697 118.24539,125.89815 0.81741,-0.19531 25.52421,-25.66762 54.90401,-56.60512 z"
       id="path3934"
       inkscape:connector-curvature="0" />
    <path
       style="fill:#c37785"
       d="M 0,312.5 0,0 312.5,0 625,0 625,312.5 625,625 312.5,625 0,625 0,312.5 Z m 602.66625,294.08375 c 1.71189,-1.71189 2.73181,-176.30906 1.2607,-215.81336 -0.73948,-19.85754 -1.56788,-36.32798 -1.84088,-36.60098 -0.27299,-0.273 -14.45991,-0.61967 -31.52646,-0.77039 l -31.0301,-0.27402 -3.40295,13.75 c -5.87672,23.74556 -17.76601,52.96774 -29.22546,71.83204 -2.4206,3.98473 -4.4011,7.90512 -4.4011,8.71196 0,0.80684 3.375,5.38832 7.5,10.18109 4.125,4.79276 7.5,9.53453 7.5,10.53728 0,2.49402 -2.68822,5.19449 -35.625,35.78725 -35.8975,33.3428 -37.63401,34.82538 -40.79004,34.82538 -1.47645,0 -6.17416,-3.47176 -10.99407,-8.125 -4.62883,-4.46875 -9.08662,-8.125 -9.90621,-8.125 -0.81959,0 -5.88454,2.20945 -11.25543,4.90988 -22.7799,11.45351 -51.59573,18.95809 -81.83317,21.31206 -38.77809,3.01883 -81.10834,-4.80429 -116.2392,-21.48238 l -11.01813,-5.23076 -11.48187,12.13122 c -7.94042,8.38948 -12.35103,12.12795 -14.29978,12.1206 -1.97229,-0.008 -13.47616,-10.16316 -38.33526,-33.84272 -19.53456,-18.60765 -35.844629,-34.6849 -36.244606,-35.72723 -1.561492,-4.06918 -0.386895,-6.09482 9.272766,-15.99124 5.5,-5.6348 10,-10.8989 10,-11.69799 0,-0.79909 -2.0706,-4.68976 -4.60133,-8.64593 -12.73714,-19.91136 -26.4189,-54.80007 -31.815335,-81.12965 L 79.484606,345.32671 49.891475,344.22586 20.298344,343.125 19.554074,388.75 c -0.409348,25.09375 -0.33585,84.4375 0.163329,131.875 l 0.907597,86.25 70,0.74297 c 96.60647,1.02538 510.81828,0.18876 512.04125,-1.03422 z m -248.1507,-68.31926 c 28.13189,-5.97069 47.39774,-14.02409 71.48791,-29.88297 27.42869,-18.05667 43.62988,-33.05936 62.87032,-58.21947 C 501.51137,433.63626 502.23021,432.5397 508.64605,420 538.09421,362.44375 541.96399,293.66354 519.18581,232.66967 514.52762,220.1963 507.96141,206.67802 503.92437,201.25 c -1.2783,-1.71875 -6.03113,-8.75 -10.56186,-15.625 -13.86016,-21.03168 -33.31675,-41.31939 -53.98751,-56.29373 -2.75,-1.99214 -7.09956,-5.45884 -9.66571,-7.70374 -5.7407,-5.02207 -33.9146,-18.88523 -48.95735,-24.089799 -6.11768,-2.116626 -18.21143,-5.364363 -26.875,-7.217192 -14.45698,-3.091834 -18.06409,-3.36878 -43.87694,-3.36878 -25.81285,0 -29.41996,0.276946 -43.87694,3.36878 -8.66357,1.852829 -20.75732,5.109976 -26.875,7.238104 -14.82827,5.158237 -40.13509,17.377427 -45.5339,21.985677 -2.38654,2.03707 -7.43291,5.86922 -11.21416,8.51589 -20.91889,14.64207 -41.04151,35.28115 -55.83916,57.2723 -4.51787,6.71413 -8.72453,12.52283 -9.34811,12.90823 -1.9104,1.18068 -11.74101,21.6967 -16.49724,34.42893 -22.458619,60.12079 -18.944731,128.66032 9.50793,185.45533 5.36601,10.71123 12.84404,22.9439 15.27948,24.9944 0.82023,0.69057 4.20349,4.91185 7.51835,9.3806 16.11722,21.7275 34.20136,38.34248 60.57334,55.65233 18.33162,12.03237 23.90456,14.94335 40.38977,21.09722 26.92892,10.05247 47.50551,13.30577 80.29064,12.69449 20.87505,-0.38922 27.49816,-0.99634 40.14055,-3.67955 z m 7.97412,-78.22248 C 332.38799,450.00496 321.77321,448.10985 296.25,448.21586 c -24.04531,0.0999 -36.74111,2.07432 -58.65804,9.1224 -6.38304,2.05268 -12.38997,3.43111 -13.34874,3.0632 -5.70358,-2.18866 2.64434,-10.62196 15.14372,-15.29857 14.64148,-5.47808 25.07728,-6.62319 55.32606,-6.07085 29.64011,0.54122 38.37325,1.80347 67.44815,9.74869 4.96988,1.35809 10.03238,2.47241 11.25,2.47624 3.93576,0.0125 11.45223,2.53498 13.42168,4.50443 2.46547,2.46547 2.44577,6.03142 -0.0471,8.52431 -2.75209,2.7521 -3.93477,2.54553 -24.29604,-4.2437 z M 403.75,312.40907 c -12.11438,-1.53535 -32.05331,-11.01821 -40.5688,-19.29432 -6.87742,-6.68409 -10.32681,-13.65444 -8.09055,-16.34898 2.23996,-2.69898 3.10144,-2.29865 11.32796,5.26424 11.93346,10.97078 38.45483,21.71999 53.58938,21.71999 15.3707,0 43.25432,-8.4137 50.11743,-15.1226 4.02844,-3.93794 6.05041,-4.45158 8.37458,-2.1274 6.80321,6.80321 -9.21928,18.2431 -33.84534,24.1652 -10.1221,2.43417 -29.08065,3.24242 -40.90466,1.74387 z m -247.5,-5.5798 c -9.89702,-3.07308 -18.75,-12.73141 -18.75,-20.45568 0,-4.27084 3.01786,-3.02775 8.5355,3.51583 7.66154,9.08614 12.51937,10.55705 32.3487,9.79488 11.35211,-0.43634 17.80461,-1.29556 22.2435,-2.96198 10.16776,-3.81707 30.71332,-15.13397 39.71766,-21.87726 6.08363,-4.55597 9.06439,-6.05414 10.8916,-5.4742 3.72128,1.18109 5.30289,4.87535 3.64505,8.51391 -2.26447,4.96998 -29.78606,22.12287 -39.25701,24.46703 -2.75,0.68065 -9.21875,2.38905 -14.375,3.79645 -11.37156,3.10386 -35.9969,3.47654 -45,0.68102 z"
       id="path3932"
       inkscape:connector-curvature="0" />
    <path
       style="fill:#8e8d8d"
       d="M 0,312.5 0,0 312.5,0 625,0 625,312.5 625,625 312.5,625 0,625 0,312.5 Z m 602.66625,294.08375 c 1.71189,-1.71189 2.73181,-176.30906 1.2607,-215.81336 -0.73948,-19.85754 -1.56788,-36.32798 -1.84088,-36.60098 -0.27299,-0.273 -14.45991,-0.61967 -31.52646,-0.77039 l -31.0301,-0.27402 -3.40295,13.75 c -4.6589,18.82481 -10.94126,35.74338 -20.42313,55 -9.05319,18.38603 -15.6811,28.71706 -28.96802,45.153 -30.8828,38.20207 -78.95376,67.26691 -127.98541,77.38297 -60.95862,12.57682 -124.8323,0.64494 -175.625,-32.8075 C 162.45127,497.98761 150.2505,487.22599 135.24931,469.375 109.60441,438.85831 90.506889,399.10519 82.333335,359.22586 L 79.484606,345.32671 49.891475,344.22586 20.298344,343.125 19.554074,388.75 c -0.409348,25.09375 -0.33585,84.4375 0.163329,131.875 l 0.907597,86.25 70,0.74297 c 96.60647,1.02538 510.81828,0.18876 512.04125,-1.03422 z M 354.51555,538.26449 C 421.30346,524.08947 477.41831,481.03245 508.64589,420 542.4713,353.8902 542.26505,273.2441 508.10345,207.90711 485.21681,164.13445 451.96289,131.1703 409.375,110.03897 388.33321,99.598419 374.83649,94.803043 353.87694,90.320539 339.41996,87.228705 335.81285,86.951759 310,86.951759 c -25.81285,0 -29.41996,0.276946 -43.87694,3.36878 -20.95955,4.482504 -34.45627,9.27788 -55.49806,19.718431 C 134.1866,147.9663 86.25,226.72147 86.25,314.375 c 0,114.39419 79.45474,207.91321 192.23575,226.26341 17.81691,2.89893 56.94174,1.67731 76.0298,-2.37392 z M 368.125,461.1121 c -43.1366,-12.45496 -54.49234,-14.31036 -80.45626,-13.14566 -22.77773,1.02178 -32.42991,2.53901 -48.4056,7.60889 -7.04991,2.23728 -13.44349,3.68124 -14.20793,3.2088 -3.98107,-2.46044 4.37607,-8.82132 17.36209,-13.21479 15.11036,-5.1122 24.03762,-6.14528 53.2077,-6.15726 29.59342,-0.0125 32.61965,0.44317 64.375,9.68635 5.84375,1.70096 13.15625,3.47185 16.25,3.93529 9.48809,1.42133 13.97665,6.23963 9.75,10.46628 -1.99697,1.99698 -3.2837,1.82509 -17.875,-2.3879 z M 406.25,312.57554 c -14.32374,-2.11775 -34.9176,-12.52446 -43.61362,-22.03929 -10.79766,-11.81435 -8.74443,-17.63572 2.61727,-7.42059 11.76644,10.57904 30.88655,18.58059 47.87135,20.03361 18.37769,1.57218 48.34721,-6.0631 57.00042,-14.52187 4.02844,-3.93794 6.05041,-4.45158 8.37458,-2.1274 6.80321,6.80321 -9.21928,18.2431 -33.84534,24.1652 -9.57021,2.30146 -29.16634,3.27621 -38.40466,1.91034 z m -250,-5.74627 c -9.89702,-3.07308 -18.75,-12.73141 -18.75,-20.45568 0,-4.27084 3.01786,-3.02775 8.5355,3.51583 7.6612,9.08574 12.51932,10.55685 32.3487,9.79569 12.76281,-0.4899 17.75712,-1.24105 24.7408,-3.72106 12.24146,-4.34713 23.21701,-10.06908 35.77296,-18.64971 10.62513,-7.26114 13.80747,-8.08945 15.37591,-4.00214 1.23378,3.21519 -1.54081,6.45609 -10.8733,12.70072 -17.8885,11.9697 -27.79206,16.62722 -44.206,20.78947 -9.75576,2.47387 -35.01301,2.48968 -42.94457,0.0269 z"
       id="path3930"
       inkscape:connector-curvature="0" />
    <path
       style="fill:#85565e"
       d="M 0,312.5 0,0 312.5,0 625,0 625,312.5 625,625 312.5,625 0,625 0,312.5 Z m 604.14454,295.07944 c 0.56075,-0.54644 1.12325,-48.45973 1.25,-106.47398 C 605.66668,376.54989 604.03982,20.230209 603.19274,18.859604 601.78981,16.589627 263.63111,15.583141 95,17.347032 L 20.625,18.125 l -0.911646,82.5 c -1.439492,130.26776 -1.645562,505.44715 -0.278353,506.78075 3.220788,3.1416 581.487599,3.31337 584.709539,0.17369 z M 287.5,546.89466 c -8.59375,-0.85897 -20.36151,-2.53702 -26.15059,-3.72898 -13.39354,-2.75773 -40.14512,-11.89829 -51.3775,-17.55482 -4.76272,-2.39847 -9.40632,-4.36086 -10.3191,-4.36086 -2.1811,0 -25.7304,-15.38946 -35.27781,-23.05405 -16.30583,-13.09019 -39.92419,-39.4717 -43.93822,-49.07863 -0.94877,-2.27071 -3.77058,-7.32627 -6.27069,-11.23458 -17.662345,-27.61069 -30.185866,-67.76051 -32.97716,-105.72325 -3.409617,-46.37218 3.388886,-84.1431 22.27519,-123.75584 l 8.21068,-17.22135 -4.2749,-4.64599 c -2.35119,-2.55529 -8.071775,-8.66761 -12.7124,-13.58292 -8.21737,-8.70378 -9.239566,-10.65877 -7.687671,-14.70294 0.412406,-1.07471 17.010931,-17.15198 36.885621,-35.72724 C 153.87997,94.489745 160.63376,88.75 163.62536,88.75 c 2.9444,0 5.48408,2.059244 13.87464,11.25 5.64879,6.1875 11.14099,11.25 12.2049,11.25 1.06391,0 8.45616,-3.3247 16.42724,-7.38823 37.23701,-18.982822 79.74735,-27.329686 121.64947,-23.885756 34.1013,2.802781 57.88114,9.59597 88.7522,25.353846 l 19.65883,10.03467 8.46667,-8.93227 c 4.65668,-4.91274 9.37349,-8.93226 10.4818,-8.93226 3.05564,0 7.8427,4.20602 44.00129,38.66051 26.31715,25.07688 33.3576,32.4468 33.3576,34.91868 0,2.24821 -3.01757,6.21685 -10.68389,14.0512 l -10.68388,10.91803 1.80383,4.16329 c 0.99211,2.28982 4.03039,8.94454 6.75171,14.78829 15.96993,34.29358 22.31942,72.56055 19.17562,115.56704 -0.80645,11.03188 -2.62098,25.68296 -4.0323,32.55796 -5.09919,24.83978 -16.3,54.01659 -28.21698,73.50195 -2.60623,4.26142 -5.64206,9.73786 -6.7463,12.16986 -2.9251,6.44238 -20.65806,28.03748 -31.15271,37.9376 -11.18015,10.54678 -32.52324,26.50406 -41.43814,30.98145 -36.87426,18.5196 -65.21431,26.93663 -100.15755,29.7469 -18.5903,1.49512 -19.04242,1.48863 -39.61941,-0.5681 z m 65.71188,-7.427 c 44.22856,-9.2193 80.30616,-29.06078 113.69478,-62.5284 14.95475,-14.99012 29.9124,-34.03268 38.65364,-49.20988 11.24482,-19.52415 21.19636,-47.27683 25.92251,-72.29225 4.04104,-21.38923 4.04104,-60.73503 0,-82.12425 -5.80549,-30.72839 -16.05164,-56.55214 -32.17045,-81.08047 C 480.27418,163.26164 464.40153,146.34115 437.53662,126.37855 413.02229,108.1626 385.3825,96.035 352.57295,89.098769 338.51327,86.126426 334.13549,85.774555 310.625,85.727135 280.18211,85.665735 266.73109,87.73107 240,96.571248 c -16.5135,5.461142 -39.94516,16.622282 -48.19553,22.956842 -2.71121,2.08165 -9.38391,7.06185 -14.82822,11.06711 -20.58418,15.14331 -37.75679,33.78788 -55.70191,60.47641 -52.14299,77.54866 -47.725741,186.83846 10.60066,262.27725 28.04359,36.27129 66.29584,64.42209 106.44535,78.33581 26.43802,9.16205 46.32412,12.10002 77.30465,11.42097 17.79229,-0.38998 25.65665,-1.15117 37.58687,-3.63798 z m 19.80388,-76.95659 c -4.18507,-1.21304 -8.81317,-2.84987 -10.28466,-3.63738 -5.31069,-2.8422 -36.57675,-10.07715 -49.81824,-11.52793 -21.92825,-2.4025 -51.50182,0.99122 -74.98696,8.60513 -11.26247,3.65131 -14.9304,3.70513 -13.57366,0.19917 1.84402,-4.76518 18.74645,-12.11388 33.99294,-14.77917 10.94138,-1.9127 43.49357,-2.72635 55.46837,-1.38644 11.45743,1.28201 29.04746,4.82973 46.81145,9.44133 6.1875,1.60631 13.5,3.27798 16.25,3.71486 8.95647,1.42283 13.22059,6.26377 9.125,10.35936 -1.87942,1.87942 -3.51923,1.75452 -12.98424,-0.98893 z m 29.24121,-151.16814 c -4.43497,-0.62189 -12.0199,-3.39234 -20.12256,-7.34994 -10.21296,-4.98833 -14.35102,-7.8251 -19.27715,-13.21507 -3.44993,-3.77477 -6.5855,-8.05969 -6.96791,-9.52205 -1.30339,-4.98417 2.66326,-4.16606 9.4092,1.94065 7.64919,6.92437 25.49516,15.8424 37.24354,18.61143 10.14386,2.39085 28.25602,2.45396 38.09685,0.13274 12.24242,-2.88772 25.11072,-8.14599 29.47861,-12.04564 4.57061,-4.08064 6.38893,-4.47333 8.56614,-1.84995 4.52015,5.44645 -8.99808,14.72095 -30.31509,20.79836 -10.0706,2.8711 -34.15224,4.17644 -46.11162,2.49947 z M 163.8578,307.47654 c -9.38049,-1.31028 -18.05989,-6.13786 -22.27172,-12.38779 C 139.0026,291.25513 137.6984,285 139.48255,285 c 0.40291,0 3.63729,3.04681 7.1875,6.77069 4.75213,4.98456 7.93883,7.16645 12.07995,8.27096 7.33196,1.95558 32.24001,0.81281 40.62225,-1.86371 9.06174,-2.89349 27.11684,-12.43474 39.52571,-20.88743 10.6248,-7.23741 13.80912,-8.06131 15.37592,-3.97831 0.39443,1.0279 0.11762,2.98917 -0.61518,4.35839 -1.53036,2.85951 -19.74355,15.0981 -29.9087,20.09753 -16.26495,7.99945 -42.1211,12.19068 -59.8922,9.70842 z"
       id="path3928"
       inkscape:connector-curvature="0" />
    <path
       style="fill:#635e5f"
       d="M 0,312.5 0,0 312.5,0 625,0 625,312.5 625,625 312.5,625 0,625 0,312.5 Z m 604.14454,295.07944 c 0.56075,-0.54644 1.12325,-48.45973 1.25,-106.47398 C 605.66668,376.54989 604.03982,20.230209 603.19274,18.859604 601.78981,16.589627 263.63111,15.583141 95,17.347032 L 20.625,18.125 l -0.911646,82.5 c -1.439492,130.26776 -1.645562,505.44715 -0.278353,506.78075 3.220788,3.1416 581.487599,3.31337 584.709539,0.17369 z M 287.5,546.89466 c -20.9121,-2.09023 -33.52519,-4.8169 -52.76168,-11.40591 C 158.55895,509.3953 102.63998,445.34821 85.608292,364.68186 c -6.096228,-28.87327 -6.788374,-66.75791 -1.768134,-96.77899 5.926567,-35.44093 23.324102,-73.38728 47.324972,-103.2221 10.93802,-13.59675 34.12396,-35.34426 47.72577,-44.76492 58.94203,-40.823461 135.342,-51.715803 204.2341,-29.117651 18.40591,6.037552 47.74916,21.130671 63.46105,32.642091 14.75432,10.80986 35.99952,31.73328 46.00649,45.30971 35.84957,48.63699 50.73819,100.70497 46.27085,161.81704 -2.49013,34.06426 -9.30148,60.05828 -23.27082,88.80796 -16.99692,34.9806 -42.23532,64.96267 -73.71757,87.57314 -12.87711,9.2483 -41.12684,23.68135 -57.1634,29.20531 -14.98341,5.16119 -38.45451,9.77019 -57.59219,11.30931 -18.5903,1.49512 -19.04242,1.48863 -39.61941,-0.5681 z m 65.71188,-7.427 c 91.65221,-19.1046 160.54871,-90.22702 178.27093,-184.03054 4.04104,-21.38922 4.04104,-60.73502 0,-82.12425 C 513.70592,179.21999 445.25015,108.73155 352.57295,89.090614 338.35805,86.078071 334.336,85.76377 310,85.76377 c -24.336,0 -28.35805,0.314301 -42.57295,3.326844 C 173.70594,108.95278 105.45066,180.11441 87.911541,276.25 c -1.609562,8.82235 -2.166493,18.62297 -2.166493,38.125 0,28.27357 1.348078,39.21896 7.620775,61.875 24.790187,89.53847 99.714037,154.69406 191.191937,166.26514 4.71198,0.59601 18.69224,0.86175 31.06724,0.5905 17.79229,-0.38998 25.65665,-1.15117 37.58688,-3.63798 z M 370.625,460.68199 c -26.92855,-7.64695 -44.90058,-11.86706 -56.49029,-13.26482 -23.78107,-2.86806 -63.69026,1.73317 -82.11171,9.46687 -6.48183,2.72121 -8.39369,0.74155 -3.36791,-3.48735 8.4499,-7.11013 25.38021,-11.36313 53.40156,-13.41482 23.2708,-1.70385 37.96232,-0.33164 61.06835,5.70384 8.9375,2.33455 19.90625,5.14768 24.375,6.25139 17.0852,4.21979 18.125,4.68235 18.125,8.0629 0,4.12965 -2.46452,4.2417 -15,0.68199 z m 32.5,-149.55503 c -7.81109,-1.57933 -29.82789,-12.00639 -35.49856,-16.81194 -4.38577,-3.71664 -11.37644,-12.62829 -11.37644,-14.50257 0,-2.31175 3.03371,-0.81426 8.73514,4.3118 7.34365,6.60258 17.5923,12.1636 30.23526,16.40599 8.08351,2.71245 11.82564,3.21685 23.75,3.20128 20.2109,-0.0264 42.40325,-6.02992 51.14715,-13.83647 4.57061,-4.08064 6.38893,-4.47333 8.56614,-1.84995 4.52015,5.44645 -8.99808,14.72095 -30.31509,20.79836 -10.50259,2.99426 -35.4908,4.25545 -45.2436,2.2835 z m -239.2672,-3.64974 c -9.3805,-1.31107 -18.0603,-6.13915 -22.27173,-12.38847 C 139.0026,291.25513 137.6984,285 139.48255,285 c 0.40291,0 3.63729,3.04681 7.1875,6.77069 8.30715,8.71348 12.80152,9.99183 32.07995,9.12461 21.16051,-0.95188 35.58034,-6.16059 57.40765,-20.73669 5.79296,-3.86849 11.26677,-7.58657 12.16405,-8.26242 1.13717,-0.85655 2.29476,-0.56544 3.82116,0.96095 3.01179,3.0118 1.41835,5.18712 -9.01784,12.31096 -27.13147,18.5202 -53.42662,25.92075 -79.26722,22.30912 z"
       id="path3926"
       inkscape:connector-curvature="0" />
    <path
       style="fill:#070707"
       d="M 0,312.5 0,0 312.5,0 625,0 625,312.5 625,625 312.5,625 0,625 0,312.5 Z m 463.08444,298.15773 c 123.49771,-0.58758 140.18475,-0.8913 141.875,-2.58234 1.71122,-1.71202 1.88307,-31.94739 1.611,-283.43342 -0.16752,-154.83433 -0.64593,-287.488325 -1.06315,-294.786649 l -0.7586,-13.26968 -8.64994,-0.803926 C 584.74385,14.726389 43.276701,14.733546 29.542966,15.789215 L 18.974656,16.60156 18.139453,30.488285 C 17.680091,38.125984 17.207669,170.77663 17.089625,325.2675 16.898121,575.89911 17.081,606.36603 18.78719,608.07255 c 1.682809,1.68312 19.376545,2.03295 147.5,2.91615 80.0733,0.55197 148.11906,0.85313 151.21281,0.66926 3.09375,-0.18389 68.60675,-0.63399 145.58444,-1.00023 z M 300,546.25 c -2.74783,-0.57839 1.43632,-0.91998 11.25,-0.91844 11.9815,0.003 14.1676,0.22948 9.375,0.97595 -7.62355,1.18741 -14.80575,1.16739 -20.625,-0.0575 z m -25,-2.08463 C 250.82465,540.34248 229.91289,533.5812 205.99841,521.8555 184.13791,511.1369 168.93871,500.1751 150.5631,481.875 137.87594,469.23999 121.25,449.45514 121.25,446.99245 c 0,-0.38165 -1.89448,-3.65795 -4.20995,-7.28068 -7.35862,-11.51311 -16.79504,-31.52802 -22.050889,-46.77055 -5.78505,-16.77728 -11.297866,-42.17592 -11.118092,-51.22327 0.1023,-5.1481 0.391276,-4.34839 1.863531,5.15705 4.231269,27.31869 14.54001,58.15506 26.63489,79.67255 13.2127,23.50615 34.09368,48.78359 53.96605,65.32851 32.80508,27.31216 68.17811,43.61978 109.91446,50.67254 8.52204,1.44009 11.1523,2.19915 7.5,2.16442 -3.09375,-0.0294 -7.03125,-0.27585 -8.75,-0.54765 z m 58.125,-0.0186 c 65.11417,-8.31236 120.30833,-40.89149 158.99522,-93.84915 22.20155,-30.39123 36.12274,-64.58078 42.11126,-103.42255 1.42323,-9.23123 1.75997,-10.19593 1.87649,-5.37595 0.38077,15.74841 -10.55612,54.88215 -21.41499,76.62595 -14.59044,29.21589 -24.268,42.84819 -45.25608,63.75 -18.39618,18.32057 -33.57631,29.26271 -55.52804,40.02572 -27.83296,13.6466 -61.32081,23.43337 -78.39905,22.91199 -3.89394,-0.11887 -4.76505,-0.36215 -2.38481,-0.66601 z M 375,461.01629 c -2.40625,-0.67568 -8.75912,-2.60168 -14.11751,-4.28 -16.51152,-5.17164 -34.64983,-9.16313 -48.4328,-10.65801 -22.10284,-2.39727 -54.24784,1.16921 -76.04978,8.43768 -9.46102,3.15419 -12.69575,3.00407 -8.27295,-0.38393 4.17605,-3.19898 12.53464,-6.58293 22.77113,-9.21884 13.43607,-3.4598 47.01443,-5.42225 62.76106,-3.66799 11.64198,1.29698 36.84292,6.74874 49.46585,10.70104 3.4375,1.0763 9.31187,2.47315 13.05415,3.10412 7.0487,1.18847 10.98809,3.70425 9.51999,6.07969 -1.0013,1.62014 -4.6629,1.5812 -10.69914,-0.11375 z M 82.910175,313.125 c 0.0055,-4.8125 0.231479,-6.62807 0.502073,-4.03463 0.270595,2.59347 0.266057,6.53097 -0.01013,8.75 -0.27614,2.21906 -0.497535,0.0971 -0.49199,-4.71537 z M 535.85542,302.8125 C 533.46317,245.83614 509.93841,192.68815 468.75,151.20552 435.2059,117.42181 399.00189,97.676179 352.57295,87.842681 338.52744,84.867885 334.11181,84.510384 310.625,84.446453 c -29.65645,-0.08073 -42.99474,1.890313 -68.75,10.159388 -40.76773,13.089029 -79.79794,40.230659 -107.0047,74.411109 -7.32376,9.20102 -21.92486,31.44712 -26.23438,39.9705 C 98.419306,229.19389 89.244546,258.29555 86.248099,280 c -2.26866,16.43279 -3.797781,21.24542 -2.978728,9.375 1.784933,-25.86875 9.82094,-54.2113 23.200959,-81.82848 13.44809,-27.7577 27.02777,-46.47928 47.83305,-65.94486 14.77629,-13.82482 27.90685,-22.89263 48.45499,-33.46246 40.47984,-20.822546 81.56753,-29.284828 125.32378,-25.811255 34.35466,2.72723 56.56885,9.094832 87.93523,25.206265 24.51315,12.59125 36.12542,20.91313 54.02372,38.71579 21.0707,20.95812 32.9039,37.74649 44.93387,63.75 14.62547,31.6138 21.05148,57.8052 22.15803,90.3125 0.39199,11.51562 0.43908,20.9375 0.10463,20.9375 -0.33445,0 -0.95644,-8.29688 -1.38222,-18.4375 z m -133.25287,7.10626 c -14.54042,-2.59492 -35.48259,-14.9197 -42.79065,-25.18292 -4.12644,-5.79505 -1.72975,-5.49971 5.50123,0.67791 7.62612,6.5152 24.29061,14.87009 35.262,17.67891 10.57282,2.70679 30.52382,2.48309 42.07732,-0.4718 12.92326,-3.30522 24.74754,-8.30731 28.78809,-12.17841 3.18103,-3.04762 7.30946,-3.41489 7.30946,-0.65025 0,5.18699 -13.21573,12.90239 -30.59168,17.85954 -10.22701,2.91765 -35.00176,4.15053 -45.55577,2.26702 z m -238.39558,-3.55414 c -4.6923,-0.58606 -9.93736,-2.28765 -13.51582,-4.38477 -5.52307,-3.23674 -10.67615,-9.46556 -10.68648,-12.91735 -0.007,-2.69128 1.86727,-1.71325 4.1613,2.17025 1.21274,2.05301 4.84965,5.28739 8.08202,7.1875 5.64713,3.31961 6.53707,3.45312 22.75201,3.41317 12.70719,-0.0312 18.72736,-0.60746 24.375,-2.33278 10.63266,-3.24824 27.6326,-11.88612 39.55254,-20.09714 9.90947,-6.82613 14.19731,-7.94625 13.33802,-3.4843 -0.51206,2.65895 -15.98295,13.51805 -27.89056,19.57654 -17.84219,9.07795 -41.00561,13.26225 -60.16803,10.86888 z"
       id="path3924"
       inkscape:connector-curvature="0" />
  </g>
</svg>
