<?xml version="1.0" encoding="UTF-8" standalone="no"?>
<!-- Created with Inkscape (http://www.inkscape.org/) -->

<svg
   xmlns:dc="http://purl.org/dc/elements/1.1/"
   xmlns:cc="http://creativecommons.org/ns#"
   xmlns:rdf="http://www.w3.org/1999/02/22-rdf-syntax-ns#"
   xmlns:svg="http://www.w3.org/2000/svg"
   xmlns="http://www.w3.org/2000/svg"
   xmlns:sodipodi="http://sodipodi.sourceforge.net/DTD/sodipodi-0.dtd"
   xmlns:inkscape="http://www.inkscape.org/namespaces/inkscape"
   id="svg3634"
   version="1.1"
   inkscape:version="0.91 r13725"
   width="625"
   height="625"
   viewBox="0 0 625 625"
   sodipodi:docname="komi.svg">
  <metadata
     id="metadata3640">
    <rdf:RDF>
      <cc:Work
         rdf:about="">
        <dc:format>image/svg+xml</dc:format>
        <dc:type
           rdf:resource="http://purl.org/dc/dcmitype/StillImage" />
        <dc:title></dc:title>
      </cc:Work>
    </rdf:RDF>
  </metadata>
  <defs
     id="defs3638" />
  <sodipodi:namedview
     pagecolor="#ffffff"
     bordercolor="#666666"
     borderopacity="1"
     objecttolerance="10"
     gridtolerance="10"
     guidetolerance="10"
     inkscape:pageopacity="0"
     inkscape:pageshadow="2"
     inkscape:window-width="640"
     inkscape:window-height="480"
     id="namedview3636"
     showgrid="false"
     inkscape:zoom="0.3776"
     inkscape:cx="-18.538136"
     inkscape:cy="312.5"
     inkscape:window-x="0"
     inkscape:window-y="0"
     inkscape:window-maximized="0"
     inkscape:current-layer="svg3634" />
  <g
     id="g3644">
    <path
       style="fill:#fdfdfd"
       d="M 0,312.5 0,0 312.5,0 625,0 625,312.5 625,625 312.5,625 0,625 0,312.5 Z"
       id="path3660"
       inkscape:connector-curvature="0" />
    <path
       style="fill:#f9fcb2"
       d="M 0,312.5 0,0 312.5,0 625,0 625,312.5 625,625 312.5,625 0,625 0,312.5 Z M 326.6483,541.2364 C 460.84484,530.11764 554.81446,404.14897 528.84569,270.18567 513.23682,189.66531 456.15674,123.84281 379.78034,98.289376 260.62741,58.424103 132.68526,126.3064 96.331119,248.67907 c -12.39601,41.72655 -12.39601,89.66531 0,131.39185 26.483821,89.14791 104.441081,153.5765 194.918881,161.09275 17.11649,1.42193 19.06597,1.42593 35.3983,0.0728 z m -96.893,-123.79275 c -2.02221,-0.47837 -2.8803,-1.57919 -2.8803,-3.69504 0,-2.47686 0.95839,-3.29115 5.38041,-4.57145 8.98454,-2.60126 50.32379,-4.16056 110.52828,-4.16907 l 57.15867,-0.007 1.99266,3.04117 c 2.42442,3.70014 0.75775,7.84607 -3.53359,8.79004 -3.90173,0.85826 -165.13184,1.44376 -168.64613,0.61244 z m -42.87211,-164.4101 c -12.0258,-6.27047 -15.03443,-11.81678 -14.11315,-26.01714 1.20082,-18.5094 11.96251,-29.51641 28.85856,-29.51641 9.91571,0 17.26117,3.54545 23.0589,11.12989 3.82622,5.00536 4.0609,5.90858 4.03505,15.52978 -0.0424,15.76667 -4.79739,23.48873 -17.81219,28.92666 -5.98515,2.50074 -19.1855,2.47176 -24.02717,-0.0528 z m 8.59851,-30.6957 c 3.89854,-1.77629 6.71934,-8.0463 4.91419,-10.92315 -0.70391,-1.12184 -2.76959,-2.57056 -4.59039,-3.21939 -7.99351,-2.84844 -14.56716,10.13658 -7.0555,13.93685 3.79089,1.91788 3.02521,1.89448 6.7317,0.20569 z m 212.50682,29.62258 c -5.17677,-2.25337 -11.99278,-9.21235 -14.78373,-15.09386 -2.971,-6.26089 -2.19059,-19.06539 1.61638,-26.52087 3.17713,-6.22199 10.39112,-13.76304 14.75234,-15.42117 6.32116,-2.4033 14.52039,-1.34478 23.58675,3.04506 10.20343,4.94039 14.83485,9.48567 16.7163,16.40541 4.0614,14.93722 -2.24231,30.33691 -15.13926,36.98454 -5.57735,2.87478 -20.74219,3.21546 -26.74878,0.60088 z m 9.59365,-33.25441 c 3.64183,-1.94905 3.20475,-8.13277 -0.75837,-10.72952 -4.87554,-3.19456 -9.3238,-0.73185 -9.3238,5.16199 0,3.4383 0.63554,4.69752 2.8125,5.57256 3.7549,1.50929 4.44104,1.50881 7.26967,-0.005 z"
       id="path3658"
       inkscape:connector-curvature="0" />
    <path
       style="fill:#f5fc7d"
       d="M 0,312.5 0,0 312.5,0 625,0 625,312.5 625,625 312.5,625 0,625 0,312.5 Z m 602.89387,293.85613 c 1.57695,-1.57696 1.94649,-236.44322 0.41368,-262.91863 L 602.2401,325 l -30.34943,0 -30.34943,0 -0.85617,8.4375 c -5.17981,51.04649 -23.13352,95.50955 -53.94246,133.5905 -25.04421,30.95555 -62.34534,56.65576 -102.07356,70.32795 C 328.01906,556.85165 260.83872,552.41886 207.62666,525.6741 177.8181,510.6921 155.15816,493.06596 135.24931,469.375 104.41006,432.67719 85.538936,387.80729 79.830398,337.60536 L 78.397023,325 l -29.057987,0 -29.057985,0 -0.873383,30.3125 c -0.480362,16.67187 -0.402973,80.09375 0.171975,140.9375 L 20.625,606.875 88.75,607.61769 c 108.64745,1.18447 512.68925,0.19306 514.14387,-1.26156 z M 331.43006,541.17917 c 39.90016,-4.07118 76.9481,-18.27885 109.28993,-41.91202 20.77627,-15.18188 39.09277,-34.33731 53.68332,-56.14215 52.04434,-77.77761 52.04434,-179.72239 0,-257.5 C 462.45933,137.88634 413.63172,104.26834 358.31281,91.926149 257.11669,69.348304 154.74955,119.55792 109.35973,214.03407 c -30.418006,63.31325 -30.418006,137.3686 0,200.68185 22.55205,46.94073 58.39412,82.9835 104.73892,105.32542 37.58126,18.1172 77.12171,25.2406 117.33141,21.13783 z M 227.34087,415.43326 c -2.20422,-2.65592 0.78587,-5.10655 8.31367,-6.81377 7.37262,-1.67204 161.26172,-3.56297 164.65796,-2.02325 2.52684,1.14556 2.92225,6.26361 0.625,8.08965 -0.98171,0.78033 -33.2564,1.48622 -86.829,1.89905 -73.43929,0.56592 -85.47473,0.40617 -86.76763,-1.15168 z m -39.0443,-162.26427 c -14.01751,-4.9971 -19.40181,-19.68933 -13.24557,-36.14335 3.38895,-9.05779 6.47521,-12.74007 13.78076,-16.44207 10.42936,-5.28496 22.73646,-3.67747 31.33764,4.09318 2.74584,2.4807 5.79977,6.07159 6.78652,7.97974 2.3918,4.62523 2.3075,18.69472 -0.14723,24.57116 -5.82037,13.93354 -23.55365,21.27388 -38.51212,15.94134 z m 9.88524,-32.48718 c 7.04091,-7.0409 0.69886,-16.03151 -8.75081,-12.40534 -2.76176,1.05979 -5.97184,7.58799 -5.0929,10.35725 0.77581,2.44438 4.93259,4.89603 8.53121,5.03168 1.23438,0.0465 3.625,-1.29609 5.3125,-2.98359 z M 409.375,251.88748 c -6.40656,-2.24587 -15.15371,-11.74509 -16.9467,-18.40377 -2.93319,-10.89302 1.57145,-24.9389 10.69534,-33.349 8.66147,-7.98387 17.27038,-8.36078 31.45601,-1.37723 9.66832,4.75971 13.55269,9.28368 15.52031,18.07597 1.32556,5.92324 1.22808,8.02085 -0.7124,15.32698 -1.85725,6.99281 -3.22212,9.3856 -7.84986,13.76167 -3.08094,2.9134 -7.64044,5.86339 -10.1322,6.55553 -6.3077,1.75208 -16.09711,1.48985 -22.0305,-0.59015 z m 9.58908,-33.95622 c 2.97848,-2.69549 2.89986,-6.06732 -0.21408,-9.18126 -3.3171,-3.3171 -8.12466,-3.1904 -10.55413,0.27814 -2.57171,3.67163 -2.45452,5.46321 0.55413,8.47186 3.03975,3.03975 7.14041,3.21289 10.21408,0.43126 z"
       id="path3656"
       inkscape:connector-curvature="0" />
    <path
       style="fill:#a0a09a"
       d="M 0,312.5 0,0 312.5,0 625,0 625,312.5 625,625 312.5,625 0,625 0,312.5 Z m 603.125,293.58731 c 1.65879,-1.60932 1.58084,-585.640207 -0.0784,-587.26973 -3.37382,-3.313419 -579.029364,-3.228312 -582.421608,0.0861 -0.82629,0.807333 -1.25,100.3272 -1.25,293.59633 0,193.27676 0.423678,292.78506 1.25,293.58483 3.491263,3.3791 579.017048,3.38154 582.499998,0.003 z M 287.5,548.04398 C 234.39691,542.40659 190.12931,522.46127 153.55565,487.6937 130.87531,466.13336 116.25727,446.31685 103.159,419.375 89.336044,390.94254 83.245405,367.52601 80.96649,334.05203 77.07072,276.82875 89.281146,227.44369 118.43764,182.5 c 14.03301,-21.63139 37.37067,-45.98901 58.3671,-60.91799 23.8531,-16.96015 60.26108,-32.490169 88.19526,-37.62015 33.54606,-6.160579 60.76626,-6.03039 93.19795,0.445748 67.27084,13.433006 127.35137,60.474352 158.01007,123.717392 17.82924,36.77829 24.94227,72.84266 23.26603,117.96305 -0.94,25.30246 -3.6843,41.34419 -10.93362,63.91195 -21.90355,68.18771 -75.23884,123.24629 -141.66543,146.24269 -19.68864,6.81606 -33.55595,9.79309 -55.625,11.94153 -21.14849,2.05883 -23.09396,2.05259 -43.75,-0.14024 z m 43.93006,-6.86481 c 39.90016,-4.07118 76.9481,-18.27885 109.28993,-41.91202 20.77627,-15.18188 39.09277,-34.33731 53.68332,-56.14215 52.04434,-77.77761 52.04434,-179.72239 0,-257.5 C 462.45933,137.88634 413.63172,104.26834 358.31281,91.926149 257.11669,69.348304 154.74955,119.55792 109.35973,214.03407 c -30.418006,63.31325 -30.418006,137.3686 0,200.68185 22.55205,46.94073 58.39412,82.9835 104.73892,105.32542 37.58126,18.1172 77.12171,25.2406 117.33141,21.13783 z M 227.34087,415.43326 c -2.20422,-2.65592 0.78587,-5.10655 8.31367,-6.81377 7.37262,-1.67204 161.26172,-3.56297 164.65796,-2.02325 2.52684,1.14556 2.92225,6.26361 0.625,8.08965 -0.98171,0.78033 -33.2564,1.48622 -86.829,1.89905 -73.43929,0.56592 -85.47473,0.40617 -86.76763,-1.15168 z m -39.0443,-162.26427 c -14.01751,-4.9971 -19.40181,-19.68933 -13.24557,-36.14335 3.38895,-9.05779 6.47521,-12.74007 13.78076,-16.44207 10.42936,-5.28496 22.73646,-3.67747 31.33764,4.09318 2.74584,2.4807 5.79977,6.07159 6.78652,7.97974 2.3918,4.62523 2.3075,18.69472 -0.14723,24.57116 -5.82037,13.93354 -23.55365,21.27388 -38.51212,15.94134 z m 9.88524,-32.48718 c 7.04091,-7.0409 0.69886,-16.03151 -8.75081,-12.40534 -2.76176,1.05979 -5.97184,7.58799 -5.0929,10.35725 0.77581,2.44438 4.93259,4.89603 8.53121,5.03168 1.23438,0.0465 3.625,-1.29609 5.3125,-2.98359 z M 409.375,251.88748 c -6.40656,-2.24587 -15.15371,-11.74509 -16.9467,-18.40377 -2.93319,-10.89302 1.57145,-24.9389 10.69534,-33.349 8.66147,-7.98387 17.27038,-8.36078 31.45601,-1.37723 9.66832,4.75971 13.55269,9.28368 15.52031,18.07597 1.32556,5.92324 1.22808,8.02085 -0.7124,15.32698 -1.85725,6.99281 -3.22212,9.3856 -7.84986,13.76167 -3.08094,2.9134 -7.64044,5.86339 -10.1322,6.55553 -6.3077,1.75208 -16.09711,1.48985 -22.0305,-0.59015 z m 9.58908,-33.95622 c 2.97848,-2.69549 2.89986,-6.06732 -0.21408,-9.18126 -3.3171,-3.3171 -8.12466,-3.1904 -10.55413,0.27814 -2.57171,3.67163 -2.45452,5.46321 0.55413,8.47186 3.03975,3.03975 7.14041,3.21289 10.21408,0.43126 z"
       id="path3654"
       inkscape:connector-curvature="0" />
    <path
       style="fill:#9b9f61"
       d="M 0,312.5 0,0 312.5,0 625,0 625,312.5 625,625 312.5,625 0,625 0,312.5 Z m 589.61238,295.54969 13.98737,-0.78693 0.83388,-6.67414 C 605.66405,590.7407 604.20661,19.952975 602.94789,18.718868 599.7469,15.580456 23.952315,15.657186 20.732229,18.796452 19.2842,20.208139 18.969662,605.63229 20.416155,607.08172 c 2.032705,2.03686 534.113515,2.94169 569.196215,0.96797 z M 288.125,547.46139 C 240.93212,543.55025 190.24679,521.22294 154.6565,488.66741 128.09304,464.369 103.83299,426.72979 92.596958,392.38267 75.991102,341.62071 76.180246,282.05165 93.100247,233.87666 101.83503,209.00681 117.22197,181.6117 133.29899,162.3063 144.37291,149.00865 163.77733,130.84482 176.80474,121.58201 200.65784,104.62186 237.06582,89.091841 265,83.96186 c 33.54606,-6.160579 60.76626,-6.03039 93.19795,0.445748 67.27084,13.433006 127.35137,60.474352 158.01007,123.717392 17.71284,36.53817 24.99855,73.17715 23.23445,116.84332 -4.80226,118.86934 -92.36149,212.4508 -208.19247,222.5117 -15.90778,1.38173 -26.28199,1.37726 -43.125,-0.0186 z m 57.5,-6.67914 c 23.52444,-4.26351 41.36909,-9.9882 61.41134,-19.70117 C 492.05337,479.8797 543.34807,386.72784 533.69349,291.06994 529.07554,245.31517 510.01071,200.18514 480.38191,164.87145 434.23857,109.87455 363.00255,79.913865 292.8125,85.982876 c -26.359,2.279143 -47.2369,7.396185 -70.04784,17.168284 -66.6341,28.54574 -115.90369,88.53922 -131.972389,160.69713 -7.579196,34.03505 -7.579196,67.01837 0,101.05342 21.327679,95.77382 99.321749,166.50607 195.897669,177.65813 12.45136,1.43781 46.93198,0.39781 58.93506,-1.77759 z M 227.96556,414.74202 c -1.1976,-1.93775 1.07208,-3.37068 7.71093,-4.86818 7.65096,-1.72582 161.70458,-3.51834 164.01101,-1.90839 0.85937,0.59986 1.5625,2.16444 1.5625,3.47684 0,1.3124 -0.70313,2.60725 -1.5625,2.87746 -3.68128,1.15746 -171.01325,1.56895 -171.72194,0.42227 z M 189.375,252.49859 c -9.62603,-3.0175 -15.60095,-11.65745 -15.61803,-22.58422 -0.0291,-18.63981 13.81634,-32.53866 30.67992,-30.79818 8.24753,0.85122 13.32928,3.59623 18.4993,9.9928 3.1449,3.89098 3.91453,6.12045 4.32201,12.51985 0.90089,14.14807 -3.55936,23.29565 -13.94118,28.59205 -5.74887,2.93285 -18.10281,4.10813 -23.94202,2.2777 z m 9.47115,-31.15244 c 6.58667,-6.58666 3.65229,-15.09615 -5.20571,-15.09615 -6.93179,0 -12.81687,8.28192 -9.83898,13.84616 3.00183,5.60895 10.09629,6.1984 15.04469,1.24999 z m 211.37371,29.73137 c -5.9934,-1.72657 -14.76107,-10.9816 -16.4916,-17.40826 -2.99575,-11.12535 2.71479,-27.37891 12.14389,-34.5644 6.4723,-4.93226 16.78141,-4.82852 27.03624,0.27205 10.21821,5.08239 14.19051,9.54481 15.92232,17.88688 2.89471,13.94375 -4.17472,28.12267 -16.60306,33.30017 -5.11746,2.13188 -15.54546,2.37521 -22.00779,0.51356 z M 420,218.75 c 3.34415,-3.34415 3.15171,-6.96192 -0.56819,-10.68181 -3.71625,-3.71626 -8.5534,-3.9466 -11.93181,-0.56819 -5.18528,5.18528 -1.29221,13.75 6.25,13.75 2.08334,0 4.86111,-1.11111 6.25,-2.5 z"
       id="path3652"
       inkscape:connector-curvature="0" />
    <path
       style="fill:#5f6055"
       d="M 0,312.5 0,0 312.5,0 625,0 625,312.5 625,625 312.5,625 0,625 0,312.5 Z M 545,609.02096 604.375,608.125 605.30286,580 C 606.69905,537.67935 605.68737,18.937376 604.20576,17.455766 600.88484,14.134833 22.760125,14.239928 19.437898,17.562069 17.547743,19.452174 17.596484,605.59635 19.486952,607.4869 22.174559,610.17461 396.19286,611.26644 545,609.02096 Z M 289.375,546.78597 C 256.48273,543.45045 232.71151,536.56663 205,522.35211 160.45434,499.50259 128.48511,466.84934 105.61202,420.83761 91.469466,392.38831 84.58812,366.7882 82.296074,334.0972 77.68878,268.38425 94.922263,211.90064 134.50739,162.972 165.01625,125.26195 212.97401,95.986853 260.01561,86.35739 282.85696,81.681745 307.1495,79.789227 325,81.294762 c 35.22402,2.970842 60.59796,10.034887 89.97984,25.050178 44.389,22.68451 76.53786,55.56516 99.51486,101.78006 18.1244,36.45461 25.56981,74.0444 23.64463,119.375 -2.22498,52.38924 -21.01404,100.93691 -54.49634,140.80909 -30.37014,36.16607 -76.70628,64.07321 -123.13278,74.15987 -10.67481,2.31923 -47.49096,6.56815 -53.01021,6.11786 -1.03125,-0.0841 -9.1875,-0.89451 -18.125,-1.80085 z m 57.5,-6.09107 c 90.75599,-15.98834 162.14771,-84.83899 182.33068,-175.84092 7.68723,-34.66055 7.68723,-66.2974 0,-100.95796 C 509.00654,172.82121 438.26077,104.57538 346.875,88.008366 c -17.48798,-3.170336 -56.26203,-3.170336 -73.75,0 C 172.32797,106.28152 97.821208,186.96258 86.348131,290.26324 77.842959,366.84165 110.6853,446.40636 170.625,494.43457 c 32.28729,25.87102 72.68094,42.82338 114.375,48.00079 13.08972,1.62543 48.40815,0.63198 61.875,-1.74046 z M 227.95071,414.718 c -1.21503,-1.96596 1.04369,-3.18669 8.92429,-4.82311 9.001,-1.86909 160.32954,-3.66233 162.8125,-1.92934 0.85937,0.59981 1.5625,2.16434 1.5625,3.47674 0,1.3124 -0.70313,2.60868 -1.5625,2.88065 -3.59123,1.13651 -171.04049,1.5217 -171.73679,0.39506 z M 189.69885,252.04749 c -10.77731,-4.02198 -14.51224,-8.48928 -15.55647,-18.60689 -1.47597,-14.30074 6.18594,-28.47233 17.78952,-32.90377 10.66356,-4.07244 23.7075,-0.43673 31.07021,8.66014 3.07511,3.79939 3.85066,6.06477 4.25609,12.43187 0.89189,14.00667 -2.77893,21.89075 -12.97413,27.86554 -6.76892,3.96685 -17.74316,5.10649 -24.58522,2.55311 z m 9.1473,-30.70134 c 6.50949,-6.50948 3.80141,-15.09615 -4.76104,-15.09615 -3.06101,0 -5.3165,1.03907 -7.93126,3.65385 -4.4593,4.45929 -4.63086,7.98277 -0.58566,12.02796 4.12806,4.12808 8.76894,3.92338 13.27796,-0.58566 z M 410.625,250.97309 c -6.18623,-2.1933 -10.42383,-5.80963 -14.04169,-11.98305 -2.88041,-4.91505 -3.39061,-7.13194 -3.20217,-13.91377 0.27595,-9.9314 4.95437,-19.86125 12.05124,-25.57846 4.24272,-3.41792 5.71091,-3.86444 12.5,-3.80146 8.97978,0.0832 20.84488,5.37909 26.13356,11.66431 10.64176,12.64701 4.80566,35.4584 -10.94094,42.76453 -5.55629,2.57801 -16.46111,2.98896 -22.5,0.8479 z M 420,218.75 c 3.34415,-3.34415 3.15171,-6.96192 -0.56819,-10.68181 -3.96447,-3.96449 -9.81702,-4.10045 -12.48593,-0.29005 -4.21794,6.02196 -0.45529,13.47186 6.80412,13.47186 2.08334,0 4.86111,-1.11111 6.25,-2.5 z"
       id="path3650"
       inkscape:connector-curvature="0" />
    <path
       style="fill:#525432"
       d="M 0,312.5 0,0 312.5,0 625,0 625,312.5 625,625 312.5,625 0,625 0,312.5 Z m 597.14875,296.81459 c 7.53571,-0.73215 7.79614,-0.87674 8.50526,-4.72243 0.40234,-2.18193 0.5604,-134.86101 0.35126,-294.84238 C 605.69596,73.158246 605.32177,18.571332 604.00018,17.249776 600.51816,13.767875 23.231895,13.768025 19.749949,17.249929 18.442171,18.557689 18.003007,47.71399 17.5,166.62492 c -0.756711,178.88654 0.229301,440.27183 1.666239,441.70882 2.016065,2.01611 557.622011,2.959 577.982511,0.98085 z M 287.57735,546.1089 C 259.585,543.62395 231.19337,535.24606 205,521.7417 133.66229,484.96255 87.375057,413.12075 82.573934,331.72581 79.874977,285.96957 86.641924,248.71649 104.39566,211.59385 117.95741,183.23654 131.88194,164.0977 154.80602,142.3063 170.9436,126.9661 185.22436,116.96109 206.06997,106.39108 235.03871,91.702161 258.56925,84.979778 290,82.413316 c 8.59375,-0.701717 16.24424,-1.481935 17.00109,-1.733817 2.73986,-0.911843 40.16846,3.144824 52.1371,5.650835 46.81161,9.801486 93.23217,37.347436 123.1699,73.088996 41.07967,49.04352 59.25727,105.65236 55.11522,171.64038 C 532.23391,413.73346 486.58446,484.83534 415,521.7417 c -39.50005,20.3648 -81.6691,28.42884 -127.42265,24.3672 z m 39.07095,-2.3725 C 396.12554,537.97991 457.39889,501.94771 496.39983,443.91289 524.87949,401.53412 539.66768,345.6321 535.1849,297.2983 533.19128,275.80275 529.83295,259.30401 523.64902,240.625 484.21535,121.51255 357.35224,56.720015 240,95.757514 172.5542,118.19352 119.00492,172.197 96.350974,240.625 c -6.18392,18.67901 -9.542248,35.17775 -11.535876,56.6733 -4.483085,48.33716 10.310271,104.25404 38.788332,146.61459 41.65291,61.9579 107.69388,98.1904 183.89657,100.89241 2.40625,0.0854 11.02299,-0.39569 19.1483,-1.0689 z M 230.9375,415.47176 c -1.20313,-0.36029 -2.1875,-1.13842 -2.1875,-1.72919 0,-3.83588 20.8303,-5.09263 96.90072,-5.84628 64.01156,-0.63419 72.71119,-0.49507 74.10564,1.18515 1.28974,1.55403 1.21121,2.27241 -0.4275,3.91112 -1.7961,1.7961 -9.47867,2.00744 -72.97611,2.00744 -39.03278,0 -75.97698,0.25354 -82.09823,0.56342 -6.12123,0.30988 -12.1139,0.26864 -13.31702,-0.0916 z M 186.26009,249.76488 C 178.17238,245.6023 175,240.22057 175,230.66282 c 0,-9.1969 2.6224,-17.5973 6.9506,-22.26507 10.43146,-11.24986 30.0829,-11.11574 39.66397,0.27071 4.35379,5.17419 5.01137,8.04803 4.43828,19.39681 -0.53531,10.60084 -2.38595,13.99172 -10.93692,20.03942 -4.4519,3.14862 -6.67309,3.79358 -14.25721,4.13987 -7.45482,0.34038 -9.93929,-0.0816 -14.59863,-2.47968 z m 13.39713,-27.70577 c 1.53023,-1.47626 3.13995,-4.47495 3.57718,-6.66375 0.6508,-3.25798 0.1863,-4.5883 -2.56155,-7.33615 -2.82073,-2.82072 -4.0901,-3.23975 -7.95219,-2.62506 -6.33467,1.00822 -10.47225,5.9446 -9.97483,11.90057 0.31479,3.76947 1.11969,4.90982 4.74108,6.71698 4.9115,2.45097 8.10655,1.92786 12.17031,-1.99259 z m 207.81185,26.37839 c -14.4896,-7.32865 -17.98055,-27.47846 -7.31213,-42.20578 8.14543,-11.24445 17.8909,-12.89878 33.04563,-5.60966 10.43597,5.0195 13.98649,9.48137 15.10274,18.97926 1.47518,12.55193 -5.96011,26.4705 -16.19919,30.32425 -6.27127,2.36037 -18.487,1.62254 -24.63705,-1.48807 z M 420,220 c 6.71163,-6.71163 -1.01528,-18.47664 -10.21681,-15.55619 -3.54529,1.12523 -6.05179,7.62975 -4.57385,11.86939 2.08471,5.98022 10.41963,8.05782 14.79066,3.6868 z"
       id="path3648"
       inkscape:connector-curvature="0" />
    <path
       style="fill:#050604"
       d="M 0,312.5 0,0 312.5,0 625,0 625,312.5 625,625 312.5,625 0,625 0,312.5 Z m 576.875,297.77573 28.75,-0.90073 0.93989,-15 c 0.51693,-8.25 0.79818,-141.39383 0.625,-295.87517 C 606.94011,75.707896 606.55167,17.301362 605.3115,16.06132 601.91454,12.66474 21.894454,12.605546 18.498569,16.001431 c -3.3848,3.3848 -3.39829,589.598839 -0.01365,592.983489 1.273975,1.27398 31.192575,1.7313 146.869981,2.24498 172.47125,0.76589 371.33575,0.30479 411.5201,-0.95418 z M 305,546.25 c -2.24487,-0.71894 -0.83666,-1.0008 5,-1.0008 5.83666,0 7.24487,0.28186 5,1.0008 -1.71875,0.55044 -3.96875,1.0008 -5,1.0008 -1.03125,0 -3.28125,-0.45036 -5,-1.0008 z m -31.48438,-3.35389 c 0.90234,-0.36108 1.98047,-0.31668 2.39584,0.0986 0.41536,0.41536 -0.32292,0.7108 -1.64062,0.65652 -1.45619,-0.06 -1.75238,-0.35617 -0.75522,-0.7552 z m 70.57067,-0.0125 c 1.21621,-0.31692 2.90371,-0.29608 3.75,0.0464 0.84628,0.34241 -0.14879,0.60171 -2.21129,0.57623 -2.0625,-0.0255 -2.75492,-0.30562 -1.53871,-0.62254 z m 6.85121,-1.21161 c 0.85937,-0.34676 2.26562,-0.34676 3.125,0 0.85937,0.34676 0.15625,0.63049 -1.5625,0.63049 -1.71875,0 -2.42188,-0.28373 -1.5625,-0.63049 z M 366.25,538.21577 C 421.32387,522.59139 465.58699,490.91736 496.51506,445 c 9.08728,-13.49141 20.18506,-34.74634 24.91446,-47.71719 3.29881,-9.04726 4.25969,-8.85568 1.59052,0.31712 -2.89105,9.93526 -15.51884,35.18625 -23.70435,47.40007 -15.10777,22.54271 -36.99062,45.15661 -58.69069,60.65141 -20.58289,14.69706 -60.89641,32.38894 -79.375,34.83428 -3.73301,0.49401 -2.05125,-0.26949 5,-2.26992 z M 237.5,534.51589 c -19.45574,-6.5792 -47.13605,-20.70048 -61.638,-31.445 -29.38888,-21.77427 -53.6967,-51.00804 -69.59297,-83.69589 -7.324986,-15.06255 -15.470088,-38.17346 -16.740673,-47.5 -0.374641,-2.75 -0.366158,-3.875 0.01885,-2.5 22.916933,81.8442 76.350993,139.87139 151.932613,164.9926 9.15485,3.04281 15.52018,5.50983 14.14518,5.48224 -1.375,-0.0276 -9.53125,-2.42787 -18.125,-5.33395 z M 230,414.08586 c 0,-3.77254 28.4164,-5.25291 102.95783,-5.36367 36.34556,-0.054 66.36817,0.18715 66.71692,0.5359 0.34875,0.34875 0.30101,1.5021 -0.10613,2.563 -0.65353,1.70309 -8.09842,1.92936 -63.59192,1.93274 -34.56845,0.002 -72.55485,0.37188 -84.41423,0.82175 -14.69652,0.55747 -21.5625,0.40155 -21.5625,-0.48972 z m 296.29391,-29.81502 c 0.0891,-2.324 4.78056,-17.33077 4.8522,-15.52084 0.0924,2.3346 -3.23529,15.00585 -4.19207,15.96264 -0.38723,0.38721 -0.68428,0.1884 -0.66013,-0.4418 z m 1.8807,-132.49813 C 516.96396,209.80899 488.59532,165.27462 455.45324,137.61145 427.9396,114.64625 400.99857,100.42387 366.25,90.520346 c -8.46279,-2.411937 -9.39155,-2.880832 -4.56385,-2.304129 9.7608,1.166 37.76783,11.365403 53.31385,19.415463 39.40735,20.40596 74.8252,55.56196 95.22446,94.52044 8.8756,16.95061 21.97929,53.11162 20.66974,57.04029 -0.22514,0.67541 -1.44895,-2.66345 -2.71959,-7.4197 z m -438.075926,2.49813 c 0.05997,-1.45619 0.356176,-1.75238 0.755209,-0.75522 0.361088,0.90234 0.31668,1.98047 -0.09869,2.39584 -0.415365,0.41536 -0.710801,-0.32292 -0.656525,-1.64062 z m 102.007856,-2.93498 c -5.34213,-1.08516 -10.12923,-4.26095 -13.7666,-9.13282 -3.95376,-5.29564 -3.34018,-19.28224 1.23866,-28.23547 2.97369,-5.81457 4.70518,-7.56871 10.43098,-10.56746 6.06822,-3.1781 7.66358,-3.49672 13.73912,-2.74404 3.78054,0.46838 8.33766,1.60863 10.12695,2.5339 5.03933,2.60594 10.91266,10.03552 11.83965,14.97677 1.0355,5.51966 -0.28089,16.1244 -2.54051,20.46624 -5.04828,9.70017 -18.59111,15.23744 -31.06825,12.70288 z m 7.98961,-28.73971 c 2.67646,-2.67645 3.65385,-4.84986 3.65385,-8.125 0,-12.7385 -18.78972,-12.83391 -21.98281,-0.11163 -2.53788,10.11173 10.5655,16.00009 18.32896,8.23663 z M 91.425714,250 c 0,-1.03125 0.483428,-3 1.074286,-4.375 0.677144,-1.5758 1.074286,-1.80685 1.074286,-0.625 0,1.03125 -0.483428,3 -1.074286,4.375 -0.677144,1.5758 -1.074286,1.80685 -1.074286,0.625 z m 322.119386,0.0705 c -6.13409,-1.19469 -10.3399,-4.11866 -14.81991,-10.30314 C 395.57954,235.42494 395,233.46123 395,227.14497 c 0,-10.8437 2.24824,-16.89207 8.80911,-23.69885 5.87335,-6.09351 7.50871,-6.65931 17.44089,-6.03418 5.76048,0.36256 19.81456,7.38282 22.69805,11.33806 6.86717,9.4196 4.22772,28.78614 -4.90909,36.01959 -7.27119,5.75647 -14.95332,7.35381 -25.49386,5.30092 z m 7.6562,-30.30621 c 5.70426,-6.12279 0.78098,-16.01429 -7.97079,-16.01429 -8.46161,0 -12.5823,9.66217 -6.76262,15.85694 3.66031,3.89622 11.17536,3.97648 14.73341,0.15736 z M 97.077724,231.875 c 1.096632,-6.02211 17.094116,-37.80431 24.852766,-49.375 21.79636,-32.5055 49.1856,-56.82197 84.31951,-74.85981 14.93674,-7.668555 32.16911,-14.637742 33.32815,-13.478705 0.22682,0.22683 -4.50734,2.279 -10.52036,4.560379 -41.1973,15.630486 -79.74074,46.673586 -105.57183,85.028136 -7.91836,11.75734 -19.39205,33.24962 -25.024294,46.875 -1.709548,4.1357 -1.948777,4.35178 -1.383942,1.25 z M 244.86239,91.812879 c 2.33057,-1.011598 6.54932,-2.12228 9.375,-2.468185 4.127,-0.505203 3.53935,-0.142416 -2.98739,1.844279 -9.61079,2.925458 -12.29379,3.187518 -6.38761,0.623906 z m 106.07511,-5.14073 c 0.85937,-0.346765 2.26562,-0.346765 3.125,0 0.85937,0.346766 0.15625,0.630482 -1.5625,0.630482 -1.71875,0 -2.42188,-0.283716 -1.5625,-0.630482 z m -77.42188,-1.276041 c 0.90234,-0.361089 1.98047,-0.31668 2.39584,0.09869 0.41536,0.415365 -0.32292,0.710801 -1.64062,0.656525 -1.45619,-0.05997 -1.75238,-0.356176 -0.75522,-0.755209 z m 70.57067,-0.01237 c 1.21621,-0.316929 2.90371,-0.296087 3.75,0.04631 0.84628,0.342404 -0.14879,0.60171 -2.21129,0.576235 -2.0625,-0.02548 -2.75492,-0.305622 -1.53871,-0.622552 z m -38.26718,-3.00156 c 2.36269,-0.684303 5.87108,-0.689447 8.75,-0.01282 4.35946,1.02458 3.99309,1.130691 -3.94411,1.142328 -7.31475,0.01075 -8.10305,-0.174546 -4.80589,-1.1295 z"
       id="path3646"
       inkscape:connector-curvature="0" />
  </g>
</svg>
